<svg width="97" height="97" viewBox="0 0 97 97" fill="none" xmlns="http://www.w3.org/2000/svg">
<path d="M39.9889 44.0868C39.2428 44.6197 38.2836 44.9395 37.1112 44.9395H30.5032V38.0117H36.6849C37.3244 38.0117 37.8573 38.0117 38.3902 38.1183C38.9231 38.2248 39.3494 38.438 39.7757 38.6512C40.202 38.9709 40.5218 39.2906 40.735 39.717C40.9481 40.1433 41.0547 40.7828 41.0547 41.4223C41.0547 42.5947 40.735 43.5539 39.9889 44.0868Z" fill="white"/>
<path d="M39.2428 57.3029C38.7099 57.4095 38.0704 57.5161 37.431 57.5161H30.5032V49.3093H37.5375C38.9231 49.3093 40.0955 49.629 40.9481 50.2685C41.8008 51.0146 42.2271 52.0804 42.2271 53.5725C42.2271 54.3186 42.014 54.9581 41.8008 55.491C41.4811 56.0239 41.1613 56.3437 40.735 56.6634C40.3087 56.9832 39.7757 57.1963 39.2428 57.3029Z" fill="white"/>
<path d="M61.4118 45.046C62.7973 45.046 63.9697 45.4724 64.7158 46.2184C65.4619 46.9645 65.9948 48.0303 66.2079 49.629H56.6156C56.6156 49.2759 56.6887 48.9227 56.7744 48.5089C56.7922 48.4232 56.8105 48.3349 56.8288 48.2435C56.9353 47.7106 57.1485 47.1777 57.5748 46.7513C58.0012 46.325 58.4275 45.8987 59.067 45.5789C59.7065 45.2592 60.4525 45.046 61.4118 45.046Z" fill="white"/>
<path fill-rule="evenodd" clip-rule="evenodd" d="M48.0034 0C21.4919 0 0 21.4919 0 48.0034C0 74.515 21.4919 96.0068 48.0034 96.0068C74.515 96.0068 96.0068 74.515 96.0068 48.0034C96.0068 21.4919 74.515 0 48.0034 0ZM41.8008 33.4287C40.6284 33.1089 39.3494 33.0023 37.9639 33.0023H24.0017V62.4188H38.2836C39.5626 62.4188 40.8416 62.2056 42.1205 61.8859C43.3995 61.5662 44.5719 61.0332 45.5311 60.3938C46.4904 59.7543 47.343 58.795 47.8759 57.7292C48.4088 56.6634 48.7286 55.3844 48.7286 53.8923C48.7286 52.0804 48.1957 50.4817 47.343 49.2027C46.4904 47.9237 45.1048 46.9645 43.2929 46.4316C44.5719 45.7921 45.6377 44.9395 46.2772 43.9802C47.0233 43.021 47.343 41.742 47.343 40.2499C47.343 38.9709 47.1299 37.7985 46.7035 36.8393C46.2772 35.88 45.6377 35.134 44.7851 34.6011C43.9324 34.0682 42.9732 33.6418 41.8008 33.4287ZM61.8381 58.6885C60.1328 58.6885 58.8538 58.2621 58.0012 57.4095C57.1485 56.5568 56.509 54.9581 56.509 53.2528H71.9633C72.0699 51.5475 71.9633 50.0554 71.7502 48.5632C71.3238 47.0711 70.6843 45.6855 69.8317 44.5131C68.979 43.2342 67.9132 42.3815 66.5277 41.6354C65.1421 40.8894 63.5434 40.5696 61.7315 40.5696C60.0262 40.5696 58.6406 40.8894 57.2551 41.4223C55.9761 41.9552 54.8037 42.8078 53.8445 43.7671C52.8853 44.8329 52.1392 46.0053 51.6063 47.3908C51.0734 48.7764 50.8602 50.2685 50.8602 51.8672C50.8602 53.5725 51.0734 55.0647 51.6063 56.4502C52.0326 57.8358 52.7787 59.0082 53.7379 59.9674C54.6971 61.0332 55.763 61.7793 57.1485 62.3122C58.5341 62.8451 60.0262 63.1649 61.7315 63.1649C64.1829 63.1649 66.2079 62.5254 67.9132 61.4596C69.6185 60.2872 70.8975 58.4753 71.7502 55.9173H66.5277C66.3145 56.5568 65.7816 57.1963 64.9289 57.8358C64.0763 58.3687 63.0105 58.6885 61.8381 58.6885ZM67.2737 35.0274H55.3366V37.9051H67.2737V35.0274Z" fill="white"/>
</svg>
