<svg width="97" height="97" viewBox="0 0 97 97" fill="none" xmlns="http://www.w3.org/2000/svg">
<path d="M48.0464 56.404C43.5461 56.404 39.6458 52.8037 39.6458 48.0034C39.6458 43.5031 43.246 39.6028 48.0464 39.6028C52.5467 39.6028 56.447 43.2031 56.447 48.0034C56.447 52.5037 52.5467 56.404 48.0464 56.404Z" fill="white"/>
<path fill-rule="evenodd" clip-rule="evenodd" d="M58.2471 27.602H37.8457C35.4455 27.902 34.2454 28.202 33.3453 28.502C32.1453 28.802 31.2452 29.4021 30.3451 30.3022C29.6329 31.0144 29.2964 31.7266 28.8897 32.5874C28.7825 32.8143 28.6701 33.0521 28.545 33.3024C28.4986 33.4416 28.445 33.588 28.3876 33.745C28.0737 34.6025 27.6449 35.7738 27.6449 37.8027V58.2041C27.945 60.6043 28.245 61.8044 28.545 62.7045C28.845 63.9045 29.4451 64.8046 30.3451 65.7047C31.0573 66.4169 31.7696 66.7534 32.6304 67.1601C32.8575 67.2674 33.0949 67.3796 33.3453 67.5048C33.4846 67.5512 33.631 67.6048 33.7879 67.6622C34.6454 67.9761 35.8168 68.4049 37.8457 68.4049H58.2471C60.6473 68.1048 61.8474 67.8048 62.7474 67.5048C63.9475 67.2048 64.8476 66.6047 65.7476 65.7047C66.4599 64.9925 66.7964 64.2803 67.2031 63.4194C67.3103 63.1924 67.4226 62.9549 67.5478 62.7045C67.5942 62.5652 67.6478 62.4188 67.7052 62.2619C68.0191 61.4044 68.4478 60.233 68.4478 58.2041V37.8027C68.1478 35.4025 67.8478 34.2024 67.5478 33.3024C67.2477 32.1023 66.6477 31.2022 65.7476 30.3022C65.0354 29.5899 64.3232 29.2534 63.4624 28.8467C63.2357 28.7396 62.9975 28.627 62.7474 28.502C62.6082 28.4556 62.4618 28.402 62.3048 28.3446C61.4473 28.0307 60.276 27.602 58.2471 27.602ZM48.0464 35.1025C40.8459 35.1025 35.1455 40.8029 35.1455 48.0034C35.1455 55.2039 40.8459 60.9043 48.0464 60.9043C55.2469 60.9043 60.9473 55.2039 60.9473 48.0034C60.9473 40.8029 55.2469 35.1025 48.0464 35.1025ZM64.2475 34.8025C64.2475 36.4594 62.9043 37.8027 61.2473 37.8027C59.5904 37.8027 58.2471 36.4594 58.2471 34.8025C58.2471 33.1455 59.5904 31.8023 61.2473 31.8023C62.9043 31.8023 64.2475 33.1455 64.2475 34.8025Z" fill="white"/>
<path fill-rule="evenodd" clip-rule="evenodd" d="M0.0429688 48.0034C0.0429688 21.4919 21.5348 0 48.0464 0C74.5579 0 96.0498 21.4919 96.0498 48.0034C96.0498 74.515 74.5579 96.0068 48.0464 96.0068C21.5348 96.0068 0.0429688 74.515 0.0429688 48.0034ZM37.8457 23.1016H58.2471C60.9473 23.4017 62.7474 23.7017 64.2475 24.3017C66.0477 25.2018 67.2477 25.8018 68.7479 27.3019C70.248 28.802 71.148 30.3022 71.7481 31.8023C72.3481 33.3024 72.9482 35.1025 72.9482 37.8027V58.2041C72.6481 60.9043 72.3481 62.7045 71.7481 64.2046C70.848 66.0047 70.248 67.2048 68.7479 68.7049C67.2477 70.205 65.7476 71.1051 64.2475 71.7051C62.7474 72.3051 60.9473 72.9052 58.2471 72.9052H37.8457C35.1455 72.6052 33.3453 72.3051 31.8452 71.7051C30.0451 70.805 28.845 70.205 27.3449 68.7049C25.8448 67.2048 24.9447 65.7047 24.3447 64.2046C23.7447 62.7045 23.1446 60.9043 23.1446 58.2041V37.8027C23.4446 35.1025 23.7447 33.3024 24.3447 31.8023C25.2448 30.0021 25.8448 28.802 27.3449 27.3019C28.845 25.8018 30.3451 24.9018 31.8452 24.3017C33.3453 23.7017 35.1455 23.1016 37.8457 23.1016Z" fill="white"/>
</svg>
