<svg width="97" height="97" viewBox="0 0 97 97" fill="none" xmlns="http://www.w3.org/2000/svg">
<path fill-rule="evenodd" clip-rule="evenodd" d="M0.0288086 48.0034C0.0288086 21.4919 21.5207 0 48.0322 0C74.5438 0 96.0356 21.4919 96.0356 48.0034C96.0356 74.515 74.5438 96.0068 48.0322 96.0068C21.5207 96.0068 0.0288086 74.515 0.0288086 48.0034ZM24.6306 39.9029V72.0051H34.8313V39.9029H24.6306ZM24.0305 29.7021C24.0305 33.0023 26.4307 35.4025 29.7309 35.4025C33.0312 35.4025 35.4313 33.0023 35.4313 29.7021C35.4313 26.4019 33.0312 24.0017 29.7309 24.0017C26.7307 24.0017 24.0305 26.4019 24.0305 29.7021ZM61.8332 72.0051H71.4339V52.2037C71.4339 42.303 65.4334 39.0028 59.733 39.0028C54.6327 39.0028 51.0324 42.303 50.1324 44.4032V39.9029H40.5317V72.0051H50.7324V54.9039C50.7324 50.4036 53.7326 48.0034 56.7328 48.0034C59.733 48.0034 61.8332 49.5035 61.8332 54.6039V72.0051Z" fill="white"/>
</svg>
