<svg width="97" height="97" viewBox="0 0 97 97" fill="none" xmlns="http://www.w3.org/2000/svg">
<path fill-rule="evenodd" clip-rule="evenodd" d="M48.0176 0C21.506 0 0.0141602 21.4919 0.0141602 48.0034C0.0141602 74.515 21.506 96.0068 48.0176 96.0068C74.5291 96.0068 96.021 74.515 96.021 48.0034C96.021 21.4919 74.5291 0 48.0176 0ZM57.3729 24.0017C57.3729 24.715 57.4396 25.4175 57.5623 26.0974C58.1526 29.2403 60.0126 31.9374 62.5962 33.6202C64.4003 34.8016 66.5384 35.4815 68.8435 35.4815L68.8431 37.3204V43.729C64.5667 43.729 60.6024 42.3582 57.3727 40.0399V56.8138C57.3727 65.1841 50.5576 72.0051 42.1945 72.0051C38.965 72.0051 35.9581 70.9795 33.497 69.252C29.5773 66.499 27.0161 61.9517 27.0161 56.8138C27.0161 48.4324 33.8202 41.6227 42.1833 41.6337C42.8849 41.6337 43.5642 41.6895 44.2324 41.7787V43.729L44.208 43.7407L44.2323 43.7402V50.2046C43.5865 50.0039 42.896 49.8814 42.1833 49.8814C38.3637 49.8814 35.2567 52.991 35.2567 56.8138C35.2567 59.4777 36.7712 61.7847 38.9761 62.955C38.9967 62.9832 39.0176 63.0113 39.0385 63.0391L39.0755 63.0879C39.0502 63.0389 39.0209 62.9908 38.9874 62.9438C39.9562 63.4565 41.0474 63.7463 42.2057 63.7463C45.9361 63.7463 48.9876 60.7706 49.1211 57.0703L49.1322 24.0017H57.3729Z" fill="white"/>
</svg>
