<svg width="97" height="97" viewBox="0 0 97 97" fill="none" xmlns="http://www.w3.org/2000/svg">
<path fill-rule="evenodd" clip-rule="evenodd" d="M0.0571289 48.0034C0.0571289 21.4919 21.549 0 48.0605 0C74.5721 0 96.064 21.4919 96.064 48.0034C96.064 74.515 74.5721 96.0068 48.0605 96.0068C21.549 96.0068 0.0571289 74.515 0.0571289 48.0034ZM66.3619 34.5025C68.462 34.2024 70.2621 33.9024 72.0623 33.0023C70.8622 35.1025 69.062 36.9026 66.9619 38.1027C67.5619 52.2037 57.3612 67.5048 39.0599 67.5048C33.6595 67.5048 28.5592 65.7047 24.0588 63.0045C29.1592 63.6045 34.5596 62.1044 38.1598 59.4042C33.6595 59.4042 30.0593 56.404 28.8592 52.5037C30.3593 52.8038 31.8594 52.5037 33.3595 52.2037C28.8592 51.0036 25.5589 46.8033 25.5589 42.303C27.0591 42.9031 28.5592 43.5031 30.0593 43.5031C25.859 40.5029 24.3589 34.8025 27.0591 30.3022C32.1594 36.3026 39.3599 40.2029 47.4605 40.5029C45.9604 34.5025 50.7607 28.502 57.0612 28.502C59.7614 28.502 62.4616 29.7021 64.2617 31.5022C66.6619 30.9022 68.762 30.3022 70.5621 29.1021C69.9621 31.5022 68.462 33.3024 66.3619 34.5025Z" fill="white"/>
</svg>
