<svg width="97" height="97" viewBox="0 0 97 97" fill="none" xmlns="http://www.w3.org/2000/svg">
<path fill-rule="evenodd" clip-rule="evenodd" d="M0.0712891 48.0034C0.0712891 21.4919 21.5632 0 48.0747 0C74.5863 0 96.0781 21.4919 96.0781 48.0034C96.0781 74.515 74.5863 96.0068 48.0747 96.0068C21.5632 96.0068 0.0712891 74.515 0.0712891 48.0034ZM48.0747 24.0017C61.2756 24.0017 72.0764 34.8025 72.0764 48.0034C72.0764 60.0043 63.3758 70.205 51.3749 72.0051V54.9039H57.0753L58.2754 48.0034H51.675V43.5031C51.675 41.703 52.575 39.9028 55.5752 39.9028H58.5755V33.9024C58.5755 33.9024 55.8753 33.3024 53.1751 33.3024C47.7747 33.3024 44.1744 36.6026 44.1744 42.603V48.0034H38.174V54.9039H44.1744V71.7051C32.7736 69.905 24.073 60.0043 24.073 48.0034C24.073 34.8025 34.8738 24.0017 48.0747 24.0017Z" fill="#4F4E4E"/>
</svg>
