<svg width="97" height="97" viewBox="0 0 97 97" fill="none" xmlns="http://www.w3.org/2000/svg">
<path fill-rule="evenodd" clip-rule="evenodd" d="M0.0283203 48.0034C0.0283203 21.4919 21.5202 0 48.0317 0C74.5433 0 96.0352 21.4919 96.0352 48.0034C96.0352 74.515 74.5433 96.0068 48.0317 96.0068C21.5202 96.0068 0.0283203 74.515 0.0283203 48.0034ZM24.6301 39.9029V72.0051H34.8308V39.9029H24.6301ZM24.03 29.7021C24.03 33.0023 26.4302 35.4025 29.7304 35.4025C33.0307 35.4025 35.4309 33.0023 35.4309 29.7021C35.4309 26.4019 33.0307 24.0017 29.7304 24.0017C26.7302 24.0017 24.03 26.4019 24.03 29.7021ZM61.8327 72.0051H71.4334V52.2037C71.4334 42.303 65.433 39.0028 59.7326 39.0028C54.6322 39.0028 51.032 42.303 50.1319 44.4032V39.9029H40.5312V72.0051H50.7319V54.9039C50.7319 50.4036 53.7321 48.0034 56.7323 48.0034C59.7326 48.0034 61.8327 49.5035 61.8327 54.6039V72.0051Z" fill="#4F4E4E"/>
</svg>
