<svg width="97" height="97" viewBox="0 0 97 97" fill="none" xmlns="http://www.w3.org/2000/svg">
<path fill-rule="evenodd" clip-rule="evenodd" d="M48.0181 0C21.5065 0 0.0146484 21.4919 0.0146484 48.0034C0.0146484 74.515 21.5065 96.0068 48.0181 96.0068C74.5296 96.0068 96.0215 74.515 96.0215 48.0034C96.0215 21.4919 74.5296 0 48.0181 0ZM57.3734 24.0017C57.3734 24.715 57.4401 25.4175 57.5628 26.0974C58.1531 29.2403 60.0131 31.9374 62.5967 33.6202C64.4008 34.8016 66.5389 35.4815 68.8439 35.4815L68.8436 37.3204V43.729C64.5672 43.729 60.6029 42.3582 57.3732 40.0399V56.8138C57.3732 65.1841 50.5581 72.0051 42.195 72.0051C38.9655 72.0051 35.9586 70.9795 33.4975 69.252C29.5778 66.499 27.0166 61.9517 27.0166 56.8138C27.0166 48.4324 33.8207 41.6227 42.1838 41.6337C42.8854 41.6337 43.5647 41.6895 44.2329 41.7787V43.729L44.2085 43.7407L44.2328 43.7402V50.2046C43.587 50.0039 42.8965 49.8814 42.1838 49.8814C38.3642 49.8814 35.2572 52.991 35.2572 56.8138C35.2572 59.4777 36.7717 61.7847 38.9766 62.955C38.9972 62.9832 39.0181 63.0113 39.039 63.0391L39.076 63.0879C39.0507 63.0389 39.0214 62.9908 38.9879 62.9438C39.9566 63.4565 41.0479 63.7463 42.2062 63.7463C45.9366 63.7463 48.988 60.7706 49.1215 57.0703L49.1327 24.0017H57.3734Z" fill="#4F4E4E"/>
</svg>
