<svg width="97" height="97" viewBox="0 0 97 97" fill="none" xmlns="http://www.w3.org/2000/svg">
<path fill-rule="evenodd" clip-rule="evenodd" d="M0.0576172 48.0034C0.0576172 21.4919 21.5495 0 48.061 0C74.5726 0 96.0645 21.4919 96.0645 48.0034C96.0645 74.515 74.5726 96.0068 48.061 96.0068C21.5495 96.0068 0.0576172 74.515 0.0576172 48.0034ZM66.3623 34.5025C68.4625 34.2024 70.2626 33.9024 72.0627 33.0023C70.8627 35.1025 69.0625 36.9026 66.9624 38.1027C67.5624 52.2037 57.3617 67.5048 39.0604 67.5048C33.66 67.5048 28.5596 65.7047 24.0593 63.0045C29.1597 63.6045 34.5601 62.1044 38.1603 59.4042C33.66 59.4042 30.0598 56.404 28.8597 52.5037C30.3598 52.8038 31.8599 52.5037 33.36 52.2037C28.8597 51.0036 25.5594 46.8033 25.5594 42.303C27.0595 42.9031 28.5596 43.5031 30.0598 43.5031C25.8595 40.5029 24.3593 34.8025 27.0595 30.3022C32.1599 36.3026 39.3604 40.2029 47.461 40.5029C45.9609 34.5025 50.7612 28.502 57.0617 28.502C59.7619 28.502 62.4621 29.7021 64.2622 31.5022C66.6624 30.9022 68.7625 30.3022 70.5626 29.1021C69.9626 31.5022 68.4625 33.3024 66.3623 34.5025Z" fill="#4F4E4E"/>
</svg>
