<svg width="122" height="125" viewBox="0 0 122 125" fill="none" xmlns="http://www.w3.org/2000/svg">
<path d="M122 62.4933C122 85.2308 110.123 105.145 92.3903 116.074C90.6368 117.178 88.8113 118.168 86.9407 119.06C86.9272 119.074 86.9272 119.074 86.9136 119.074C82.4692 121.235 77.7273 122.834 72.7601 123.825C68.9512 124.604 65.0162 125 60.9955 125C57.0604 125 53.211 124.617 49.4878 123.883C51.3269 123.982 61.7888 124.081 70.3395 114.692C70.5108 114.521 70.6776 114.336 70.8353 114.156C70.9616 114.016 71.0742 113.872 71.205 113.733C71.7414 113.125 72.2507 112.458 72.7601 111.751C73.044 111.355 73.31 110.958 73.5804 110.535C73.621 110.477 73.6525 110.409 73.6931 110.351C73.9185 109.995 74.1619 109.63 74.3737 109.261C74.9823 108.243 75.5772 107.167 76.1272 106.009C81.2522 95.5885 84.5066 79.9483 84.5066 62.4933C84.5066 41.4491 79.7782 23.0664 72.7601 13.24C71.5295 11.5288 70.2404 10.0742 68.8971 8.91231C67.7071 7.88104 66.4495 7.07494 65.1739 6.52102C64.5924 6.26433 63.9975 6.05267 63.4025 5.91307C62.6091 5.71492 61.8023 5.61584 60.9955 5.61584C60.1886 5.61584 59.4088 5.71492 58.6155 5.91307C58.602 5.89956 58.602 5.91307 58.5884 5.91307C56.6773 6.38141 54.8382 7.41269 53.0983 8.92582C52.7602 9.22304 52.4312 9.52026 52.0931 9.8445C61.4372 0.0586996 72.7601 1.17553 72.7601 1.17553C77.7138 2.15276 82.4422 3.76496 86.8866 5.91307C86.9001 5.89956 86.9001 5.91307 86.9136 5.91307C88.8248 6.83175 90.6774 7.84951 92.4624 8.95283C110.15 19.9005 122 39.7964 122 62.4933Z" fill="url(#paint0_linear_1578_487)"/>
<path d="M45.1111 20.6209C40.4278 31.0147 37.498 45.9343 37.498 62.4932C37.498 83.5239 42.2263 101.893 49.2445 111.733C50.4751 113.471 51.7777 114.944 53.1525 116.119C54.3425 117.137 55.5866 117.943 56.8622 118.479C57.4121 118.718 57.9801 118.916 58.548 119.06C58.5615 119.073 58.5751 119.073 58.5886 119.073C59.3819 119.272 60.1888 119.371 60.9956 119.371C61.8295 119.371 62.6499 119.272 63.4747 119.06C65.3273 118.592 67.1258 117.587 68.8251 116.133C69.348 115.678 69.8438 115.214 70.3397 114.692C61.7889 124.081 51.3315 123.982 49.4879 123.883H49.4744C49.4023 123.869 49.3166 123.856 49.249 123.842C44.2547 122.838 39.4948 121.226 35.0233 119.064C33.1843 118.173 31.3993 117.2 29.6729 116.137C11.9043 105.203 0 85.2622 0 62.4932C0 39.7692 11.8638 19.8418 29.5963 8.91215C31.3677 7.82234 33.1933 6.81809 35.0864 5.91291C39.5308 3.76481 44.2727 2.1526 49.24 1.16186C53.0353 0.396293 56.9704 0 60.9866 0C65.0073 0 68.9423 0.396299 72.7512 1.17538C72.7512 1.17538 61.4283 0.0585475 52.0843 9.84435C51.913 10.0155 51.7462 10.1821 51.5884 10.3667C50.7681 11.2314 49.9883 12.1906 49.24 13.2534C49.0282 13.5641 48.8028 13.8749 48.5909 14.1991C48.3791 14.5233 48.1672 14.8476 47.9554 15.1898C47.7435 15.5456 47.5317 15.8834 47.3333 16.2346C47.108 16.5904 46.9096 16.9552 46.7248 17.3244C46.3417 18.045 45.9586 18.797 45.5934 19.5581C45.4222 19.9139 45.2644 20.2651 45.1111 20.6209Z" fill="url(#paint1_linear_1578_487)"/>
<path d="M45.1111 20.6209C40.4278 31.0147 37.498 45.9343 37.498 62.4932C37.498 83.5239 42.2263 101.893 49.2445 111.733C50.4751 113.471 51.7777 114.944 53.1525 116.119C54.3425 117.137 55.5866 117.943 56.8622 118.479C57.4121 118.718 57.9801 118.916 58.548 119.06C58.5615 119.073 58.5751 119.073 58.5886 119.073C59.3819 119.272 60.1888 119.371 60.9956 119.371C61.8295 119.371 62.6499 119.272 63.4747 119.06C65.3273 118.592 67.1258 117.587 68.8251 116.133C69.348 115.678 69.8438 115.214 70.3397 114.692C61.7889 124.081 51.3315 123.982 49.4879 123.883H49.4744C49.4023 123.869 49.3166 123.856 49.249 123.842C44.2547 122.838 39.4948 121.226 35.0233 119.064C33.1843 118.173 31.3993 117.2 29.6729 116.137C11.9043 105.203 0 85.2622 0 62.4932C0 39.7692 11.8638 19.8418 29.5963 8.91215C31.3677 7.82234 33.1933 6.81809 35.0864 5.91291C39.5308 3.76481 44.2727 2.1526 49.24 1.16186C53.0353 0.396293 56.9704 0 60.9866 0C65.0073 0 68.9423 0.396299 72.7512 1.17538C72.7512 1.17538 61.4283 0.0585475 52.0843 9.84435C51.913 10.0155 51.7462 10.1821 51.5884 10.3667C50.7681 11.2314 49.9883 12.1906 49.24 13.2534C49.0282 13.5641 48.8028 13.8749 48.5909 14.1991C48.3791 14.5233 48.1672 14.8476 47.9554 15.1898C47.7435 15.5456 47.5317 15.8834 47.3333 16.2346C47.108 16.5904 46.9096 16.9552 46.7248 17.3244C46.3417 18.045 45.9586 18.797 45.5934 19.5581C45.4222 19.9139 45.2644 20.2651 45.1111 20.6209Z" fill="url(#paint2_linear_1578_487)"/>
<defs>
<linearGradient id="paint0_linear_1578_487" x1="60.1717" y1="124.453" x2="61.4496" y2="1.6625" gradientUnits="userSpaceOnUse">
<stop stop-color="#BE01FF"/>
<stop offset="0.3742" stop-color="#AB01FF"/>
<stop offset="0.5209" stop-color="#A501FF"/>
<stop offset="0.6277" stop-color="#9100EA"/>
<stop offset="0.7152" stop-color="#8600D9"/>
<stop offset="0.7908" stop-color="#7800C2"/>
<stop offset="0.8583" stop-color="#6700A6"/>
<stop offset="0.9196" stop-color="#520085"/>
<stop offset="0.9745" stop-color="#3B0060"/>
<stop offset="1" stop-color="#2F004C"/>
</linearGradient>
<linearGradient id="paint1_linear_1578_487" x1="62.7322" y1="-0.8956" x2="62.7399" y2="124.453" gradientUnits="userSpaceOnUse">
<stop stop-color="#BE01FF"/>
<stop offset="0.3742" stop-color="#AB01FF"/>
<stop offset="0.5209" stop-color="#A501FF"/>
<stop offset="0.6277" stop-color="#9100EA"/>
<stop offset="0.7152" stop-color="#8600D9"/>
<stop offset="0.7908" stop-color="#7800C2"/>
<stop offset="0.8583" stop-color="#6700A6"/>
<stop offset="0.9196" stop-color="#520085"/>
<stop offset="0.9745" stop-color="#3B0060"/>
<stop offset="1" stop-color="#2F004C"/>
</linearGradient>
<linearGradient id="paint2_linear_1578_487" x1="62.7322" y1="-0.8956" x2="62.7399" y2="124.453" gradientUnits="userSpaceOnUse">
<stop stop-color="#BE01FF"/>
<stop offset="0.3742" stop-color="#AB01FF"/>
<stop offset="0.5209" stop-color="#A501FF"/>
<stop offset="0.6277" stop-color="#9100EA"/>
<stop offset="0.7152" stop-color="#8600D9"/>
<stop offset="0.7908" stop-color="#7800C2"/>
<stop offset="0.8583" stop-color="#6700A6"/>
<stop offset="0.9196" stop-color="#520085"/>
<stop offset="0.9745" stop-color="#3B0060"/>
<stop offset="1" stop-color="#2F004C"/>
</linearGradient>
</defs>
</svg>
