<svg width="515" height="516" viewBox="0 0 515 516" fill="none" xmlns="http://www.w3.org/2000/svg">
<g clip-path="url(#clip0_1758_905)">
<path d="M259.378 72.5901C219.938 83.3005 181.243 103.982 147.487 134.523C111.454 167.131 85.9449 206.548 71.6353 247.689C39.4926 201.877 51.3969 132.461 100.977 87.5986C127.4 63.6852 160.818 50.2842 193.549 50.2842C195.628 50.2842 197.713 50.3366 199.781 50.4473C222.395 51.6354 243.071 59.3871 259.378 72.5901Z" fill="url(#paint0_linear_1758_905)"/>
<path d="M391.967 81.4604C391.624 80.8896 391.274 80.3189 390.925 79.7481C390.465 79.0085 390.005 78.2688 389.527 77.535C388.688 76.2188 387.832 74.9142 386.953 73.6271C382.864 67.6167 378.368 61.8626 373.528 56.4637C349.19 29.2715 316.546 11.0132 279.121 3.65748C267.479 1.36282 255.394 0.139776 243.164 0.011648C242.442 0.00582401 241.72 0 240.997 0C234.154 0 227.276 0.343616 220.392 1.01338C211.435 1.8928 202.46 3.33716 193.543 5.33479C173.398 9.83675 153.515 17.1459 134.587 27.0816C126.585 31.5894 115.612 38.2812 106.55 44.1751C98.1578 50.4184 87.7387 58.904 81.3089 64.332C72.4332 72.3633 72.3749 72.4273 56.3531 90.2896C48.7761 99.3517 48.7295 99.4216 35.5439 119.025L34.8334 120.167C23.529 138.512 14.8745 157.883 9.02138 177.638C6.40058 186.45 4.3447 195.343 2.85958 204.248C1.61907 211.685 0.780412 219.14 0.343612 226.565C-0.361093 238.668 0.00581916 250.706 1.48512 262.54C3.6633 279.954 8.23514 296.628 15.0667 312.103C22.1021 328.031 31.5312 342.655 43.086 355.573C49.4167 362.638 56.3473 369.155 63.767 374.996C64.9901 375.963 66.2306 376.912 67.4828 377.844C68.1816 378.362 68.8863 378.881 69.5969 379.387C70.1385 379.778 70.686 380.162 71.2334 380.546C100.668 401.158 136.713 412.037 175.611 412.037C203.252 412.037 230.986 406.626 258.038 395.957C286.093 384.885 312.039 368.671 335.148 347.763C355.433 329.4 372.457 308.358 385.736 285.207C398.548 262.872 407.523 239.239 412.415 214.958C422.101 166.846 414.838 119.532 391.967 81.4604ZM254.771 259.395C226.303 285.155 190.992 299.342 155.344 299.342C122.514 299.342 93.1375 287.083 72.3866 264.765C71.9265 264.276 71.4722 263.775 71.0238 263.274C70.7093 262.925 70.3948 262.569 70.0803 262.208C69.3231 261.335 68.5718 260.444 67.8322 259.535C66.9586 258.464 66.0966 257.369 65.2638 256.256C27.6291 206.147 40.3138 128.745 94.1392 80.0393C122.601 54.2797 157.912 40.0925 193.561 40.0925C221.935 40.0925 248.516 49.5856 268.405 66.8305C269.448 67.7332 270.473 68.6592 271.486 69.6143C272.336 70.4122 273.175 71.2218 273.996 72.0546C274.806 72.8641 275.604 73.6912 276.384 74.5298C276.891 75.0656 277.386 75.6131 277.881 76.1605C322.149 125.612 311.782 207.806 254.771 259.395Z" fill="url(#paint1_linear_1758_905)"/>
<path d="M93.2365 446.917C76.4401 436.999 61.3967 424.664 48.3567 410.092C41.0592 401.938 34.3325 392.049 29.1608 383.692C25.4393 376.831 21.5838 369.19 18.7591 363.477L18.7358 363.424C18.6951 363.349 18.6601 363.273 18.6193 363.197C17.8797 361.694 17.1692 360.238 16.4936 358.852C10.1512 344.339 5.51533 328.824 2.71398 312.755C10.3958 331.351 21.0538 348.41 34.4082 363.337C42.9346 372.865 52.4859 381.45 62.8061 388.852L63.5341 389.376C70.1909 410.43 80.15 429.713 93.2365 446.917Z" fill="url(#paint2_linear_1758_905)"/>
<path d="M458.611 110.569C442.089 95.5487 423.062 83.7026 401.827 75.2345L400.837 73.6271C395.392 64.8037 389.125 56.4172 382.206 48.6887C366.691 31.3565 348.037 17.4138 327.041 7.3208C343.826 11.2811 359.842 17.1808 374.577 24.8977C384.041 30.2907 396.912 38.322 407.418 45.3807C418.129 53.4528 422.38 56.8831 430.266 64.4368C441.733 78.3679 451.232 93.8189 458.611 110.569Z" fill="url(#paint3_linear_1758_905)"/>
<path d="M514.178 248.434L514.085 264.451C511.633 330.99 479.479 396.982 425.851 445.513C374.658 491.843 308.865 517.224 245.342 515.133C243.368 514.993 241.19 514.854 238.93 514.714C237.806 514.644 236.664 514.574 235.523 514.498L235.412 514.446H234.713C233.298 514.347 231.883 514.248 230.497 514.143L230.374 514.132C228.097 513.957 226.169 513.776 224.475 513.59C214.58 512.093 208.261 511.132 203.351 510.253C196.141 508.971 191.773 507.836 182.845 505.361C173.957 502.46 168.232 500.585 163.614 498.972C163.608 498.972 163.602 498.972 163.596 498.966C162.938 498.739 162.309 498.517 161.692 498.296L161.529 498.232C156.054 496.263 152.047 494.574 145.676 491.628C144.266 490.969 142.735 490.259 141.052 489.461C131.791 484.522 125.589 481.22 120.732 478.43L120.347 478.203C113.999 474.546 109.684 471.622 100.755 465.239C91.2098 457.639 86.0148 453.486 81.5477 449.636C77.7039 446.328 74.524 443.323 70.6568 439.427C72.672 440.965 74.722 442.467 76.8012 443.929C76.807 443.935 76.8128 443.941 76.8186 443.946C85.4556 450.015 94.611 455.414 104.25 460.096C105.147 460.533 106.044 460.958 106.946 461.383C107.715 461.745 108.49 462.1 109.264 462.449C110.947 463.212 112.648 463.958 114.354 464.674C133.346 472.67 153.748 477.906 175.105 480.259C198.995 482.892 223.624 481.872 248.307 477.231C299.5 467.603 348.066 443.055 388.758 406.242C429.946 368.962 459.322 321.84 473.701 269.972C480.585 245.161 483.812 219.961 483.294 195.075C482.845 173.747 479.659 153.049 473.795 133.399C473.795 133.393 473.795 133.393 473.795 133.387C472.775 129.951 471.669 126.55 470.481 123.178C469.776 121.168 469.042 119.176 468.279 117.202C468.279 117.202 468.273 117.196 468.273 117.191C464.971 108.635 461.156 100.377 456.841 92.4385C459.054 95.2515 461.384 98.3265 463.771 101.576C463.771 101.582 463.777 101.582 463.777 101.588C466.002 104.634 468.273 107.849 470.521 111.163C470.521 111.163 470.521 111.168 470.527 111.168C472.764 114.447 474.977 117.831 477.12 121.261C489.886 144.493 490.952 146.45 497.615 163.52C505.862 188.255 506.362 189.781 509.688 206.426C513.45 231.265 513.677 232.797 514.178 248.434Z" fill="url(#paint4_linear_1758_905)"/>
</g>
<defs>
<linearGradient id="paint0_linear_1758_905" x1="42.4906" y1="207.136" x2="223.423" y2="44.0639" gradientUnits="userSpaceOnUse">
<stop stop-color="#AA16A9"/>
<stop offset="0.5151" stop-color="#B92A8A"/>
<stop offset="1" stop-color="#CA566B"/>
</linearGradient>
<linearGradient id="paint1_linear_1758_905" x1="57.361" y1="77.6528" x2="353.221" y2="329.25" gradientUnits="userSpaceOnUse">
<stop stop-color="#C606F4"/>
<stop offset="0.3985" stop-color="#F34493"/>
<stop offset="1" stop-color="#FDB098"/>
</linearGradient>
<linearGradient id="paint2_linear_1758_905" x1="1.05053" y1="316.772" x2="85.6927" y2="447.23" gradientUnits="userSpaceOnUse">
<stop stop-color="#9A0BAC"/>
<stop offset="0.5151" stop-color="#AB2386"/>
<stop offset="1" stop-color="#BD4661"/>
</linearGradient>
<linearGradient id="paint3_linear_1758_905" x1="328.398" y1="-0.149597" x2="458.856" y2="103.13" gradientUnits="userSpaceOnUse">
<stop stop-color="#BA3381"/>
<stop offset="0.3985" stop-color="#C6516A"/>
<stop offset="1" stop-color="#C68077"/>
</linearGradient>
<linearGradient id="paint4_linear_1758_905" x1="158.872" y1="528.187" x2="529.279" y2="173.311" gradientUnits="userSpaceOnUse">
<stop stop-color="#DC24C4"/>
<stop offset="0.2658" stop-color="#FC5F83"/>
<stop offset="0.499" stop-color="#FD8B8E"/>
<stop offset="1" stop-color="#FDA595"/>
</linearGradient>
<clipPath id="clip0_1758_905">
<rect width="514.178" height="515.256" fill="white"/>
</clipPath>
</defs>
</svg>
