<svg width="89" height="65" viewBox="0 0 89 65" fill="none" xmlns="http://www.w3.org/2000/svg">
<path d="M0 4.9462C0 2.21443 2.21443 0 4.9462 0C7.67796 0 9.89239 2.21443 9.89239 4.9462C9.89239 7.67796 7.67796 9.89239 4.9462 9.89239C2.21443 9.88608 0 7.67165 0 4.9462ZM84.0538 54.9003C81.322 54.9003 79.1076 57.1147 79.1076 59.8465C79.1076 62.5782 81.322 64.7926 84.0538 64.7926C86.7856 64.7926 89 62.5782 89 59.8465C89 57.1147 86.7793 54.9003 84.0538 54.9003ZM87.5426 20.2895C86.6531 19.3873 85.4165 18.8321 84.0538 18.8321C81.6059 18.8321 79.5745 20.6239 79.1833 22.9582C79.177 22.9771 79.1707 22.9897 79.1707 23.0086C79.1644 23.015 79.1644 23.015 79.1644 23.0213C79.1644 23.0654 79.1581 23.1159 79.1581 23.1601C78.8489 25.589 76.7418 27.4691 74.1803 27.4691C71.4044 27.4691 69.1332 25.242 69.1332 22.5229V14.4474C69.1332 13.0847 68.578 11.8482 67.6821 10.9586C66.7926 10.0564 65.5497 9.50124 64.1933 9.50124C61.4742 9.50124 59.2534 11.722 59.2534 14.4474V50.7048C59.2534 53.424 61.4742 55.6447 64.1933 55.6447C66.9125 55.6447 69.1332 53.4177 69.1332 50.7048V43.5631C69.1332 42.9953 69.1584 42.4275 69.19 41.8723C69.19 41.866 69.19 41.8597 69.1963 41.8597C69.5685 39.5002 71.6631 37.6832 74.174 37.6832C75.562 37.6832 76.8238 38.2384 77.7386 39.1343C78.4767 39.8535 78.9877 40.8061 79.1518 41.8534C79.1707 41.948 79.1833 42.03 79.1959 42.1247C79.6312 44.4085 81.6501 46.1435 84.0538 46.1435C86.7729 46.1435 89 43.9227 89 41.1973V23.7783C89 22.4156 88.4448 21.1791 87.5426 20.2895ZM24.977 9.41922C24.895 9.41291 24.8067 9.41291 24.7247 9.41291C24.6427 9.41291 24.5543 9.41291 24.4723 9.41922C21.873 9.55802 19.7848 11.722 19.7848 14.3591V22.6869C19.7217 25.3493 17.564 27.5069 14.8323 27.5069C12.315 27.5069 10.2394 25.6836 9.87347 23.3115C9.75991 22.138 9.23627 21.0781 8.44765 20.2832C7.55178 19.3873 6.31523 18.8321 4.95251 18.8321C2.48572 18.8321 0.435316 20.6491 0.0693982 23.0086C0.0630892 23.015 0.0630892 23.0213 0.0630892 23.0213C0.0189268 23.5828 0 24.1506 0 24.7184V41.1973C0 43.9164 2.22705 46.1372 4.9462 46.1372C7.4193 46.1372 9.476 44.3076 9.83561 41.9354C9.83561 41.9291 9.84192 41.9165 9.84192 41.9102C10.0123 40.8692 10.5422 39.8661 11.2677 39.1532C12.1762 38.2636 13.438 37.7021 14.8323 37.7021C17.3432 37.7021 19.3873 39.5191 19.7532 41.8786C19.7596 41.8913 19.7596 41.9039 19.7596 41.9102C19.7659 42.049 19.7785 42.1688 19.7848 42.314V43.582L19.7911 50.6039C19.7911 53.323 22.0118 55.5501 24.731 55.5501C27.4501 55.5501 29.6772 53.323 29.6772 50.6039V14.3591C29.6772 13.0027 29.122 11.7598 28.2261 10.864C27.3807 10.0312 26.2388 9.48862 24.977 9.41922ZM49.38 4.17651V4.15127C49.2096 3.1103 48.7112 2.17027 47.992 1.45105C47.0961 0.555185 45.8596 0 44.4968 0C41.7777 0 39.5506 2.22074 39.5506 4.9462V60.0357C39.5506 62.7549 41.7714 64.9819 44.4968 64.9819C47.216 64.9819 49.443 62.7612 49.443 60.0357V5.88623C49.443 5.31842 49.4241 4.75062 49.3863 4.18913C49.3863 4.18913 49.3863 4.18282 49.38 4.17651Z" fill="url(#paint0_linear_962_602)"/>
<defs>
<linearGradient id="paint0_linear_962_602" x1="0" y1="0" x2="89" y2="65" gradientUnits="userSpaceOnUse">
<stop stop-color="#E60B78"/>
<stop offset="1" stop-color="#F5152F"/>
</linearGradient>
</defs>
</svg>
