<svg width="117" height="118" viewBox="0 0 117 118" fill="none" xmlns="http://www.w3.org/2000/svg">
<g clip-path="url(#clip0_1910_2142)">
<path d="M36.0417 111.727C35.2894 111.404 34.392 111.013 33.2584 110.518L33.2122 110.498C31.185 109.489 30.1349 108.947 28.7034 108.052L28.6598 108.024C27.6263 107.374 26.3926 106.545 24.3475 105.17L24.291 105.132C22.2638 103.604 21.319 102.855 20.0647 101.7C19.0928 100.803 17.9259 99.6484 16.1606 97.9024C15.9822 97.7099 15.7768 97.4878 15.5765 97.2631C12.5107 93.7673 12.0986 93.1421 8.88784 88.2713L8.88527 88.2675C7.89288 86.5228 6.75799 84.2812 5.97872 82.706C5.97872 82.706 5.95561 82.6598 5.94791 82.6444C5.7823 82.308 5.62311 81.9819 5.4729 81.6725C3.23265 76.5488 1.97837 71.0362 1.72803 65.2295C3.26603 71.5073 6.23548 77.2074 10.4502 81.9165C12.254 83.932 14.2721 85.7525 16.4495 87.3277C18.2147 93.2833 21.1739 98.6073 25.2436 103.155C25.4246 103.356 25.6056 103.555 25.7905 103.751C28.7856 106.966 32.2301 109.639 36.0417 111.727Z" fill="url(#paint0_linear_1910_2142)"/>
<path d="M36.0417 111.727C35.2894 111.404 34.392 111.013 33.2584 110.518L33.2122 110.498C31.185 109.489 30.1349 108.947 28.7034 108.052L28.6598 108.024C27.6263 107.374 26.3926 106.545 24.3475 105.17L24.291 105.132C22.2638 103.604 21.319 102.855 20.0647 101.7C19.0928 100.803 17.9259 99.6484 16.1606 97.9024C15.9822 97.7099 15.7768 97.4878 15.5765 97.2631C12.5107 93.7673 12.0986 93.1421 8.88784 88.2713L8.88527 88.2675C7.89288 86.5228 6.75799 84.2812 5.97872 82.706C5.97872 82.706 5.95561 82.6598 5.94791 82.6444C5.7823 82.308 5.62311 81.9819 5.4729 81.6725C3.23265 76.5488 1.97837 71.0362 1.72803 65.2295C3.26603 71.5073 6.23548 77.2074 10.4502 81.9165C12.254 83.932 14.2721 85.7525 16.4495 87.3277C18.2147 93.2833 21.1739 98.6073 25.2436 103.155C25.4246 103.356 25.6056 103.555 25.7905 103.751C28.7856 106.966 32.2301 109.639 36.0417 111.727Z" fill="url(#paint1_linear_1910_2142)"/>
<path d="M36.0417 111.727C35.2894 111.404 34.392 111.013 33.2584 110.518L33.2122 110.498C31.185 109.489 30.1349 108.947 28.7034 108.052L28.6598 108.024C27.6263 107.374 26.3926 106.545 24.3475 105.17L24.291 105.132C22.2638 103.604 21.319 102.855 20.0647 101.7C19.0928 100.803 17.9259 99.6484 16.1606 97.9024C15.9822 97.7099 15.7768 97.4878 15.5765 97.2631C12.5107 93.7673 12.0986 93.1421 8.88784 88.2713L8.88527 88.2675C7.89288 86.5228 6.75799 84.2812 5.97872 82.706C5.97872 82.706 5.95561 82.6598 5.94791 82.6444C5.7823 82.308 5.62311 81.9819 5.4729 81.6725C3.23265 76.5488 1.97837 71.0362 1.72803 65.2295C3.26603 71.5073 6.23548 77.2074 10.4502 81.9165C12.254 83.932 14.2721 85.7525 16.4495 87.3277C18.2147 93.2833 21.1739 98.6073 25.2436 103.155C25.4246 103.356 25.6056 103.555 25.7905 103.751C28.7856 106.966 32.2301 109.639 36.0417 111.727Z" fill="white"/>
<path d="M2.57016 69.5547C4.27378 74.2458 6.81829 78.5311 10.1164 82.2169C11.9073 84.2184 13.9075 86.0286 16.063 87.6025C17.8526 93.5633 20.8285 98.8949 24.9097 103.455C25.0908 103.657 25.2769 103.861 25.4618 104.058C26.951 105.658 28.5519 107.125 30.253 108.454C29.8383 108.219 29.4287 107.975 28.9845 107.698L28.8985 107.644C27.8715 107 26.6429 106.173 24.6068 104.804L24.5516 104.767C22.545 103.255 21.6078 102.511 20.3702 101.371C19.4035 100.479 18.2416 99.3301 16.4841 97.5906C16.3095 97.4031 16.1092 97.1862 15.9154 96.9679C12.8715 93.4965 12.4593 92.8713 9.26908 88.0326C8.2844 86.2995 7.15593 84.0733 6.38051 82.502L6.37537 82.4917C6.36767 82.475 6.35868 82.4583 6.3497 82.4416C6.18665 82.1104 6.03003 81.7894 5.88239 81.4852C4.48047 78.2756 3.45599 74.8479 2.83976 71.2956C2.73962 70.7179 2.64976 70.1376 2.57016 69.5547ZM1.29919 60.4127C0.928167 67.8858 2.15934 75.2163 5.06589 81.86C5.21866 82.1746 5.38042 82.5058 5.5486 82.8473C5.55887 82.8666 5.56786 82.8858 5.57684 82.9038C6.48321 84.7371 7.57573 86.872 8.50265 88.5012C11.7353 93.4053 12.1499 94.0357 15.2414 97.561C15.4378 97.7819 15.6381 97.9988 15.8383 98.2145C17.6678 100.025 18.7949 101.139 19.7604 102.03C21.0468 103.215 22.043 104.001 24.0303 105.498C26.1011 106.89 27.3695 107.744 28.421 108.404C28.4235 108.407 28.4261 108.408 28.4287 108.409C29.864 109.309 30.8961 109.847 33.0221 110.905C35.1828 111.847 36.5244 112.433 37.613 112.872C37.6156 112.873 37.6195 112.874 37.6233 112.876C39.1626 113.496 40.1999 113.822 42.3477 114.455C44.5186 114.985 45.8782 115.317 46.9476 115.552C48.5665 115.905 49.5255 116.036 51.6361 116.293C51.916 116.315 52.2151 116.341 52.5258 116.366C42.4402 115.244 33.1094 110.951 26.1204 103.445C25.9381 103.25 25.7583 103.053 25.5799 102.854C21.4293 98.2171 18.5305 92.834 16.8384 87.0531C14.6598 85.4894 12.6314 83.6766 10.7865 81.6161C5.40481 75.6028 2.28002 68.244 1.29919 60.4127Z" fill="#0E0E0E"/>
<g opacity="0.2">
<path d="M2.57016 69.5547C4.27378 74.2458 6.81829 78.5311 10.1164 82.2169C11.9073 84.2184 13.9075 86.0286 16.063 87.6025C17.8526 93.5633 20.8285 98.8949 24.9097 103.455C25.0908 103.657 25.2769 103.861 25.4618 104.058C26.951 105.658 28.5519 107.125 30.253 108.454C29.8383 108.219 29.4287 107.975 28.9845 107.698L28.8985 107.644C27.8715 107 26.6429 106.173 24.6068 104.804L24.5516 104.767C22.545 103.255 21.6078 102.511 20.3702 101.371C19.4035 100.479 18.2416 99.3301 16.4841 97.5906C16.3095 97.4031 16.1092 97.1862 15.9154 96.9679C12.8715 93.4965 12.4593 92.8713 9.26908 88.0326C8.2844 86.2995 7.15593 84.0733 6.38051 82.502L6.37537 82.4917C6.36767 82.475 6.35868 82.4583 6.3497 82.4416C6.18665 82.1104 6.03003 81.7894 5.88239 81.4852C4.48047 78.2756 3.45599 74.8479 2.83976 71.2956C2.73962 70.7179 2.64976 70.1376 2.57016 69.5547ZM1.29919 60.4127C0.928167 67.8858 2.15934 75.2163 5.06589 81.86C5.21866 82.1746 5.38042 82.5058 5.5486 82.8473C5.55887 82.8666 5.56786 82.8858 5.57684 82.9038C6.48321 84.7371 7.57573 86.872 8.50265 88.5012C11.7353 93.4053 12.1499 94.0357 15.2414 97.561C15.4378 97.7819 15.6381 97.9988 15.8383 98.2145C17.6678 100.025 18.7949 101.139 19.7604 102.03C21.0468 103.215 22.043 104.001 24.0303 105.498C26.1011 106.89 27.3695 107.744 28.421 108.404C28.4235 108.407 28.4261 108.408 28.4287 108.409C29.864 109.309 30.8961 109.847 33.0221 110.905C35.1828 111.847 36.5244 112.433 37.613 112.872C37.6156 112.873 37.6195 112.874 37.6233 112.876C39.1626 113.496 40.1999 113.822 42.3477 114.455C44.5186 114.985 45.8782 115.317 46.9476 115.552C48.5665 115.905 49.5255 116.036 51.6361 116.293C51.916 116.315 52.2151 116.341 52.5258 116.366C42.4402 115.244 33.1094 110.951 26.1204 103.445C25.9381 103.25 25.7583 103.053 25.5799 102.854C21.4293 98.2171 18.5305 92.834 16.8384 87.0531C14.6598 85.4894 12.6314 83.6766 10.7865 81.6161C5.40481 75.6028 2.28002 68.244 1.29919 60.4127Z" fill="#0E0E0E"/>
</g>
<path d="M105.768 30.2892C105.61 30.1134 105.452 29.9388 105.29 29.7667C100.846 24.9717 95.4487 21.481 89.511 19.2844C88.3607 17.4203 87.0384 15.6422 85.5402 13.9694C79.7977 7.55425 72.2682 3.54748 64.021 1.92603C71.5261 2.07751 78.7656 3.82735 85.1846 7.19221C87.4326 8.47217 90.3545 10.3119 92.501 11.7562C95.0545 13.6793 95.9725 14.429 97.9713 16.3625C97.9739 16.365 97.9765 16.3663 97.9791 16.3702C98.7006 17.0686 99.5633 17.921 100.693 19.0392C100.893 19.2549 101.092 19.4719 101.29 19.6927C101.313 19.7183 101.337 19.744 101.362 19.771C103.931 22.562 105.367 26.1528 105.768 30.2892Z" fill="url(#paint2_linear_1910_2142)"/>
<path d="M105.768 30.2892C105.61 30.1134 105.452 29.9388 105.29 29.7667C100.846 24.9717 95.4487 21.481 89.511 19.2844C88.3607 17.4203 87.0384 15.6422 85.5402 13.9694C79.7977 7.55425 72.2682 3.54748 64.021 1.92603C71.5261 2.07751 78.7656 3.82735 85.1846 7.19221C87.4326 8.47217 90.3545 10.3119 92.501 11.7562C95.0545 13.6793 95.9725 14.429 97.9713 16.3625C97.9739 16.365 97.9765 16.3663 97.9791 16.3702C98.7006 17.0686 99.5633 17.921 100.693 19.0392C100.893 19.2549 101.092 19.4719 101.29 19.6927C101.313 19.7183 101.337 19.744 101.362 19.771C103.931 22.562 105.367 26.1528 105.768 30.2892Z" fill="url(#paint3_linear_1910_2142)"/>
<path d="M105.768 30.2892C105.61 30.1134 105.452 29.9388 105.29 29.7667C100.846 24.9717 95.4487 21.481 89.511 19.2844C88.3607 17.4203 87.0384 15.6422 85.5402 13.9694C79.7977 7.55425 72.2682 3.54748 64.021 1.92603C71.5261 2.07751 78.7656 3.82735 85.1846 7.19221C87.4326 8.47217 90.3545 10.3119 92.501 11.7562C95.0545 13.6793 95.9725 14.429 97.9713 16.3625C97.9739 16.365 97.9765 16.3663 97.9791 16.3702C98.7006 17.0686 99.5633 17.921 100.693 19.0392C100.893 19.2549 101.092 19.4719 101.29 19.6927C101.313 19.7183 101.337 19.744 101.362 19.771C103.931 22.562 105.367 26.1528 105.768 30.2892Z" fill="white"/>
<path d="M105.768 30.2892C105.61 30.1134 105.452 29.9388 105.29 29.7667C100.846 24.9717 95.4487 21.481 89.511 19.2844C88.3607 17.4203 87.0384 15.6422 85.5402 13.9694C79.7977 7.55425 72.2682 3.54748 64.021 1.92603C71.5261 2.07751 78.7656 3.82735 85.1846 7.19221C87.4326 8.47217 90.3545 10.3119 92.501 11.7562C95.0545 13.6793 95.9725 14.429 97.9713 16.3625C97.9739 16.365 97.9765 16.3663 97.9791 16.3702C98.7006 17.0686 99.5633 17.921 100.693 19.0392C100.893 19.2549 101.092 19.4719 101.29 19.6927C101.313 19.7183 101.337 19.744 101.362 19.771C103.931 22.562 105.367 26.1528 105.768 30.2892Z" stroke="#0E0E0E" stroke-width="1.54057" stroke-miterlimit="10"/>
<path d="M116.294 57.1352L116.274 60.6901C115.751 74.9776 109.005 89.8775 96.5915 101.111C84.6854 111.886 69.9884 117.092 56.2914 116.638C55.5969 116.59 54.7855 116.542 53.9728 116.49C53.9703 116.488 53.9664 116.488 53.9613 116.488C53.639 116.466 53.3168 116.443 53.001 116.419H52.9997C52.5196 116.382 52.0561 116.341 51.6363 116.294C49.4243 115.959 48.0429 115.749 46.9478 115.554C45.361 115.271 44.3776 115.018 42.3479 114.456C40.1269 113.732 38.7417 113.279 37.6235 112.877C37.6197 112.876 37.6158 112.874 37.6133 112.873C36.0765 112.32 35.0405 111.858 33.0223 110.906C30.854 109.751 29.515 109.037 28.4289 108.411C28.4263 108.409 28.4237 108.408 28.4212 108.405C26.9679 107.567 25.9665 106.883 24.0305 105.499C22.015 103.894 20.7787 102.908 19.7606 102.031C18.4768 100.926 17.5422 99.9939 15.8386 98.2158C15.6383 98.0001 15.438 97.7832 15.2416 97.5624C11.3093 93.1409 10.3246 91.4938 8.50286 88.5025L6.19971 84.0939C7.71717 86.9093 10.0011 90.5926 12.3787 93.25C16.3097 97.642 20.9789 101.039 26.1206 103.446C44.5908 112.095 69.15 107.98 87.4674 91.4065C106.097 74.5462 112.28 49.6044 105.291 29.7682C103.496 24.6741 100.833 19.9163 97.2886 15.7195C97.5222 15.9403 97.7495 16.1534 97.9716 16.364C97.9741 16.3665 97.9767 16.3678 97.9793 16.3717C99.2092 17.5309 100.282 18.5529 101.29 19.6942C101.313 19.7198 101.338 19.7455 101.362 19.7725C102.895 21.4427 105.623 24.9013 108.029 28.754C110.878 33.9393 111.11 34.363 112.602 38.1862C114.439 43.7001 114.549 44.0301 115.294 47.7621C116.132 53.2992 116.182 53.6304 116.294 57.1352Z" fill="url(#paint4_linear_1910_2142)"/>
<path d="M116.294 57.1352L116.274 60.6901C115.751 74.9776 109.005 89.8775 96.5915 101.111C84.6854 111.886 69.9884 117.092 56.2914 116.638C55.5969 116.59 54.7855 116.542 53.9728 116.49C53.9703 116.488 53.9664 116.488 53.9613 116.488C53.639 116.466 53.3168 116.443 53.001 116.419H52.9997C52.5196 116.382 52.0561 116.341 51.6363 116.294C49.4243 115.959 48.0429 115.749 46.9478 115.554C45.361 115.271 44.3776 115.018 42.3479 114.456C40.1269 113.732 38.7417 113.279 37.6235 112.877C37.6197 112.876 37.6158 112.874 37.6133 112.873C36.0765 112.32 35.0405 111.858 33.0223 110.906C30.854 109.751 29.515 109.037 28.4289 108.411C28.4263 108.409 28.4237 108.408 28.4212 108.405C26.9679 107.567 25.9665 106.883 24.0305 105.499C22.015 103.894 20.7787 102.908 19.7606 102.031C18.4768 100.926 17.5422 99.9939 15.8386 98.2158C15.6383 98.0001 15.438 97.7832 15.2416 97.5624C11.3093 93.1409 10.3246 91.4938 8.50286 88.5025L6.19971 84.0939C7.71717 86.9093 10.0011 90.5926 12.3787 93.25C16.3097 97.642 20.9789 101.039 26.1206 103.446C44.5908 112.095 69.15 107.98 87.4674 91.4065C106.097 74.5462 112.28 49.6044 105.291 29.7682C103.496 24.6741 100.833 19.9163 97.2886 15.7195C97.5222 15.9403 97.7495 16.1534 97.9716 16.364C97.9741 16.3665 97.9767 16.3678 97.9793 16.3717C99.2092 17.5309 100.282 18.5529 101.29 19.6942C101.313 19.7198 101.338 19.7455 101.362 19.7725C102.895 21.4427 105.623 24.9013 108.029 28.754C110.878 33.9393 111.11 34.363 112.602 38.1862C114.439 43.7001 114.549 44.0301 115.294 47.7621C116.132 53.2992 116.182 53.6304 116.294 57.1352Z" fill="url(#paint5_linear_1910_2142)"/>
<path d="M116.294 57.1352L116.274 60.6901C115.751 74.9776 109.005 89.8775 96.5915 101.111C84.6854 111.886 69.9884 117.092 56.2914 116.638C55.5969 116.59 54.7855 116.542 53.9728 116.49C53.9703 116.488 53.9664 116.488 53.9613 116.488C53.639 116.466 53.3168 116.443 53.001 116.419H52.9997C52.5196 116.382 52.0561 116.341 51.6363 116.294C49.4243 115.959 48.0429 115.749 46.9478 115.554C45.361 115.271 44.3776 115.018 42.3479 114.456C40.1269 113.732 38.7417 113.279 37.6235 112.877C37.6197 112.876 37.6158 112.874 37.6133 112.873C36.0765 112.32 35.0405 111.858 33.0223 110.906C30.854 109.751 29.515 109.037 28.4289 108.411C28.4263 108.409 28.4237 108.408 28.4212 108.405C26.9679 107.567 25.9665 106.883 24.0305 105.499C22.015 103.894 20.7787 102.908 19.7606 102.031C18.4768 100.926 17.5422 99.9939 15.8386 98.2158C15.6383 98.0001 15.438 97.7832 15.2416 97.5624C11.3093 93.1409 10.3246 91.4938 8.50286 88.5025L6.19971 84.0939C7.71717 86.9093 10.0011 90.5926 12.3787 93.25C16.3097 97.642 20.9789 101.039 26.1206 103.446C44.5908 112.095 69.15 107.98 87.4674 91.4065C106.097 74.5462 112.28 49.6044 105.291 29.7682C103.496 24.6741 100.833 19.9163 97.2886 15.7195C97.5222 15.9403 97.7495 16.1534 97.9716 16.364C97.9741 16.3665 97.9767 16.3678 97.9793 16.3717C99.2092 17.5309 100.282 18.5529 101.29 19.6942C101.313 19.7198 101.338 19.7455 101.362 19.7725C102.895 21.4427 105.623 24.9013 108.029 28.754C110.878 33.9393 111.11 34.363 112.602 38.1862C114.439 43.7001 114.549 44.0301 115.294 47.7621C116.132 53.2992 116.182 53.6304 116.294 57.1352Z" fill="white"/>
<path d="M116.294 57.1352L116.274 60.6901C115.751 74.9776 109.005 89.8775 96.5915 101.111C84.6854 111.886 69.9884 117.092 56.2914 116.638C55.5969 116.59 54.7855 116.542 53.9728 116.49C53.9703 116.488 53.9664 116.488 53.9613 116.488C53.639 116.466 53.3168 116.443 53.001 116.419H52.9997C52.5196 116.382 52.0561 116.341 51.6363 116.294C49.4243 115.959 48.0429 115.749 46.9478 115.554C45.361 115.271 44.3776 115.018 42.3479 114.456C40.1269 113.732 38.7417 113.279 37.6235 112.877C37.6197 112.876 37.6158 112.874 37.6133 112.873C36.0765 112.32 35.0405 111.858 33.0223 110.906C30.854 109.751 29.515 109.037 28.4289 108.411C28.4263 108.409 28.4237 108.408 28.4212 108.405C26.9679 107.567 25.9665 106.883 24.0305 105.499C22.015 103.894 20.7787 102.908 19.7606 102.031C18.4768 100.926 17.5422 99.9939 15.8386 98.2158C15.6383 98.0001 15.438 97.7832 15.2416 97.5624C11.3093 93.1409 10.3246 91.4938 8.50286 88.5025L6.19971 84.0939C7.71717 86.9093 10.0011 90.5926 12.3787 93.25C16.3097 97.642 20.9789 101.039 26.1206 103.446C44.5908 112.095 69.15 107.98 87.4674 91.4065C106.097 74.5462 112.28 49.6044 105.291 29.7682C103.496 24.6741 100.833 19.9163 97.2886 15.7195C97.5222 15.9403 97.7495 16.1534 97.9716 16.364C97.9741 16.3665 97.9767 16.3678 97.9793 16.3717C99.2092 17.5309 100.282 18.5529 101.29 19.6942C101.313 19.7198 101.338 19.7455 101.362 19.7725C102.895 21.4427 105.623 24.9013 108.029 28.754C110.878 33.9393 111.11 34.363 112.602 38.1862C114.439 43.7001 114.549 44.0301 115.294 47.7621C116.132 53.2992 116.182 53.6304 116.294 57.1352Z" stroke="#0E0E0E" stroke-width="1.41219" stroke-miterlimit="10"/>
<path d="M16.4651 87.5756C14.2287 85.9708 12.1579 84.1093 10.3092 82.0449C5.02506 76.1407 1.68972 68.6882 0.662669 60.4936L0.65625 60.4384L0.658818 60.3819C1.43937 44.7426 9.09088 29.2547 21.653 17.8878C27.6175 12.4894 34.319 8.30291 41.57 5.44129C48.5796 2.67597 55.7728 1.27405 62.948 1.27405C63.3087 1.27405 63.6746 1.2779 64.0354 1.2856L64.0919 1.28689L64.1471 1.29716C72.8115 3.00077 80.3744 7.23478 86.0206 13.5421C87.5201 15.2162 88.8797 17.0354 90.0595 18.9483L91.0377 20.5338L89.2905 19.8867C84.3311 18.0509 78.9866 17.1214 73.4072 17.1214C69.2117 17.1214 64.9456 17.6542 60.7283 18.7056C51.4489 21.0165 42.6176 25.7897 35.1907 32.5104C27.2735 39.6754 21.4232 48.5914 18.2727 58.297C15.1145 68.0257 14.8321 77.9072 17.4575 86.8746L17.9813 88.663L16.4651 87.5756Z" fill="url(#paint6_linear_1910_2142)"/>
<path d="M16.4651 87.5756C14.2287 85.9708 12.1579 84.1093 10.3092 82.0449C5.02506 76.1407 1.68972 68.6882 0.662669 60.4936L0.65625 60.4384L0.658818 60.3819C1.43937 44.7426 9.09088 29.2547 21.653 17.8878C27.6175 12.4894 34.319 8.30291 41.57 5.44129C48.5796 2.67597 55.7728 1.27405 62.948 1.27405C63.3087 1.27405 63.6746 1.2779 64.0354 1.2856L64.0919 1.28689L64.1471 1.29716C72.8115 3.00077 80.3744 7.23478 86.0206 13.5421C87.5201 15.2162 88.8797 17.0354 90.0595 18.9483L91.0377 20.5338L89.2905 19.8867C84.3311 18.0509 78.9866 17.1214 73.4072 17.1214C69.2117 17.1214 64.9456 17.6542 60.7283 18.7056C51.4489 21.0165 42.6176 25.7897 35.1907 32.5104C27.2735 39.6754 21.4232 48.5914 18.2727 58.297C15.1145 68.0257 14.8321 77.9072 17.4575 86.8746L17.9813 88.663L16.4651 87.5756Z" fill="url(#paint7_linear_1910_2142)"/>
<path d="M16.4651 87.5756C14.2287 85.9708 12.1579 84.1093 10.3092 82.0449C5.02506 76.1407 1.68972 68.6882 0.662669 60.4936L0.65625 60.4384L0.658818 60.3819C1.43937 44.7426 9.09088 29.2547 21.653 17.8878C27.6175 12.4894 34.319 8.30291 41.57 5.44129C48.5796 2.67597 55.7728 1.27405 62.948 1.27405C63.3087 1.27405 63.6746 1.2779 64.0354 1.2856L64.0919 1.28689L64.1471 1.29716C72.8115 3.00077 80.3744 7.23478 86.0206 13.5421C87.5201 15.2162 88.8797 17.0354 90.0595 18.9483L91.0377 20.5338L89.2905 19.8867C84.3311 18.0509 78.9866 17.1214 73.4072 17.1214C69.2117 17.1214 64.9456 17.6542 60.7283 18.7056C51.4489 21.0165 42.6176 25.7897 35.1907 32.5104C27.2735 39.6754 21.4232 48.5914 18.2727 58.297C15.1145 68.0257 14.8321 77.9072 17.4575 86.8746L17.9813 88.663L16.4651 87.5756Z" fill="white"/>
<path d="M62.9462 1.91589C63.3043 1.91589 63.6625 1.91974 64.0207 1.92616C72.2679 3.54761 79.7974 7.55438 85.5399 13.9696C87.0381 15.6424 88.3605 17.4205 89.5107 19.2846C84.4512 17.4128 78.9963 16.4794 73.4041 16.4781C69.1688 16.4781 64.8552 17.0135 60.5698 18.0816C51.4792 20.345 42.5246 25.0039 34.7563 32.0328C26.4872 39.5161 20.7332 48.626 17.6585 58.0967C14.5003 67.8241 14.1678 77.9328 16.8381 87.053C14.6595 85.4893 12.6311 83.6766 10.7862 81.6161C5.40452 75.6027 2.27972 68.2439 1.29889 60.4127C2.04222 45.5179 9.15581 30.0596 22.0825 18.3628C34.167 7.42728 48.9693 1.91589 62.9462 1.91589ZM62.9462 0.63208C55.6901 0.63208 48.4186 2.04941 41.3332 4.84426C34.0091 7.73283 27.2434 11.9617 21.2211 17.4115C14.7789 23.24 9.64751 30.0429 5.96682 37.6289C4.20159 41.2685 2.79967 45.0545 1.79958 48.8802C0.805909 52.6829 0.20637 56.542 0.0163657 60.3498L0.0112305 60.4615L0.0253524 60.5732C1.06781 68.8987 4.45835 76.4719 9.82981 82.4737C11.7093 84.5727 13.816 86.465 16.0897 88.0967L19.1182 90.2702L18.0706 86.6935C15.4811 77.8507 15.761 68.1001 18.8794 58.4947C21.9952 48.8969 27.7839 40.0758 35.6177 32.9867C42.9675 26.3365 51.7026 21.6147 60.8805 19.3295C65.0478 18.2909 69.2612 17.7645 73.4054 17.7645C78.909 17.7645 84.1791 18.6824 89.0666 20.49L92.5624 21.7828L90.6058 18.6118C89.4055 16.6669 88.0241 14.8169 86.4989 13.1146C80.7564 6.70193 73.0703 2.39732 64.2685 0.666743L64.1594 0.644918L64.0477 0.642351C63.6831 0.635931 63.312 0.63208 62.9462 0.63208Z" fill="#0E0E0E"/>
<g opacity="0.2">
<path d="M62.9462 1.91589C63.3043 1.91589 63.6625 1.91974 64.0207 1.92616C72.2679 3.54761 79.7974 7.55438 85.5399 13.9696C87.0381 15.6424 88.3605 17.4205 89.5107 19.2846C84.4512 17.4128 78.9963 16.4794 73.4041 16.4781C69.1688 16.4781 64.8552 17.0135 60.5698 18.0816C51.4792 20.345 42.5246 25.0039 34.7563 32.0328C26.4872 39.5161 20.7332 48.626 17.6585 58.0967C14.5003 67.8241 14.1678 77.9328 16.8381 87.053C14.6595 85.4893 12.6311 83.6766 10.7862 81.6161C5.40452 75.6027 2.27972 68.2439 1.29889 60.4127C2.04222 45.5179 9.15581 30.0596 22.0825 18.3628C34.167 7.42728 48.9693 1.91589 62.9462 1.91589ZM62.9462 0.63208C55.6901 0.63208 48.4186 2.04941 41.3332 4.84426C34.0091 7.73283 27.2434 11.9617 21.2211 17.4115C14.7789 23.24 9.64751 30.0429 5.96682 37.6289C4.20159 41.2685 2.79967 45.0545 1.79958 48.8802C0.805909 52.6829 0.20637 56.542 0.0163657 60.3498L0.0112305 60.4615L0.0253524 60.5732C1.06781 68.8987 4.45835 76.4719 9.82981 82.4737C11.7093 84.5727 13.816 86.465 16.0897 88.0967L19.1182 90.2702L18.0706 86.6935C15.4811 77.8507 15.761 68.1001 18.8794 58.4947C21.9952 48.8969 27.7839 40.0758 35.6177 32.9867C42.9675 26.3365 51.7026 21.6147 60.8805 19.3295C65.0478 18.2909 69.2612 17.7645 73.4054 17.7645C78.909 17.7645 84.1791 18.6824 89.0666 20.49L92.5624 21.7828L90.6058 18.6118C89.4055 16.6669 88.0241 14.8169 86.4989 13.1146C80.7564 6.70193 73.0703 2.39732 64.2685 0.666743L64.1594 0.644918L64.0477 0.642351C63.6831 0.635931 63.312 0.63208 62.9462 0.63208Z" fill="#0E0E0E"/>
</g>
<path d="M85.5405 13.9709C72.5034 -0.592689 50.2627 -2.73922 31.2996 7.22315C29.37 8.30925 26.855 9.85624 24.9999 11.0643C23.2513 12.3635 20.9893 14.1904 19.3242 15.5949C17.2983 17.4282 17.2983 17.4282 13.6972 21.4439C11.9679 23.5121 11.9679 23.5121 9.00235 27.922L8.83417 28.1929C-2.04098 45.8453 -1.88436 67.4621 10.7868 81.6174C26.7048 99.3994 56.3428 98.6715 76.9852 79.9921C97.6276 61.3113 101.457 31.7529 85.5405 13.9709ZM57.5445 58.6089C45.4818 69.5252 28.1606 69.9514 18.8582 59.5589C9.55567 49.1678 11.7946 31.8928 23.8586 20.9766C35.9213 10.0604 53.2424 9.63414 62.5449 20.0266C71.8474 30.4177 69.6084 47.6927 57.5445 58.6089Z" fill="url(#paint8_linear_1910_2142)"/>
<path d="M85.5405 13.9709C72.5034 -0.592689 50.2627 -2.73922 31.2996 7.22315C29.37 8.30925 26.855 9.85624 24.9999 11.0643C23.2513 12.3635 20.9893 14.1904 19.3242 15.5949C17.2983 17.4282 17.2983 17.4282 13.6972 21.4439C11.9679 23.5121 11.9679 23.5121 9.00235 27.922L8.83417 28.1929C-2.04098 45.8453 -1.88436 67.4621 10.7868 81.6174C26.7048 99.3994 56.3428 98.6715 76.9852 79.9921C97.6276 61.3113 101.457 31.7529 85.5405 13.9709ZM57.5445 58.6089C45.4818 69.5252 28.1606 69.9514 18.8582 59.5589C9.55567 49.1678 11.7946 31.8928 23.8586 20.9766C35.9213 10.0604 53.2424 9.63414 62.5449 20.0266C71.8474 30.4177 69.6084 47.6927 57.5445 58.6089Z" fill="url(#paint9_linear_1910_2142)"/>
<path d="M85.5405 13.9709C72.5034 -0.592689 50.2627 -2.73922 31.2996 7.22315C29.37 8.30925 26.855 9.85624 24.9999 11.0643C23.2513 12.3635 20.9893 14.1904 19.3242 15.5949C17.2983 17.4282 17.2983 17.4282 13.6972 21.4439C11.9679 23.5121 11.9679 23.5121 9.00235 27.922L8.83417 28.1929C-2.04098 45.8453 -1.88436 67.4621 10.7868 81.6174C26.7048 99.3994 56.3428 98.6715 76.9852 79.9921C97.6276 61.3113 101.457 31.7529 85.5405 13.9709ZM57.5445 58.6089C45.4818 69.5252 28.1606 69.9514 18.8582 59.5589C9.55567 49.1678 11.7946 31.8928 23.8586 20.9766C35.9213 10.0604 53.2424 9.63414 62.5449 20.0266C71.8474 30.4177 69.6084 47.6927 57.5445 58.6089Z" stroke="#0E0E0E" stroke-width="1.92571" stroke-miterlimit="10"/>
<path d="M40.9576 93.8495C32.0877 93.8495 23.8765 91.3192 17.2135 86.5318C15.0529 84.981 13.0514 83.1837 11.2656 81.1886C6.15606 75.4795 2.93113 68.2684 1.93746 60.3331C0.61514 49.761 3.2585 38.466 9.38228 28.528L9.54275 28.2687C12.4788 23.9025 12.484 23.8948 14.1837 21.8625C17.7502 17.8865 17.7566 17.8788 19.7478 16.0764C21.1766 14.8721 23.4991 12.9785 25.3683 11.5894C27.3826 10.2787 29.8282 8.78688 31.6076 7.78551C39.1397 3.8301 47.3574 1.73877 55.3709 1.73877C58.271 1.73877 61.1391 2.0135 63.898 2.55656C72.2864 4.20625 79.6041 8.30032 85.0629 14.3984C86.5123 16.016 87.8256 17.7736 88.9656 19.6222C94.2742 28.2173 95.9855 38.9667 93.7864 49.8906C91.5589 60.9545 85.439 71.4753 76.5551 79.5145C71.4044 84.176 65.6196 87.7913 59.3623 90.2587C53.3245 92.6402 47.1314 93.8483 40.9589 93.8483C40.9576 93.8495 40.9576 93.8495 40.9576 93.8495ZM44.9143 11.8603C37.2153 11.8603 29.5856 14.9286 23.4284 20.5004C11.8074 31.016 9.0472 47.7004 17.1455 58.4832C17.537 59.0044 17.953 59.5102 18.3805 59.9865C22.8469 64.9754 29.2775 67.724 36.4899 67.724C44.1889 67.724 51.8186 64.6557 57.9758 59.084C70.2824 47.9482 72.547 30.2342 63.0237 19.5978C62.3844 18.8853 61.7001 18.2113 60.9914 17.5977C56.6611 13.8438 51.1022 11.8603 44.9143 11.8603Z" fill="url(#paint10_linear_1910_2142)"/>
<path d="M40.9576 93.8495C32.0877 93.8495 23.8765 91.3192 17.2135 86.5318C15.0529 84.981 13.0514 83.1837 11.2656 81.1886C6.15606 75.4795 2.93113 68.2684 1.93746 60.3331C0.61514 49.761 3.2585 38.466 9.38228 28.528L9.54275 28.2687C12.4788 23.9025 12.484 23.8948 14.1837 21.8625C17.7502 17.8865 17.7566 17.8788 19.7478 16.0764C21.1766 14.8721 23.4991 12.9785 25.3683 11.5894C27.3826 10.2787 29.8282 8.78688 31.6076 7.78551C39.1397 3.8301 47.3574 1.73877 55.3709 1.73877C58.271 1.73877 61.1391 2.0135 63.898 2.55656C72.2864 4.20625 79.6041 8.30032 85.0629 14.3984C86.5123 16.016 87.8256 17.7736 88.9656 19.6222C94.2742 28.2173 95.9855 38.9667 93.7864 49.8906C91.5589 60.9545 85.439 71.4753 76.5551 79.5145C71.4044 84.176 65.6196 87.7913 59.3623 90.2587C53.3245 92.6402 47.1314 93.8483 40.9589 93.8483C40.9576 93.8495 40.9576 93.8495 40.9576 93.8495ZM44.9143 11.8603C37.2153 11.8603 29.5856 14.9286 23.4284 20.5004C11.8074 31.016 9.0472 47.7004 17.1455 58.4832C17.537 59.0044 17.953 59.5102 18.3805 59.9865C22.8469 64.9754 29.2775 67.724 36.4899 67.724C44.1889 67.724 51.8186 64.6557 57.9758 59.084C70.2824 47.9482 72.547 30.2342 63.0237 19.5978C62.3844 18.8853 61.7001 18.2113 60.9914 17.5977C56.6611 13.8438 51.1022 11.8603 44.9143 11.8603Z" fill="url(#paint11_linear_1910_2142)"/>
<path d="M40.9576 93.8495C32.0877 93.8495 23.8765 91.3192 17.2135 86.5318C15.0529 84.981 13.0514 83.1837 11.2656 81.1886C6.15606 75.4795 2.93113 68.2684 1.93746 60.3331C0.61514 49.761 3.2585 38.466 9.38228 28.528L9.54275 28.2687C12.4788 23.9025 12.484 23.8948 14.1837 21.8625C17.7502 17.8865 17.7566 17.8788 19.7478 16.0764C21.1766 14.8721 23.4991 12.9785 25.3683 11.5894C27.3826 10.2787 29.8282 8.78688 31.6076 7.78551C39.1397 3.8301 47.3574 1.73877 55.3709 1.73877C58.271 1.73877 61.1391 2.0135 63.898 2.55656C72.2864 4.20625 79.6041 8.30032 85.0629 14.3984C86.5123 16.016 87.8256 17.7736 88.9656 19.6222C94.2742 28.2173 95.9855 38.9667 93.7864 49.8906C91.5589 60.9545 85.439 71.4753 76.5551 79.5145C71.4044 84.176 65.6196 87.7913 59.3623 90.2587C53.3245 92.6402 47.1314 93.8483 40.9589 93.8483C40.9576 93.8495 40.9576 93.8495 40.9576 93.8495ZM44.9143 11.8603C37.2153 11.8603 29.5856 14.9286 23.4284 20.5004C11.8074 31.016 9.0472 47.7004 17.1455 58.4832C17.537 59.0044 17.953 59.5102 18.3805 59.9865C22.8469 64.9754 29.2775 67.724 36.4899 67.724C44.1889 67.724 51.8186 64.6557 57.9758 59.084C70.2824 47.9482 72.547 30.2342 63.0237 19.5978C62.3844 18.8853 61.7001 18.2113 60.9914 17.5977C56.6611 13.8438 51.1022 11.8603 44.9143 11.8603Z" fill="white"/>
<path d="M55.3708 2.38061C58.2286 2.38061 61.0568 2.6515 63.7746 3.18684C72.0244 4.8083 79.2201 8.83432 84.5852 14.8271C86.0089 16.4165 87.2992 18.1432 88.4199 19.9598C93.6425 28.415 95.3243 39 93.1572 49.7647C92.0788 55.117 90.1004 60.3279 87.2773 65.2501C84.3503 70.3532 80.5977 74.9929 76.1262 79.0395C71.032 83.6483 65.3139 87.2225 59.1285 89.663C53.1652 92.0149 47.053 93.2076 40.96 93.2076C32.225 93.2076 24.1447 90.7196 17.5896 86.0106C15.4674 84.4867 13.5006 82.7202 11.7457 80.7611C9.19859 77.9149 7.1201 74.6912 5.56926 71.1787C4.06335 67.7689 3.05556 64.0933 2.57541 60.2548C1.2685 49.8264 3.88105 38.6791 9.92523 28.8695L10.0806 28.6178C12.9871 24.2965 12.9987 24.2798 14.6676 22.2835C18.1994 18.3448 18.2122 18.3319 20.1687 16.5603C21.5874 15.3651 23.8828 13.4946 25.7328 12.117C27.7304 10.8191 30.1491 9.344 31.913 8.35033C39.3527 4.44498 47.4638 2.38061 55.3708 2.38061ZM36.4898 68.3659C44.348 68.3659 52.1318 65.2385 58.4057 59.5602C70.973 48.1882 73.2594 30.0698 63.5012 19.169C62.8439 18.4359 62.1416 17.744 61.4124 17.1123C57.0282 13.311 51.1702 11.2184 44.9142 11.2184C37.0547 11.2184 29.271 14.3457 22.997 20.024C11.132 30.7605 8.33587 47.8223 16.6318 58.8682C17.035 59.4049 17.4625 59.9248 17.9003 60.414C22.4912 65.5415 29.0925 68.3659 36.4898 68.3659ZM55.3708 1.0968C47.3688 1.0968 39.06 3.14576 31.2994 7.22314C29.3698 8.30925 26.8548 9.85624 24.9997 11.0643C23.2512 12.3635 20.9891 14.1904 19.324 15.5949C17.2981 17.4281 17.2981 17.4281 13.6971 21.4439C11.9678 23.5121 11.9678 23.5121 9.00217 27.922L8.83399 28.1929C2.57798 38.3465 -0.0268676 49.8123 1.29931 60.414C2.28014 68.2452 5.40493 75.604 10.7867 81.6174C12.6315 83.6779 14.6599 85.4906 16.8385 87.0543C23.7531 92.0213 32.1711 94.4927 40.9575 94.4927C53.2808 94.4927 66.3307 89.6335 76.985 79.992C95.685 63.0689 100.588 37.2206 89.5112 19.2858C88.3609 17.4217 87.0385 15.6437 85.5403 13.9708C79.7979 7.55437 72.2683 3.54759 64.0211 1.92614C61.207 1.37282 58.3095 1.0968 55.3708 1.0968ZM36.4898 67.0821C29.7383 67.0821 23.3603 64.5863 18.8593 59.5576C18.4356 59.0852 18.0363 58.5974 17.6602 58.0967C9.78144 47.6067 12.3452 31.3947 23.8597 20.9753C30.0849 15.342 37.7133 12.5022 44.9155 12.5009C50.7324 12.5009 56.2708 14.3521 60.5715 18.0816C61.2635 18.6811 61.9221 19.3295 62.546 20.0253C71.8485 30.4165 69.6095 47.6914 57.5456 58.6076C51.3191 64.2423 43.6907 67.0821 36.4898 67.0821Z" fill="#0E0E0E"/>
</g>
<defs>
<linearGradient id="paint0_linear_1910_2142" x1="1.72991" y1="88.4779" x2="36.0422" y2="88.4779" gradientUnits="userSpaceOnUse">
<stop stop-color="#C301FB"/>
<stop offset="0.4799" stop-color="#FC517F"/>
<stop offset="1" stop-color="#FDB599"/>
</linearGradient>
<linearGradient id="paint1_linear_1910_2142" x1="1.72803" y1="72.2842" x2="11.5348" y2="72.5674" gradientUnits="userSpaceOnUse">
<stop stop-color="#9F01FF"/>
<stop offset="1" stop-color="#017CFF"/>
</linearGradient>
<linearGradient id="paint2_linear_1910_2142" x1="64.0212" y1="16.1081" x2="105.768" y2="16.1081" gradientUnits="userSpaceOnUse">
<stop stop-color="#C301FB"/>
<stop offset="0.4799" stop-color="#FC517F"/>
<stop offset="1" stop-color="#FDB599"/>
</linearGradient>
<linearGradient id="paint3_linear_1910_2142" x1="64.021" y1="6.22939" x2="75.9227" y2="6.91486" gradientUnits="userSpaceOnUse">
<stop stop-color="#9F01FF"/>
<stop offset="1" stop-color="#017CFF"/>
</linearGradient>
<linearGradient id="paint4_linear_1910_2142" x1="6.19998" y1="66.1923" x2="116.294" y2="66.1923" gradientUnits="userSpaceOnUse">
<stop stop-color="#C301FB"/>
<stop offset="0.4799" stop-color="#FC517F"/>
<stop offset="1" stop-color="#FDB599"/>
</linearGradient>
<linearGradient id="paint5_linear_1910_2142" x1="6.19971" y1="31.0354" x2="31.8676" y2="167.487" gradientUnits="userSpaceOnUse">
<stop stop-color="#9F01FF"/>
<stop offset="1" stop-color="#017CFF"/>
</linearGradient>
<linearGradient id="paint6_linear_1910_2142" x1="0.655775" y1="44.9678" x2="91.0364" y2="44.9678" gradientUnits="userSpaceOnUse">
<stop stop-color="#C301FB"/>
<stop offset="0.4799" stop-color="#FC517F"/>
<stop offset="1" stop-color="#FDB599"/>
</linearGradient>
<linearGradient id="paint7_linear_1910_2142" x1="0.656251" y1="14.533" x2="26.4665" y2="15.5775" gradientUnits="userSpaceOnUse">
<stop stop-color="#9F01FF"/>
<stop offset="1" stop-color="#017CFF"/>
</linearGradient>
<linearGradient id="paint8_linear_1910_2142" x1="16.6684" y1="18.1578" x2="79.6597" y2="77.4301" gradientUnits="userSpaceOnUse">
<stop stop-color="#C301FB"/>
<stop offset="0.4799" stop-color="#FC517F"/>
<stop offset="1" stop-color="#FDB599"/>
</linearGradient>
<linearGradient id="paint9_linear_1910_2142" x1="0.962892" y1="15.2674" x2="27.923" y2="16.3337" gradientUnits="userSpaceOnUse">
<stop stop-color="#9F01FF"/>
<stop offset="1" stop-color="#017CFF"/>
</linearGradient>
<linearGradient id="paint10_linear_1910_2142" x1="17.136" y1="18.5975" x2="79.1902" y2="76.988" gradientUnits="userSpaceOnUse">
<stop stop-color="#C301FB"/>
<stop offset="0.4799" stop-color="#FC517F"/>
<stop offset="1" stop-color="#FDB599"/>
</linearGradient>
<linearGradient id="paint11_linear_1910_2142" x1="48.0001" y1="1.5" x2="54.7501" y2="94.5" gradientUnits="userSpaceOnUse">
<stop stop-color="#9F01FF"/>
<stop offset="1" stop-color="#017CFF"/>
</linearGradient>
<clipPath id="clip0_1910_2142">
<rect width="117" height="117.238" fill="white" transform="translate(0 0.134033)"/>
</clipPath>
</defs>
</svg>
