<?xml version="1.0" encoding="utf-8"?>
<!-- Generator: Adobe Illustrator 23.0.3, SVG Export Plug-In . SVG Version: 6.00 Build 0)  -->
<svg version="1.1" id="Layer_1" xmlns="http://www.w3.org/2000/svg" xmlns:xlink="http://www.w3.org/1999/xlink" x="0px" y="0px"
	 viewBox="0 0 111 114" style="enable-background:new 0 0 111 114;" xml:space="preserve">
<style type="text/css">
	.st0{display:none;fill:#FFFFFF;}
	.st1{fill:#FFFFFF;}
</style>
<path class="st0" d="M40.9,18.7c-4.3,9.4-6.9,23-6.9,38c0,19.1,4.3,35.8,10.7,44.7c1.1,1.6,2.3,2.9,3.5,4c1.1,0.9,2.2,1.7,3.4,2.1
	c0.5,0.2,1,0.4,1.5,0.5c0,0,0,0,0,0c0.7,0.2,1.5,0.3,2.2,0.3c0.8,0,1.5-0.1,2.3-0.3c1.7-0.4,3.3-1.3,4.9-2.7
	c0.5-0.4,0.9-0.8,1.4-1.3c-7.8,8.5-17.3,8.4-18.9,8.4h0c-0.1,0-0.1,0-0.2,0c-4.5-0.9-8.9-2.4-12.9-4.3c-1.7-0.8-3.3-1.7-4.9-2.7
	C10.8,95.6,0,77.5,0,56.8C0,36.1,10.8,18,26.9,8.1c1.6-1,3.3-1.9,5-2.7c4-2,8.3-3.4,12.8-4.3c3.4-0.7,7-1.1,10.7-1.1
	C59,0,62.6,0.4,66,1.1c0,0-10.3-1-18.8,7.9c-0.2,0.2-0.3,0.3-0.5,0.5c-0.7,0.8-1.5,1.7-2.1,2.6c-0.2,0.3-0.4,0.6-0.6,0.9
	c-0.2,0.3-0.4,0.6-0.6,0.9c-0.2,0.3-0.4,0.6-0.6,0.9c-0.2,0.3-0.4,0.7-0.6,1c-0.3,0.7-0.7,1.3-1,2C41.2,18.1,41.1,18.4,40.9,18.7z"
	/>
<path class="st0" d="M110.7,56.8c0,20.7-10.8,38.8-26.9,48.7c-1.6,1-3.2,1.9-4.9,2.7c0,0,0,0,0,0c-4,2-8.3,3.4-12.8,4.3
	c-3.5,0.7-7,1.1-10.7,1.1c-3.6,0-7.1-0.3-10.4-1c1.7,0.1,11.2,0.2,18.9-8.4c0.2-0.2,0.3-0.3,0.5-0.5c0.1-0.1,0.2-0.3,0.3-0.4
	c0.5-0.6,0.9-1.2,1.4-1.8c0.3-0.4,0.5-0.7,0.7-1.1c0-0.1,0.1-0.1,0.1-0.2c0.2-0.3,0.4-0.7,0.6-1c0.6-0.9,1.1-1.9,1.6-3
	c4.7-9.5,7.6-23.7,7.6-39.5C76.7,37.7,72.4,21,66,12c-1.1-1.6-2.3-2.9-3.5-3.9c-1.1-0.9-2.2-1.7-3.4-2.2c-0.5-0.2-1.1-0.4-1.6-0.6
	c-0.7-0.2-1.5-0.3-2.2-0.3c-0.7,0-1.4,0.1-2.2,0.3c0,0,0,0,0,0c-1.7,0.4-3.4,1.4-5,2.7c-0.3,0.3-0.6,0.5-0.9,0.8
	C55.8,0.1,66,1.1,66,1.1c4.5,0.9,8.8,2.4,12.8,4.3c0,0,0,0,0,0c1.7,0.8,3.4,1.8,5,2.8C100,18.1,110.7,36.2,110.7,56.8z"/>
<path class="st0" d="M40.9,18.7c-4.3,9.4-6.9,23-6.9,38c0,19.1,4.3,35.8,10.7,44.7c1.1,1.6,2.3,2.9,3.5,4c1.1,0.9,2.2,1.7,3.4,2.1
	c0.5,0.2,1,0.4,1.5,0.5c0,0,0,0,0,0c0.7,0.2,1.5,0.3,2.2,0.3c0.8,0,1.5-0.1,2.3-0.3c1.7-0.4,3.3-1.3,4.9-2.7
	c0.5-0.4,0.9-0.8,1.4-1.3c-7.8,8.5-17.3,8.4-18.9,8.4h0c-0.1,0-0.1,0-0.2,0c-4.5-0.9-8.9-2.4-12.9-4.3c-1.7-0.8-3.3-1.7-4.9-2.7
	C10.8,95.6,0,77.5,0,56.8C0,36.1,10.8,18,26.9,8.1c1.6-1,3.3-1.9,5-2.7c4-2,8.3-3.4,12.8-4.3c3.4-0.7,7-1.1,10.7-1.1
	C59,0,62.6,0.4,66,1.1c0,0-10.3-1-18.8,7.9c-0.2,0.2-0.3,0.3-0.5,0.5c-0.7,0.8-1.5,1.7-2.1,2.6c-0.2,0.3-0.4,0.6-0.6,0.9
	c-0.2,0.3-0.4,0.6-0.6,0.9c-0.2,0.3-0.4,0.6-0.6,0.9c-0.2,0.3-0.4,0.7-0.6,1c-0.3,0.7-0.7,1.3-1,2C41.2,18.1,41.1,18.4,40.9,18.7z"
	/>
<path class="st0" d="M110.7,56.8c0,20.7-10.8,38.8-26.9,48.7c-1.6,1-3.2,1.9-4.9,2.7c0,0,0,0,0,0c-4,2-8.3,3.4-12.8,4.3
	c-3.5,0.7-7,1.1-10.7,1.1c-3.6,0-7.1-0.3-10.4-1c1.7,0.1,11.2,0.2,18.9-8.4c0.2-0.2,0.3-0.3,0.5-0.5c0.1-0.1,0.2-0.3,0.3-0.4
	c0.5-0.6,0.9-1.2,1.4-1.8c0.3-0.4,0.5-0.7,0.7-1.1c0-0.1,0.1-0.1,0.1-0.2c0.2-0.3,0.4-0.7,0.6-1c0.6-0.9,1.1-1.9,1.6-3
	c4.7-9.5,7.6-23.7,7.6-39.5C76.7,37.7,72.4,21,66,12c-1.1-1.6-2.3-2.9-3.5-3.9c-1.1-0.9-2.2-1.7-3.4-2.2c-0.5-0.2-1.1-0.4-1.6-0.6
	c-0.7-0.2-1.5-0.3-2.2-0.3c-0.7,0-1.4,0.1-2.2,0.3c0,0,0,0,0,0c-1.7,0.4-3.4,1.4-5,2.7c-0.3,0.3-0.6,0.5-0.9,0.8
	C55.8,0.1,66,1.1,66,1.1c4.5,0.9,8.8,2.4,12.8,4.3c0,0,0,0,0,0c1.7,0.8,3.4,1.8,5,2.8C100,18.1,110.7,36.2,110.7,56.8z"/>
<g>
	<path class="st1" d="M110.8,56.6c-0.5,29-24,54-52.5,55.9c-1.6,0.1-3.2,0.1-4.7,0.1c-2.4-0.2-5.6-0.5-7.9-0.8
		c-5.6-1.2-5.8-1.2-9-2.3c-5.2-2.1-5.5-2.2-8.5-3.8c-4.8-2.9-5.1-3.1-7.8-5.2c-1.2-1.1-2.9-2.5-4.1-3.6c-3.9-4-4.1-4.3-6.1-7
		c-3.2-4.7-3.3-4.9-4.8-7.8c-0.2-0.5-0.5-1-0.7-1.6c8.2,16.7,25.6,27.4,45.9,26c28.6-1.9,52.3-27.1,52.8-56.2
		c0.4-25.4-16.9-45.5-40.4-48.9c0.6,0.1,4.9,0.4,10.8,2.6c5.2,2.1,5.5,2.2,8.5,3.8c4.8,2.9,5.1,3.1,7.8,5.2c1.2,1.1,2.9,2.5,4.1,3.6
		c3.9,4,4.1,4.3,6.1,7c3.2,4.7,3.3,4.9,4.8,7.8c2.4,5.1,2.5,5.3,3.5,8.4l0.8,2.8C110.3,47,110.9,51.7,110.8,56.6z"/>
	<path class="st1" d="M47.4,2.8C21.8,4.5,0.7,27,0.2,53.1c-0.4,26.1,20,45.8,45.6,44.1C71.4,95.5,92.6,73,93,46.9
		C93.5,20.9,73.1,1.1,47.4,2.8z M72.2,43.5C71.9,61,57.7,76.1,40.5,77.2C23.3,78.4,9.6,65.1,9.9,47.7c0.3-17.5,14.5-32.6,31.7-33.7
		C58.8,12.8,72.5,26,72.2,43.5z"/>
	<path class="st0" d="M56.4,42.6c-0.2,9.9-8.2,18.5-18,19.1c-9.8,0.6-17.5-6.9-17.4-16.8c0.2-9.9,8.2-18.5,18-19.1
		C48.8,25.1,56.6,32.7,56.4,42.6z"/>
</g>
</svg>
