<svg width="428" height="87" viewBox="0 0 428 87" fill="none" xmlns="http://www.w3.org/2000/svg">
<g clip-path="url(#clip0_1666_546)">
<path d="M126.276 65.378C122.712 65.378 119.436 64.55 116.448 62.894C113.496 61.238 111.138 58.934 109.374 55.982C107.646 52.994 106.782 49.646 106.782 45.938C106.782 42.23 107.646 38.9 109.374 35.948C111.138 32.996 113.496 30.692 116.448 29.036C119.436 27.38 122.712 26.552 126.276 26.552C129.84 26.552 133.098 27.38 136.05 29.036C139.038 30.692 141.378 32.996 143.07 35.948C144.798 38.9 145.662 42.23 145.662 45.938C145.662 49.646 144.798 52.994 143.07 55.982C141.342 58.934 139.002 61.238 136.05 62.894C133.098 64.55 129.84 65.378 126.276 65.378ZM126.276 56.954C129.3 56.954 131.712 55.946 133.512 53.93C135.348 51.914 136.266 49.25 136.266 45.938C136.266 42.59 135.348 39.926 133.512 37.946C131.712 35.93 129.3 34.922 126.276 34.922C123.216 34.922 120.768 35.912 118.932 37.892C117.132 39.872 116.232 42.554 116.232 45.938C116.232 49.286 117.132 51.968 118.932 53.984C120.768 55.964 123.216 56.954 126.276 56.954ZM148.963 49.88C148.963 46.784 149.539 44.066 150.691 41.726C151.879 39.386 153.481 37.586 155.497 36.326C157.513 35.066 159.763 34.436 162.247 34.436C164.227 34.436 166.027 34.85 167.647 35.678C169.303 36.506 170.599 37.622 171.535 39.026V25.04H180.769V65H171.535V60.68C170.671 62.12 169.429 63.272 167.809 64.136C166.225 65 164.371 65.432 162.247 65.432C159.763 65.432 157.513 64.802 155.497 63.542C153.481 62.246 151.879 60.428 150.691 58.088C149.539 55.712 148.963 52.976 148.963 49.88ZM171.535 49.934C171.535 47.63 170.887 45.812 169.591 44.48C168.331 43.148 166.783 42.482 164.947 42.482C163.111 42.482 161.545 43.148 160.249 44.48C158.989 45.776 158.359 47.576 158.359 49.88C158.359 52.184 158.989 54.02 160.249 55.388C161.545 56.72 163.111 57.386 164.947 57.386C166.783 57.386 168.331 56.72 169.591 55.388C170.887 54.056 171.535 52.238 171.535 49.934ZM192.094 31.736C190.474 31.736 189.142 31.268 188.098 30.332C187.09 29.36 186.586 28.172 186.586 26.768C186.586 25.328 187.09 24.14 188.098 23.204C189.142 22.232 190.474 21.746 192.094 21.746C193.678 21.746 194.974 22.232 195.982 23.204C197.026 24.14 197.548 25.328 197.548 26.768C197.548 28.172 197.026 29.36 195.982 30.332C194.974 31.268 193.678 31.736 192.094 31.736ZM196.684 34.868V65H187.45V34.868H196.684ZM218.495 42.536H213.527V65H204.293V42.536H200.945V34.868H204.293V34.004C204.293 30.296 205.355 27.488 207.479 25.58C209.603 23.636 212.717 22.664 216.821 22.664C217.505 22.664 218.009 22.682 218.333 22.718V30.548C216.569 30.44 215.327 30.692 214.607 31.304C213.887 31.916 213.527 33.014 213.527 34.598V34.868H218.495V42.536ZM253.614 34.868L234.714 79.31H224.778L231.69 63.974L219.432 34.868H229.746L236.712 53.714L243.624 34.868H253.614Z" fill="black"/>
</g>
<g clip-path="url(#clip1_1666_546)">
<path d="M24.0279 82.4843C23.5263 82.2695 22.9281 82.0085 22.1723 81.679L22.1415 81.6653C20.7901 80.9926 20.09 80.6314 19.1357 80.0348L19.1066 80.016C18.4176 79.5829 17.5951 79.03 16.2317 78.1134L16.1941 78.0877C14.8426 77.0692 14.2127 76.5703 13.3765 75.8C12.7286 75.2017 11.9507 74.4323 10.7738 73.2683C10.6549 73.1399 10.5179 72.9919 10.3844 72.8421C8.34058 70.5115 8.06584 70.0947 5.9253 66.8475L5.92359 66.845C5.262 65.6818 4.50541 64.1875 3.9859 63.1373C3.9859 63.1373 3.97049 63.1065 3.96535 63.0962C3.85495 62.872 3.74882 62.6546 3.64868 62.4484C2.15518 59.0326 1.31899 55.3574 1.1521 51.4863C2.17744 55.6715 4.15707 59.4716 6.9669 62.611C8.1694 63.9547 9.51484 65.1683 10.9664 66.2185C12.1432 70.1889 14.116 73.7382 16.8291 76.7697C16.9498 76.9041 17.0705 77.0367 17.1937 77.1677C19.1905 79.3108 21.4868 81.0927 24.0279 82.4843Z" fill="url(#paint0_linear_1666_546)"/>
<path d="M24.0279 82.4843C23.5263 82.2695 22.9281 82.0085 22.1723 81.679L22.1415 81.6653C20.7901 80.9926 20.09 80.6314 19.1357 80.0348L19.1066 80.016C18.4176 79.5829 17.5951 79.03 16.2317 78.1134L16.1941 78.0877C14.8426 77.0692 14.2127 76.5703 13.3765 75.8C12.7286 75.2017 11.9507 74.4323 10.7738 73.2683C10.6549 73.1399 10.5179 72.9919 10.3844 72.8421C8.34058 70.5115 8.06584 70.0947 5.9253 66.8475L5.92359 66.845C5.262 65.6818 4.50541 64.1875 3.9859 63.1373C3.9859 63.1373 3.97049 63.1065 3.96535 63.0962C3.85495 62.872 3.74882 62.6546 3.64868 62.4484C2.15518 59.0326 1.31899 55.3574 1.1521 51.4863C2.17744 55.6715 4.15707 59.4716 6.9669 62.611C8.1694 63.9547 9.51484 65.1683 10.9664 66.2185C12.1432 70.1889 14.116 73.7382 16.8291 76.7697C16.9498 76.9041 17.0705 77.0367 17.1937 77.1677C19.1905 79.3108 21.4868 81.0927 24.0279 82.4843Z" fill="url(#paint1_linear_1666_546)"/>
<path d="M1.71344 54.3698C2.84918 57.4972 4.54552 60.3541 6.74426 62.8113C7.93821 64.1456 9.27166 65.3524 10.7087 66.4017C11.9018 70.3755 13.8857 73.9299 16.6065 76.97C16.7272 77.1044 16.8513 77.2405 16.9745 77.3723C17.9673 78.4387 19.0346 79.4169 20.1686 80.3028C19.8922 80.1462 19.6192 79.9835 19.323 79.7987L19.2657 79.7627C18.581 79.3331 17.7619 78.7819 16.4045 77.8695L16.3677 77.8447C15.03 76.8365 14.4052 76.3409 13.5801 75.5809C12.9356 74.9861 12.1611 74.2201 10.9894 73.0604C10.873 72.9354 10.7395 72.7908 10.6102 72.6453C8.58097 70.331 8.30623 69.9142 6.17939 66.6884C5.52293 65.533 4.77062 64.0489 4.25367 63.0013L4.25025 62.9945C4.24511 62.9833 4.23912 62.9722 4.23313 62.9611C4.12443 62.7403 4.02002 62.5263 3.92159 62.3234C2.98698 60.1838 2.30399 57.8986 1.89317 55.5304C1.82642 55.1452 1.7665 54.7584 1.71344 54.3698ZM0.866126 48.2751C0.618778 53.2572 1.43956 58.1442 3.37726 62.5734C3.47911 62.7831 3.58695 63.0039 3.69907 63.2315C3.70591 63.2444 3.7119 63.2572 3.71789 63.2692C4.32214 64.4914 5.05049 65.9147 5.66843 67.0008C7.82352 70.2702 8.09997 70.6905 10.1609 73.0407C10.2919 73.1879 10.4254 73.3325 10.5589 73.4763C11.7785 74.6831 12.53 75.426 13.1736 76.02C14.0312 76.81 14.6953 77.3338 16.0202 78.3317C17.4007 79.2603 18.2463 79.8295 18.9473 80.2694C18.949 80.2711 18.9507 80.272 18.9524 80.2728C19.9093 80.8728 20.5974 81.2314 22.0148 81.9366C23.4552 82.5649 24.3496 82.9551 25.0754 83.2478C25.0771 83.2487 25.0796 83.2495 25.0822 83.2504C26.1084 83.6638 26.7999 83.8812 28.2318 84.3031C29.6791 84.6566 30.5855 84.8783 31.2984 85.0349C32.3777 85.2703 33.017 85.3576 34.4241 85.5287C34.6106 85.5433 34.8101 85.5604 35.0172 85.5775C28.2934 84.8295 22.073 81.9674 17.4136 76.9632C17.292 76.8331 17.1722 76.7021 17.0533 76.5695C14.2862 73.478 12.3537 69.8894 11.2256 66.0354C9.7732 64.9929 8.42092 63.7844 7.19103 62.4107C3.60321 58.4018 1.52001 53.496 0.866126 48.2751Z" fill="white"/>
<g opacity="0.2">
<path d="M24.0279 82.4843C23.5263 82.2695 22.9281 82.0085 22.1723 81.679L22.1415 81.6653C20.7901 80.9926 20.09 80.6314 19.1357 80.0348L19.1066 80.016C18.4176 79.5829 17.5951 79.03 16.2317 78.1134L16.1941 78.0877C14.8426 77.0692 14.2127 76.5703 13.3765 75.8C12.7286 75.2017 11.9507 74.4323 10.7738 73.2683C10.6549 73.1399 10.5179 72.9919 10.3844 72.8421C8.34058 70.5115 8.06584 70.0947 5.9253 66.8475L5.92359 66.845C5.262 65.6818 4.50541 64.1875 3.9859 63.1373C3.9859 63.1373 3.97049 63.1065 3.96535 63.0962C3.85495 62.872 3.74882 62.6546 3.64868 62.4484C2.15518 59.0326 1.31899 55.3574 1.1521 51.4863C2.17744 55.6715 4.15707 59.4716 6.9669 62.611C8.1694 63.9547 9.51484 65.1683 10.9664 66.2185C12.1432 70.1889 14.116 73.7382 16.8291 76.7697C16.9498 76.9041 17.0705 77.0367 17.1937 77.1677C19.1905 79.3108 21.4868 81.0927 24.0279 82.4843Z" fill="black"/>
<path d="M1.71344 54.3698C2.84918 57.4972 4.54552 60.3541 6.74426 62.8113C7.93821 64.1456 9.27166 65.3524 10.7087 66.4017C11.9018 70.3755 13.8857 73.9299 16.6065 76.97C16.7272 77.1044 16.8513 77.2405 16.9745 77.3723C17.9673 78.4387 19.0346 79.4169 20.1686 80.3028C19.8922 80.1462 19.6192 79.9835 19.323 79.7987L19.2657 79.7627C18.581 79.3331 17.7619 78.7819 16.4045 77.8695L16.3677 77.8447C15.03 76.8365 14.4052 76.3409 13.5801 75.5809C12.9356 74.9861 12.1611 74.2201 10.9894 73.0604C10.873 72.9354 10.7395 72.7908 10.6102 72.6453C8.58097 70.331 8.30623 69.9142 6.17939 66.6884C5.52293 65.533 4.77062 64.0489 4.25367 63.0013L4.25025 62.9945C4.24511 62.9833 4.23912 62.9722 4.23313 62.9611C4.12443 62.7403 4.02002 62.5263 3.92159 62.3234C2.98698 60.1838 2.30399 57.8986 1.89317 55.5304C1.82642 55.1452 1.7665 54.7584 1.71344 54.3698ZM0.866126 48.2751C0.618778 53.2572 1.43956 58.1442 3.37726 62.5734C3.47911 62.7831 3.58695 63.0039 3.69907 63.2315C3.70591 63.2444 3.7119 63.2572 3.71789 63.2692C4.32214 64.4914 5.05049 65.9147 5.66843 67.0008C7.82352 70.2702 8.09997 70.6905 10.1609 73.0407C10.2919 73.1879 10.4254 73.3325 10.5589 73.4763C11.7785 74.6831 12.53 75.426 13.1736 76.02C14.0312 76.81 14.6953 77.3338 16.0202 78.3317C17.4007 79.2603 18.2463 79.8295 18.9473 80.2694C18.949 80.2711 18.9507 80.272 18.9524 80.2728C19.9093 80.8728 20.5974 81.2314 22.0148 81.9366C23.4552 82.5649 24.3496 82.9551 25.0754 83.2478C25.0771 83.2487 25.0796 83.2495 25.0822 83.2504C26.1084 83.6638 26.7999 83.8812 28.2318 84.3031C29.6791 84.6566 30.5855 84.8783 31.2984 85.0349C32.3777 85.2703 33.017 85.3576 34.4241 85.5287C34.6106 85.5433 34.8101 85.5604 35.0172 85.5775C28.2934 84.8295 22.073 81.9674 17.4136 76.9632C17.292 76.8331 17.1722 76.7021 17.0533 76.5695C14.2862 73.478 12.3537 69.8894 11.2256 66.0354C9.7732 64.9929 8.42092 63.7844 7.19103 62.4107C3.60321 58.4018 1.52001 53.496 0.866126 48.2751Z" fill="white"/>
</g>
<path d="M70.5119 28.1929C70.4067 28.0756 70.3014 27.9592 70.1936 27.8445C67.2305 24.6478 63.6324 22.3207 59.674 20.8563C58.9072 19.6136 58.0256 18.4282 57.0268 17.313C53.1985 13.0362 48.1788 10.365 42.6807 9.28406C47.6841 9.38505 52.5104 10.5516 56.7897 12.7948C58.2884 13.6482 60.2363 14.8746 61.6674 15.8375C63.3697 17.1196 63.9816 17.6194 65.3142 18.9084C65.3159 18.9101 65.3177 18.9109 65.3194 18.9135C65.8004 19.3791 66.3755 19.9474 67.1287 20.6928C67.2622 20.8366 67.3949 20.9813 67.5267 21.1285C67.5421 21.1456 67.5583 21.1627 67.5746 21.1807C69.2872 23.0414 70.2449 25.4352 70.5119 28.1929Z" fill="url(#paint2_linear_1666_546)"/>
<path d="M70.5119 28.1929C70.4067 28.0756 70.3014 27.9592 70.1936 27.8445C67.2305 24.6478 63.6324 22.3207 59.674 20.8563C58.9072 19.6136 58.0256 18.4282 57.0268 17.313C53.1985 13.0362 48.1788 10.365 42.6807 9.28406C47.6841 9.38505 52.5104 10.5516 56.7897 12.7948C58.2884 13.6482 60.2363 14.8746 61.6674 15.8375C63.3697 17.1196 63.9816 17.6194 65.3142 18.9084C65.3159 18.9101 65.3177 18.9109 65.3194 18.9135C65.8004 19.3791 66.3755 19.9474 67.1287 20.6928C67.2622 20.8366 67.3949 20.9813 67.5267 21.1285C67.5421 21.1456 67.5583 21.1627 67.5746 21.1807C69.2872 23.0414 70.2449 25.4352 70.5119 28.1929Z" fill="url(#paint3_linear_1666_546)"/>
<path d="M70.5119 28.1929C70.4067 28.0756 70.3014 27.9592 70.1936 27.8445C67.2305 24.6478 63.6324 22.3207 59.674 20.8563C58.9072 19.6136 58.0256 18.4282 57.0268 17.313C53.1985 13.0362 48.1788 10.365 42.6807 9.28406C47.6841 9.38505 52.5104 10.5516 56.7897 12.7948C58.2884 13.6482 60.2363 14.8746 61.6674 15.8375C63.3697 17.1196 63.9816 17.6194 65.3142 18.9084C65.3159 18.9101 65.3177 18.9109 65.3194 18.9135C65.8004 19.3791 66.3755 19.9474 67.1287 20.6928C67.2622 20.8366 67.3949 20.9813 67.5267 21.1285C67.5421 21.1456 67.5583 21.1627 67.5746 21.1807C69.2872 23.0414 70.2449 25.4352 70.5119 28.1929Z" stroke="white" stroke-width="1.02705" stroke-miterlimit="10"/>
<path opacity="0.2" d="M70.5119 28.1929C70.4067 28.0756 70.3014 27.9592 70.1936 27.8445C67.2305 24.6478 63.6324 22.3207 59.674 20.8563C58.9072 19.6136 58.0256 18.4282 57.0268 17.313C53.1985 13.0362 48.1788 10.365 42.6807 9.28406C47.6841 9.38505 52.5104 10.5516 56.7897 12.7948C58.2884 13.6482 60.2363 14.8746 61.6674 15.8375C63.3697 17.1196 63.9816 17.6194 65.3142 18.9084C65.3159 18.9101 65.3177 18.9109 65.3194 18.9135C65.8004 19.3791 66.3755 19.9474 67.1287 20.6928C67.2622 20.8366 67.3949 20.9813 67.5267 21.1285C67.5421 21.1456 67.5583 21.1627 67.5746 21.1807C69.2872 23.0414 70.2449 25.4352 70.5119 28.1929Z" fill="#231F20" stroke="white" stroke-width="1.02705" stroke-miterlimit="10"/>
<path d="M77.5293 46.0901L77.5156 48.46C77.1673 57.985 72.6697 67.9183 64.3942 75.4072C56.4569 82.5905 46.6588 86.0611 37.5275 85.7589C37.0645 85.7264 36.5236 85.6948 35.9818 85.6597C35.9801 85.6588 35.9775 85.6588 35.9741 85.6588C35.7593 85.6443 35.5445 85.6289 35.3339 85.6126H35.3331C35.013 85.5878 34.704 85.5604 34.4241 85.5296C32.9495 85.3062 32.0285 85.1658 31.2985 85.0357C30.2406 84.8474 29.585 84.6788 28.2319 84.304C26.7512 83.8212 25.8277 83.5191 25.0823 83.2512C25.0797 83.2504 25.0771 83.2495 25.0754 83.2487C24.0509 82.8798 23.3602 82.5717 22.0148 81.9375C20.5692 81.1672 19.6766 80.6913 18.9525 80.2737C18.9508 80.2728 18.9491 80.2719 18.9474 80.2702C17.9785 79.7113 17.3109 79.2552 16.0203 78.3325C14.6766 77.2627 13.8524 76.6054 13.1736 76.0208C12.3178 75.2839 11.6947 74.6625 10.559 73.4772C10.4254 73.3334 10.2919 73.1887 10.161 73.0415C7.53943 70.0939 6.88298 68.9958 5.66849 67.0016L4.13306 64.0626C5.1447 65.9395 6.6673 68.395 8.25237 70.1666C10.8731 73.0946 13.9859 75.3592 17.4136 76.964C29.7271 82.73 46.0999 79.9869 58.3115 68.9376C70.7311 57.6974 74.853 41.0695 70.1936 27.8454C68.9971 24.4493 67.222 21.2775 64.859 18.4796C65.0147 18.6268 65.1662 18.7689 65.3143 18.9093C65.316 18.911 65.3177 18.9118 65.3194 18.9144C66.1394 19.6873 66.8549 20.3685 67.5267 21.1294C67.5421 21.1465 67.5584 21.1636 67.5747 21.1816C68.5966 22.2951 70.4153 24.6008 72.0192 27.1693C73.9184 30.6262 74.0733 30.9086 75.0678 33.4574C76.2926 37.1334 76.3662 37.3533 76.8626 39.8414C77.4215 43.5327 77.4549 43.7535 77.5293 46.0901Z" fill="url(#paint4_linear_1666_546)"/>
<path d="M77.5293 46.0901L77.5156 48.46C77.1673 57.985 72.6697 67.9183 64.3942 75.4072C56.4569 82.5905 46.6588 86.0611 37.5275 85.7589C37.0645 85.7264 36.5236 85.6948 35.9818 85.6597C35.9801 85.6588 35.9775 85.6588 35.9741 85.6588C35.7593 85.6443 35.5445 85.6289 35.3339 85.6126H35.3331C35.013 85.5878 34.704 85.5604 34.4241 85.5296C32.9495 85.3062 32.0285 85.1658 31.2985 85.0357C30.2406 84.8474 29.585 84.6788 28.2319 84.304C26.7512 83.8212 25.8277 83.5191 25.0823 83.2512C25.0797 83.2504 25.0771 83.2495 25.0754 83.2487C24.0509 82.8798 23.3602 82.5717 22.0148 81.9375C20.5692 81.1672 19.6766 80.6913 18.9525 80.2737C18.9508 80.2728 18.9491 80.2719 18.9474 80.2702C17.9785 79.7113 17.3109 79.2552 16.0203 78.3325C14.6766 77.2627 13.8524 76.6054 13.1736 76.0208C12.3178 75.2839 11.6947 74.6625 10.559 73.4772C10.4254 73.3334 10.2919 73.1887 10.161 73.0415C7.53943 70.0939 6.88298 68.9958 5.66849 67.0016L4.13306 64.0626C5.1447 65.9395 6.6673 68.395 8.25237 70.1666C10.8731 73.0946 13.9859 75.3592 17.4136 76.964C29.7271 82.73 46.0999 79.9869 58.3115 68.9376C70.7311 57.6974 74.853 41.0695 70.1936 27.8454C68.9971 24.4493 67.222 21.2775 64.859 18.4796C65.0147 18.6268 65.1662 18.7689 65.3143 18.9093C65.316 18.911 65.3177 18.9118 65.3194 18.9144C66.1394 19.6873 66.8549 20.3685 67.5267 21.1294C67.5421 21.1465 67.5584 21.1636 67.5747 21.1816C68.5966 22.2951 70.4153 24.6008 72.0192 27.1693C73.9184 30.6262 74.0733 30.9086 75.0678 33.4574C76.2926 37.1334 76.3662 37.3533 76.8626 39.8414C77.4215 43.5327 77.4549 43.7535 77.5293 46.0901Z" fill="url(#paint5_linear_1666_546)"/>
<path d="M77.5293 46.0901L77.5156 48.46C77.1673 57.985 72.6697 67.9183 64.3942 75.4072C56.4569 82.5905 46.6588 86.0611 37.5275 85.7589C37.0645 85.7264 36.5236 85.6948 35.9818 85.6597C35.9801 85.6588 35.9775 85.6588 35.9741 85.6588C35.7593 85.6443 35.5445 85.6289 35.3339 85.6126H35.3331C35.013 85.5878 34.704 85.5604 34.4241 85.5296C32.9495 85.3062 32.0285 85.1658 31.2985 85.0357C30.2406 84.8474 29.585 84.6788 28.2319 84.304C26.7512 83.8212 25.8277 83.5191 25.0823 83.2512C25.0797 83.2504 25.0771 83.2495 25.0754 83.2487C24.0509 82.8798 23.3602 82.5717 22.0148 81.9375C20.5692 81.1672 19.6766 80.6913 18.9525 80.2737C18.9508 80.2728 18.9491 80.2719 18.9474 80.2702C17.9785 79.7113 17.3109 79.2552 16.0203 78.3325C14.6766 77.2627 13.8524 76.6054 13.1736 76.0208C12.3178 75.2839 11.6947 74.6625 10.559 73.4772C10.4254 73.3334 10.2919 73.1887 10.161 73.0415C7.53943 70.0939 6.88298 68.9958 5.66849 67.0016L4.13306 64.0626C5.1447 65.9395 6.6673 68.395 8.25237 70.1666C10.8731 73.0946 13.9859 75.3592 17.4136 76.964C29.7271 82.73 46.0999 79.9869 58.3115 68.9376C70.7311 57.6974 74.853 41.0695 70.1936 27.8454C68.9971 24.4493 67.222 21.2775 64.859 18.4796C65.0147 18.6268 65.1662 18.7689 65.3143 18.9093C65.316 18.911 65.3177 18.9118 65.3194 18.9144C66.1394 19.6873 66.8549 20.3685 67.5267 21.1294C67.5421 21.1465 67.5584 21.1636 67.5747 21.1816C68.5966 22.2951 70.4153 24.6008 72.0192 27.1693C73.9184 30.6262 74.0733 30.9086 75.0678 33.4574C76.2926 37.1334 76.3662 37.3533 76.8626 39.8414C77.4215 43.5327 77.4549 43.7535 77.5293 46.0901Z" stroke="white" stroke-width="0.94146" stroke-miterlimit="10"/>
<path d="M10.9767 66.3837C9.48579 65.3139 8.10527 64.0729 6.87281 62.6966C3.35004 58.7605 1.12648 53.7921 0.441779 48.3291L0.4375 48.2923L0.439212 48.2546C0.959583 37.8284 6.06059 27.5031 14.4353 19.9252C18.4117 16.3263 22.8794 13.5353 27.7133 11.6275C32.3864 9.78398 37.1818 8.84937 41.9653 8.84937C42.2058 8.84937 42.4497 8.85193 42.6902 8.85707L42.7279 8.85792L42.7647 8.86477C48.541 10.0005 53.5829 12.8232 57.3471 17.0281C58.3467 18.1441 59.2531 19.3569 60.0397 20.6322L60.6918 21.6892L59.527 21.2578C56.2207 20.0339 52.6577 19.4143 48.9381 19.4143C46.1411 19.4143 43.2971 19.7695 40.4855 20.4704C34.2993 22.011 28.4117 25.1931 23.4605 29.6736C18.1823 34.4502 14.2821 40.3943 12.1818 46.8647C10.0763 53.3505 9.88805 59.9381 11.6383 65.9164L11.9875 67.1087L10.9767 66.3837Z" fill="url(#paint6_linear_1666_546)"/>
<path d="M10.9767 66.3837C9.48579 65.3139 8.10527 64.0729 6.87281 62.6966C3.35004 58.7605 1.12648 53.7921 0.441779 48.3291L0.4375 48.2923L0.439212 48.2546C0.959583 37.8284 6.06059 27.5031 14.4353 19.9252C18.4117 16.3263 22.8794 13.5353 27.7133 11.6275C32.3864 9.78398 37.1818 8.84937 41.9653 8.84937C42.2058 8.84937 42.4497 8.85193 42.6902 8.85707L42.7279 8.85792L42.7647 8.86477C48.541 10.0005 53.5829 12.8232 57.3471 17.0281C58.3467 18.1441 59.2531 19.3569 60.0397 20.6322L60.6918 21.6892L59.527 21.2578C56.2207 20.0339 52.6577 19.4143 48.9381 19.4143C46.1411 19.4143 43.2971 19.7695 40.4855 20.4704C34.2993 22.011 28.4117 25.1931 23.4605 29.6736C18.1823 34.4502 14.2821 40.3943 12.1818 46.8647C10.0763 53.3505 9.88805 59.9381 11.6383 65.9164L11.9875 67.1087L10.9767 66.3837Z" fill="url(#paint7_linear_1666_546)"/>
<path d="M41.9642 9.27726C42.203 9.27726 42.4418 9.27983 42.6806 9.28411C48.1787 10.3651 53.1984 13.0363 57.0267 17.3131C58.0255 18.4283 58.907 19.6136 59.6739 20.8564C56.3009 19.6085 52.6643 18.9863 48.9361 18.9854C46.1126 18.9854 43.2369 19.3423 40.38 20.0544C34.3195 21.5633 28.3498 24.6693 23.1709 29.3552C17.6582 34.3441 13.8222 40.4173 11.7724 46.7311C9.66695 53.2161 9.44528 59.9552 11.2255 66.0353C9.77308 64.9929 8.4208 63.7844 7.19091 62.4107C3.60309 58.4018 1.5199 53.4959 0.866009 48.2751C1.36156 38.3453 6.10395 28.0397 14.7217 20.2419C22.7781 12.9515 32.6463 9.27726 41.9642 9.27726ZM41.9642 8.42139C37.1268 8.42139 32.2791 9.36627 27.5556 11.2295C22.6728 13.1552 18.1624 15.9745 14.1475 19.6076C9.85268 23.4933 6.43175 28.0286 3.97796 33.0859C2.80114 35.5123 1.86653 38.0363 1.1998 40.5868C0.537354 43.1219 0.137661 45.6947 0.0109919 48.2332L0.00756836 48.3076L0.016983 48.3821C0.711952 53.9324 2.97231 58.9812 6.55329 62.9824C7.80629 64.3818 9.21077 65.6434 10.7265 66.7312L12.7455 68.1802L12.0471 65.7957C10.3208 59.9004 10.5074 53.4001 12.5863 46.9964C14.6635 40.5979 18.5227 34.7172 23.7452 29.9911C28.6451 25.5577 34.4684 22.4098 40.5871 20.8863C43.3653 20.1939 46.1742 19.843 48.937 19.843C52.6061 19.843 56.1195 20.455 59.3778 21.66L61.7083 22.5219L60.404 20.4079C59.6037 19.1112 58.6828 17.8779 57.666 16.743C53.8377 12.468 48.7136 9.59821 42.8457 8.4445L42.773 8.42995L42.6985 8.42823C42.4555 8.42395 42.2081 8.42139 41.9642 8.42139Z" fill="white"/>
<g opacity="0.2">
<path d="M10.9767 66.3837C9.48579 65.3139 8.10527 64.0729 6.87281 62.6966C3.35004 58.7605 1.12648 53.7921 0.441779 48.3291L0.4375 48.2923L0.439212 48.2546C0.959583 37.8284 6.06059 27.5031 14.4353 19.9252C18.4117 16.3263 22.8794 13.5353 27.7133 11.6275C32.3864 9.78398 37.1818 8.84937 41.9653 8.84937C42.2058 8.84937 42.4497 8.85193 42.6902 8.85707L42.7279 8.85792L42.7647 8.86477C48.541 10.0005 53.5829 12.8232 57.3471 17.0281C58.3467 18.1441 59.2531 19.3569 60.0397 20.6322L60.6918 21.6892L59.527 21.2578C56.2207 20.0339 52.6577 19.4143 48.9381 19.4143C46.1411 19.4143 43.2971 19.7695 40.4855 20.4704C34.2993 22.011 28.4117 25.1931 23.4605 29.6736C18.1823 34.4502 14.2821 40.3943 12.1818 46.8647C10.0763 53.3505 9.88805 59.9381 11.6383 65.9164L11.9875 67.1087L10.9767 66.3837Z" fill="black"/>
<path d="M41.9642 9.27726C42.203 9.27726 42.4418 9.27983 42.6806 9.28411C48.1787 10.3651 53.1984 13.0363 57.0267 17.3131C58.0255 18.4283 58.907 19.6136 59.6739 20.8564C56.3009 19.6085 52.6643 18.9863 48.9361 18.9854C46.1126 18.9854 43.2369 19.3423 40.38 20.0544C34.3195 21.5633 28.3498 24.6693 23.1709 29.3552C17.6582 34.3441 13.8222 40.4173 11.7724 46.7311C9.66695 53.2161 9.44528 59.9552 11.2255 66.0353C9.77308 64.9929 8.4208 63.7844 7.19091 62.4107C3.60309 58.4018 1.5199 53.4959 0.866009 48.2751C1.36156 38.3453 6.10395 28.0397 14.7217 20.2419C22.7781 12.9515 32.6463 9.27726 41.9642 9.27726ZM41.9642 8.42139C37.1268 8.42139 32.2791 9.36627 27.5556 11.2295C22.6728 13.1552 18.1624 15.9745 14.1475 19.6076C9.85268 23.4933 6.43175 28.0286 3.97796 33.0859C2.80114 35.5123 1.86653 38.0363 1.1998 40.5868C0.537354 43.1219 0.137661 45.6947 0.0109919 48.2332L0.00756836 48.3076L0.016983 48.3821C0.711952 53.9324 2.97231 58.9812 6.55329 62.9824C7.80629 64.3818 9.21077 65.6434 10.7265 66.7312L12.7455 68.1802L12.0471 65.7957C10.3208 59.9004 10.5074 53.4001 12.5863 46.9964C14.6635 40.5979 18.5227 34.7172 23.7452 29.9911C28.6451 25.5577 34.4684 22.4098 40.5871 20.8863C43.3653 20.1939 46.1742 19.843 48.937 19.843C52.6061 19.843 56.1195 20.455 59.3778 21.66L61.7083 22.5219L60.404 20.4079C59.6037 19.1112 58.6828 17.8779 57.666 16.743C53.8377 12.468 48.7136 9.59821 42.8457 8.4445L42.773 8.42995L42.6985 8.42823C42.4555 8.42395 42.2081 8.42139 41.9642 8.42139Z" fill="white"/>
</g>
<path d="M57.0269 17.3139C48.3355 7.60487 33.5084 6.17386 20.8663 12.8154C19.5799 13.5395 17.9033 14.5708 16.6665 15.3762C15.5008 16.2423 13.9928 17.4603 12.8827 18.3966C11.5321 19.6188 11.5321 19.6188 9.13141 22.2959C7.97855 23.6748 7.97855 23.6748 6.00148 26.6147L5.88936 26.7953C-1.36074 38.5635 -1.25632 52.9747 7.19115 62.4116C17.8031 74.2663 37.5618 73.781 51.3234 61.328C65.085 48.8742 67.638 29.1686 57.0269 17.3139ZM38.3629 47.0726C30.3211 54.3501 18.7737 54.6343 12.572 47.706C6.37036 40.7785 7.86301 29.2619 15.9056 21.9844C23.9474 14.7069 35.4949 14.4228 41.6965 21.3511C47.8982 28.2785 46.4055 39.7951 38.3629 47.0726Z" fill="url(#paint8_linear_1666_546)"/>
<path d="M57.0269 17.3139C48.3355 7.60487 33.5084 6.17386 20.8663 12.8154C19.5799 13.5395 17.9033 14.5708 16.6665 15.3762C15.5008 16.2423 13.9928 17.4603 12.8827 18.3966C11.5321 19.6188 11.5321 19.6188 9.13141 22.2959C7.97855 23.6748 7.97855 23.6748 6.00148 26.6147L5.88936 26.7953C-1.36074 38.5635 -1.25632 52.9747 7.19115 62.4116C17.8031 74.2663 37.5618 73.781 51.3234 61.328C65.085 48.8742 67.638 29.1686 57.0269 17.3139ZM38.3629 47.0726C30.3211 54.3501 18.7737 54.6343 12.572 47.706C6.37036 40.7785 7.86301 29.2619 15.9056 21.9844C23.9474 14.7069 35.4949 14.4228 41.6965 21.3511C47.8982 28.2785 46.4055 39.7951 38.3629 47.0726Z" fill="url(#paint9_linear_1666_546)"/>
<path d="M57.0269 17.3139C48.3355 7.60487 33.5084 6.17386 20.8663 12.8154C19.5799 13.5395 17.9033 14.5708 16.6665 15.3762C15.5008 16.2423 13.9928 17.4603 12.8827 18.3966C11.5321 19.6188 11.5321 19.6188 9.13141 22.2959C7.97855 23.6748 7.97855 23.6748 6.00148 26.6147L5.88936 26.7953C-1.36074 38.5635 -1.25632 52.9747 7.19115 62.4116C17.8031 74.2663 37.5618 73.781 51.3234 61.328C65.085 48.8742 67.638 29.1686 57.0269 17.3139ZM38.3629 47.0726C30.3211 54.3501 18.7737 54.6343 12.572 47.706C6.37036 40.7785 7.86301 29.2619 15.9056 21.9844C23.9474 14.7069 35.4949 14.4228 41.6965 21.3511C47.8982 28.2785 46.4055 39.7951 38.3629 47.0726Z" stroke="white" stroke-width="1.28381" stroke-miterlimit="10"/>
<path d="M27.305 70.5664C21.3917 70.5664 15.9176 68.8794 11.4756 65.6879C10.0352 64.654 8.70086 63.4558 7.51034 62.1257C4.10396 58.3197 1.95401 53.5122 1.29156 48.2221C0.410012 41.174 2.17225 33.644 6.25477 27.0187L6.36175 26.8458C8.31914 23.935 8.32256 23.9298 9.45574 22.575C11.8334 19.9244 11.8376 19.9192 13.1651 18.7176C14.1177 17.9148 15.666 16.6523 16.9121 15.7263C18.255 14.8524 19.8854 13.8579 21.0716 13.1903C26.0931 10.5534 31.5715 9.15918 36.9139 9.15918C38.8473 9.15918 40.7593 9.34234 42.5986 9.70437C48.1908 10.8042 53.0693 13.5335 56.7085 17.5989C57.6748 18.6773 58.5503 19.849 59.3103 21.0815C62.8494 26.8116 63.9903 33.9778 62.5242 41.2604C61.0392 48.6363 56.9593 55.6502 51.0366 61.0097C47.6029 64.1174 43.7463 66.5275 39.5748 68.1725C35.5496 69.7601 31.4209 70.5655 27.3058 70.5655C27.305 70.5664 27.305 70.5664 27.305 70.5664ZM29.9428 15.9069C24.8101 15.9069 19.7236 17.9524 15.6189 21.6669C7.87152 28.6774 6.03139 39.8003 11.4302 46.9888C11.6913 47.3363 11.9686 47.6735 12.2536 47.991C15.2312 51.3169 19.5182 53.1493 24.3265 53.1493C29.4592 53.1493 34.5457 51.1038 38.6504 47.3893C46.8548 39.9655 48.3646 28.1561 42.0157 21.0652C41.5895 20.5902 41.1333 20.1409 40.6609 19.7318C37.774 17.2292 34.0681 15.9069 29.9428 15.9069Z" fill="url(#paint10_linear_1666_546)"/>
<path d="M27.305 70.5664C21.3917 70.5664 15.9176 68.8794 11.4756 65.6879C10.0352 64.654 8.70086 63.4558 7.51034 62.1257C4.10396 58.3197 1.95401 53.5122 1.29156 48.2221C0.410012 41.174 2.17225 33.644 6.25477 27.0187L6.36175 26.8458C8.31914 23.935 8.32256 23.9298 9.45574 22.575C11.8334 19.9244 11.8376 19.9192 13.1651 18.7176C14.1177 17.9148 15.666 16.6523 16.9121 15.7263C18.255 14.8524 19.8854 13.8579 21.0716 13.1903C26.0931 10.5534 31.5715 9.15918 36.9139 9.15918C38.8473 9.15918 40.7593 9.34234 42.5986 9.70437C48.1908 10.8042 53.0693 13.5335 56.7085 17.5989C57.6748 18.6773 58.5503 19.849 59.3103 21.0815C62.8494 26.8116 63.9903 33.9778 62.5242 41.2604C61.0392 48.6363 56.9593 55.6502 51.0366 61.0097C47.6029 64.1174 43.7463 66.5275 39.5748 68.1725C35.5496 69.7601 31.4209 70.5655 27.3058 70.5655C27.305 70.5664 27.305 70.5664 27.305 70.5664ZM29.9428 15.9069C24.8101 15.9069 19.7236 17.9524 15.6189 21.6669C7.87152 28.6774 6.03139 39.8003 11.4302 46.9888C11.6913 47.3363 11.9686 47.6735 12.2536 47.991C15.2312 51.3169 19.5182 53.1493 24.3265 53.1493C29.4592 53.1493 34.5457 51.1038 38.6504 47.3893C46.8548 39.9655 48.3646 28.1561 42.0157 21.0652C41.5895 20.5902 41.1333 20.1409 40.6609 19.7318C37.774 17.2292 34.0681 15.9069 29.9428 15.9069Z" fill="url(#paint11_linear_1666_546)"/>
<path d="M27.305 70.5664C21.3917 70.5664 15.9176 68.8794 11.4756 65.6879C10.0352 64.654 8.70086 63.4558 7.51034 62.1257C4.10396 58.3197 1.95401 53.5122 1.29156 48.2221C0.410012 41.174 2.17225 33.644 6.25477 27.0187L6.36175 26.8458C8.31914 23.935 8.32256 23.9298 9.45574 22.575C11.8334 19.9244 11.8376 19.9192 13.1651 18.7176C14.1177 17.9148 15.666 16.6523 16.9121 15.7263C18.255 14.8524 19.8854 13.8579 21.0716 13.1903C26.0931 10.5534 31.5715 9.15918 36.9139 9.15918C38.8473 9.15918 40.7593 9.34234 42.5986 9.70437C48.1908 10.8042 53.0693 13.5335 56.7085 17.5989C57.6748 18.6773 58.5503 19.849 59.3103 21.0815C62.8494 26.8116 63.9903 33.9778 62.5242 41.2604C61.0392 48.6363 56.9593 55.6502 51.0366 61.0097C47.6029 64.1174 43.7463 66.5275 39.5748 68.1725C35.5496 69.7601 31.4209 70.5655 27.3058 70.5655C27.305 70.5664 27.305 70.5664 27.305 70.5664ZM29.9428 15.9069C24.8101 15.9069 19.7236 17.9524 15.6189 21.6669C7.87152 28.6774 6.03139 39.8003 11.4302 46.9888C11.6913 47.3363 11.9686 47.6735 12.2536 47.991C15.2312 51.3169 19.5182 53.1493 24.3265 53.1493C29.4592 53.1493 34.5457 51.1038 38.6504 47.3893C46.8548 39.9655 48.3646 28.1561 42.0157 21.0652C41.5895 20.5902 41.1333 20.1409 40.6609 19.7318C37.774 17.2292 34.0681 15.9069 29.9428 15.9069Z" fill="white" fill-opacity="0.3"/>
<path d="M36.9139 9.58707C38.819 9.58707 40.7045 9.76766 42.5164 10.1246C48.0163 11.2055 52.8134 13.8895 56.3901 17.8848C57.3393 18.9443 58.1994 20.0955 58.9466 21.3065C62.4283 26.9433 63.5495 34 62.1048 41.1765C61.3859 44.7446 60.067 48.2186 58.1849 51.5C56.2335 54.9021 53.7318 57.9953 50.7508 60.693C47.3547 63.7656 43.5426 66.1483 39.419 67.7753C35.4435 69.3433 31.3687 70.1384 27.3067 70.1384C21.4833 70.1384 16.0965 68.4797 11.7264 65.3404C10.3116 64.3244 9.00042 63.1468 7.83045 61.8407C6.13239 59.9432 4.74673 57.7941 3.71284 55.4525C2.7089 53.1793 2.03704 50.7289 1.71694 48.1698C0.845664 41.2176 2.58737 33.786 6.61682 27.2463L6.72038 27.0786C8.65807 24.1977 8.66578 24.1866 9.77841 22.8557C12.1329 20.2299 12.1415 20.2213 13.4458 19.0402C14.3916 18.2434 15.9219 16.9964 17.1552 16.078C18.4869 15.2127 20.0994 14.2293 21.2754 13.5669C26.2351 10.9633 31.6425 9.58707 36.9139 9.58707ZM24.3265 53.5772C29.5653 53.5772 34.7545 51.4923 38.9372 47.7068C47.3153 40.1255 48.8396 28.0465 42.3341 20.7793C41.8959 20.2906 41.4277 19.8293 40.9416 19.4082C38.0188 16.874 34.1135 15.4789 29.9428 15.4789C24.7031 15.4789 19.514 17.5638 15.3313 21.3493C7.42134 28.507 5.55725 39.8816 11.0879 47.2455C11.3566 47.6033 11.6416 47.9499 11.9335 48.276C14.9941 51.6943 19.395 53.5772 24.3265 53.5772ZM36.9139 8.7312C31.5792 8.7312 26.04 10.0972 20.8662 12.8154C19.5799 13.5395 17.9032 14.5708 16.6665 15.3762C15.5008 16.2423 13.9927 17.4603 12.8827 18.3966C11.5321 19.6188 11.5321 19.6188 9.13137 22.2959C7.97851 23.6747 7.97851 23.6747 6.00144 26.6147L5.88932 26.7953C1.71865 33.5644 -0.0179117 41.2082 0.866205 48.276C1.52009 53.4968 3.60329 58.4027 7.19111 62.4116C8.421 63.7852 9.77328 64.9937 11.2257 66.0362C15.8354 69.3476 21.4474 70.9951 27.305 70.9951C35.5205 70.9951 44.2205 67.7556 51.3233 61.328C63.79 50.0459 67.0586 32.8138 59.6741 20.8572C58.9072 19.6145 58.0257 18.4291 57.0269 17.3139C53.1986 13.0362 48.1789 10.3651 42.6807 9.2841C40.8047 8.91521 38.873 8.7312 36.9139 8.7312ZM24.3265 52.7214C19.8255 52.7214 15.5735 51.0576 12.5728 47.7051C12.2904 47.3901 12.0242 47.0649 11.7735 46.7311C6.52096 39.7378 8.23014 28.9298 15.9065 21.9835C20.0566 18.228 25.1422 16.3348 29.9436 16.3339C33.8216 16.3339 37.5138 17.5681 40.381 20.0544C40.8423 20.4541 41.2814 20.8863 41.6973 21.3502C47.899 28.2776 46.4064 39.7943 38.3637 47.0718C34.2127 50.8282 29.1271 52.7214 24.3265 52.7214Z" fill="white"/>
</g>
<defs>
<linearGradient id="paint0_linear_1666_546" x1="1.15336" y1="66.9853" x2="24.0282" y2="66.9853" gradientUnits="userSpaceOnUse">
<stop stop-color="#C301FB"/>
<stop offset="0.4799" stop-color="#FC517F"/>
<stop offset="1" stop-color="#FDB599"/>
</linearGradient>
<linearGradient id="paint1_linear_1666_546" x1="1.1521" y1="56.1895" x2="7.68998" y2="56.3782" gradientUnits="userSpaceOnUse">
<stop stop-color="#9F01FF"/>
<stop offset="1" stop-color="#017CFF"/>
</linearGradient>
<linearGradient id="paint2_linear_1666_546" x1="42.6808" y1="18.7388" x2="70.5121" y2="18.7388" gradientUnits="userSpaceOnUse">
<stop stop-color="#C301FB"/>
<stop offset="0.4799" stop-color="#FC517F"/>
<stop offset="1" stop-color="#FDB599"/>
</linearGradient>
<linearGradient id="paint3_linear_1666_546" x1="42.6807" y1="12.153" x2="50.6151" y2="12.6099" gradientUnits="userSpaceOnUse">
<stop stop-color="#9F01FF"/>
<stop offset="1" stop-color="#017CFF"/>
</linearGradient>
<linearGradient id="paint4_linear_1666_546" x1="4.13324" y1="52.1281" x2="77.5295" y2="52.1281" gradientUnits="userSpaceOnUse">
<stop stop-color="#C301FB"/>
<stop offset="0.4799" stop-color="#FC517F"/>
<stop offset="1" stop-color="#FDB599"/>
</linearGradient>
<linearGradient id="paint5_linear_1666_546" x1="4.13306" y1="28.6902" x2="21.245" y2="119.658" gradientUnits="userSpaceOnUse">
<stop stop-color="#9F01FF"/>
<stop offset="1" stop-color="#017CFF"/>
</linearGradient>
<linearGradient id="paint6_linear_1666_546" x1="0.437183" y1="37.9785" x2="60.6909" y2="37.9785" gradientUnits="userSpaceOnUse">
<stop stop-color="#C301FB"/>
<stop offset="0.4799" stop-color="#FC517F"/>
<stop offset="1" stop-color="#FDB599"/>
</linearGradient>
<linearGradient id="paint7_linear_1666_546" x1="0.437501" y1="17.6887" x2="17.6443" y2="18.385" gradientUnits="userSpaceOnUse">
<stop stop-color="#9F01FF"/>
<stop offset="1" stop-color="#017CFF"/>
</linearGradient>
<linearGradient id="paint8_linear_1666_546" x1="11.1122" y1="20.1052" x2="53.1064" y2="59.6201" gradientUnits="userSpaceOnUse">
<stop stop-color="#C301FB"/>
<stop offset="0.4799" stop-color="#FC517F"/>
<stop offset="1" stop-color="#FDB599"/>
</linearGradient>
<linearGradient id="paint9_linear_1666_546" x1="0.641847" y1="18.1782" x2="18.6152" y2="18.8891" gradientUnits="userSpaceOnUse">
<stop stop-color="#9F01FF"/>
<stop offset="1" stop-color="#017CFF"/>
</linearGradient>
<linearGradient id="paint10_linear_1666_546" x1="11.4239" y1="20.3984" x2="52.7934" y2="59.3253" gradientUnits="userSpaceOnUse">
<stop stop-color="#C301FB"/>
<stop offset="0.4799" stop-color="#FC517F"/>
<stop offset="1" stop-color="#FDB599"/>
</linearGradient>
<linearGradient id="paint11_linear_1666_546" x1="32" y1="9" x2="36.5" y2="71" gradientUnits="userSpaceOnUse">
<stop stop-color="#9F01FF"/>
<stop offset="1" stop-color="#017CFF"/>
</linearGradient>
<clipPath id="clip0_1666_546">
<rect width="334" height="79" fill="white" transform="translate(94 7)"/>
</clipPath>
<clipPath id="clip1_1666_546">
<rect width="78" height="78.1583" fill="white" transform="translate(0 8.08936)"/>
</clipPath>
</defs>
</svg>
