<svg width="111" height="114" viewBox="0 0 111 114" fill="none" xmlns="http://www.w3.org/2000/svg">
<path d="M40.9476 18.7349C36.6965 28.178 34.0371 41.7331 34.0371 56.7775C34.0371 75.8848 38.329 92.5739 44.6995 101.514C45.8165 103.093 46.9989 104.431 48.2468 105.495C49.3269 106.42 50.4562 107.152 51.6141 107.639C52.1132 107.856 52.6288 108.036 53.1443 108.167C53.1566 108.179 53.1688 108.179 53.1811 108.179C53.9012 108.359 54.6336 108.449 55.366 108.449C56.1229 108.449 56.8676 108.359 57.6163 108.167C59.2979 107.741 60.9304 106.829 62.4729 105.507C62.9475 105.094 63.3976 104.672 63.8476 104.198C56.0861 112.729 46.5938 112.639 44.9204 112.549H44.9081C44.8427 112.536 44.7649 112.524 44.7036 112.512C40.1702 111.599 35.8496 110.135 31.7908 108.171C30.1215 107.361 28.5013 106.477 26.9342 105.511C10.8056 95.5812 0 77.4641 0 56.7775C0 36.1319 10.7688 18.0271 26.8647 8.09704C28.4726 7.1069 30.1297 6.19451 31.8481 5.37212C35.8823 3.42048 40.1866 1.95571 44.6954 1.05559C48.1404 0.360033 51.7123 0 55.3578 0C59.0074 0 62.5793 0.360045 66.0366 1.06787C66.0366 1.06787 55.7588 0.0531835 47.2771 8.94398C47.1216 9.09946 46.9702 9.25083 46.827 9.41858C46.0824 10.2041 45.3746 11.0756 44.6954 12.0412C44.5031 12.3235 44.2985 12.6059 44.1062 12.9004C43.9139 13.195 43.7216 13.4896 43.5293 13.8006C43.337 14.1238 43.1447 14.4307 42.9647 14.7498C42.7601 15.073 42.5801 15.4044 42.4123 15.7399C42.0646 16.3946 41.7168 17.0779 41.3854 17.7693C41.2299 18.0925 41.0867 18.4117 40.9476 18.7349Z" fill="white"/>
<path d="M110.74 56.7774C110.74 77.4353 99.9591 95.5278 83.8632 105.458C82.2716 106.46 80.6145 107.36 78.9166 108.171C78.9043 108.183 78.9043 108.183 78.892 108.183C74.8578 110.147 70.5536 111.599 66.0447 112.499C62.5874 113.207 59.0156 113.567 55.366 113.567C51.7941 113.567 48.3 113.219 44.9204 112.553C46.5897 112.643 56.0861 112.733 63.8476 104.202C64.0031 104.046 64.1545 103.879 64.2977 103.715C64.4122 103.588 64.5145 103.457 64.6332 103.33C65.1201 102.778 65.5824 102.172 66.0447 101.53C66.3025 101.17 66.5439 100.81 66.7894 100.425C66.8262 100.372 66.8549 100.311 66.8917 100.258C67.0963 99.9344 67.3172 99.603 67.5095 99.2675C68.0618 98.3428 68.6019 97.3649 69.1011 96.3134C73.7531 86.8457 76.7072 72.636 76.7072 56.7774C76.7072 37.6579 72.4152 20.9565 66.0447 12.0288C64.9278 10.4741 63.7576 9.15253 62.5383 8.09693C61.4582 7.15998 60.3167 6.4276 59.1588 5.92435C58.631 5.69113 58.0909 5.49884 57.5508 5.37201C56.8307 5.19198 56.0984 5.10196 55.366 5.10196C54.6336 5.10196 53.9258 5.19198 53.2057 5.37201C53.1934 5.35973 53.1934 5.37201 53.1811 5.37201C51.4463 5.79752 49.777 6.73447 48.1977 8.10921C47.8908 8.37925 47.5921 8.64928 47.2853 8.94387C55.7669 0.0530694 66.0447 1.06776 66.0447 1.06776C70.5413 1.95561 74.8333 3.42037 78.8675 5.37201C78.8797 5.35973 78.8797 5.37201 78.892 5.37201C80.6268 6.20667 82.3084 7.13135 83.9286 8.13376C99.9836 18.0802 110.74 36.1563 110.74 56.7774Z" fill="white"/>
<path d="M40.9476 18.7349C36.6965 28.178 34.0371 41.7331 34.0371 56.7775C34.0371 75.8848 38.329 92.5739 44.6995 101.514C45.8165 103.093 46.9989 104.431 48.2468 105.495C49.3269 106.42 50.4562 107.152 51.6141 107.639C52.1132 107.856 52.6288 108.036 53.1443 108.167C53.1566 108.179 53.1688 108.179 53.1811 108.179C53.9012 108.359 54.6336 108.449 55.366 108.449C56.1229 108.449 56.8676 108.359 57.6163 108.167C59.2979 107.741 60.9304 106.829 62.4729 105.507C62.9475 105.094 63.3976 104.672 63.8476 104.198C56.0861 112.729 46.5938 112.639 44.9204 112.549H44.9081C44.8427 112.536 44.7649 112.524 44.7036 112.512C40.1702 111.599 35.8496 110.135 31.7908 108.171C30.1215 107.361 28.5013 106.477 26.9342 105.511C10.8056 95.5812 0 77.4641 0 56.7775C0 36.1319 10.7688 18.0271 26.8647 8.09704C28.4726 7.1069 30.1297 6.19451 31.8481 5.37212C35.8823 3.42048 40.1866 1.95571 44.6954 1.05559C48.1404 0.360033 51.7123 0 55.3578 0C59.0074 0 62.5793 0.360045 66.0366 1.06787C66.0366 1.06787 55.7588 0.0531835 47.2771 8.94398C47.1216 9.09946 46.9702 9.25083 46.827 9.41858C46.0824 10.2041 45.3746 11.0756 44.6954 12.0412C44.5031 12.3235 44.2985 12.6059 44.1062 12.9004C43.9139 13.195 43.7216 13.4896 43.5293 13.8006C43.337 14.1238 43.1447 14.4307 42.9647 14.7498C42.7601 15.073 42.5801 15.4044 42.4123 15.7399C42.0646 16.3946 41.7168 17.0779 41.3854 17.7693C41.2299 18.0925 41.0867 18.4117 40.9476 18.7349Z" fill="white"/>
<path d="M110.74 56.7774C110.74 77.4353 99.9591 95.5278 83.8632 105.458C82.2716 106.46 80.6145 107.36 78.9166 108.171C78.9043 108.183 78.9043 108.183 78.892 108.183C74.8578 110.147 70.5536 111.599 66.0447 112.499C62.5874 113.207 59.0156 113.567 55.366 113.567C51.7941 113.567 48.3 113.219 44.9204 112.553C46.5897 112.643 56.0861 112.733 63.8476 104.202C64.0031 104.046 64.1545 103.879 64.2977 103.715C64.4122 103.588 64.5145 103.457 64.6332 103.33C65.1201 102.778 65.5824 102.172 66.0447 101.53C66.3025 101.17 66.5439 100.81 66.7894 100.425C66.8262 100.372 66.8549 100.311 66.8917 100.258C67.0963 99.9344 67.3172 99.603 67.5095 99.2675C68.0618 98.3428 68.6019 97.3649 69.1011 96.3134C73.7531 86.8457 76.7072 72.636 76.7072 56.7774C76.7072 37.6579 72.4152 20.9565 66.0447 12.0288C64.9278 10.4741 63.7576 9.15253 62.5383 8.09693C61.4582 7.15998 60.3167 6.4276 59.1588 5.92435C58.631 5.69113 58.0909 5.49884 57.5508 5.37201C56.8307 5.19198 56.0984 5.10196 55.366 5.10196C54.6336 5.10196 53.9258 5.19198 53.2057 5.37201C53.1934 5.35973 53.1934 5.37201 53.1811 5.37201C51.4463 5.79752 49.777 6.73447 48.1977 8.10921C47.8908 8.37925 47.5921 8.64928 47.2853 8.94387C55.7669 0.0530694 66.0447 1.06776 66.0447 1.06776C70.5413 1.95561 74.8333 3.42037 78.8675 5.37201C78.8797 5.35973 78.8797 5.37201 78.892 5.37201C80.6268 6.20667 82.3084 7.13135 83.9286 8.13376C99.9836 18.0802 110.74 36.1563 110.74 56.7774Z" fill="white"/>
</svg>
