<svg width="175" height="107" viewBox="0 0 175 107" fill="none" xmlns="http://www.w3.org/2000/svg">
<g clip-path="url(#clip0_664_598)">
<path d="M145.566 42.0617V67.9273C145.566 70.7827 146.522 73.0747 149.668 72.6329C150.293 72.5449 150.856 73.0166 150.856 73.6486V73.6504C150.856 73.9937 150.687 74.3141 150.402 74.5042C148.655 75.6573 145.157 77.1554 139.075 77.1554C135.577 77.1554 132.329 75.8192 130.999 72.8512C130.727 72.2456 129.972 72.0291 129.448 72.434C127.124 74.2296 123.989 75.4055 119.991 75.4055C106.444 75.4055 99.9732 68.7107 101.491 60.5812C103.596 49.2952 119.723 52.6382 130.064 43.0123C130.268 42.8222 130.382 42.5546 130.386 42.2765C130.437 37.379 130.305 31.318 125.594 30.3673C122.1 29.6614 116.135 30.9377 117.317 39.0866C118.26 45.5896 102.878 47.2479 106.193 34.874C107.562 29.7618 117.711 27.1898 126.254 27.2444C134.743 27.2972 145.566 30.7441 145.566 42.0617ZM114.62 60.3857C112.727 68.0822 117.218 71.8741 123.411 71.8741C126.443 71.8741 128.682 69.8919 130.199 67.5594C130.307 67.3957 130.361 67.202 130.361 67.0066V48.5206C130.361 47.6686 129.39 47.1915 128.71 47.7056C122.468 52.4164 116.326 53.448 114.62 60.3857Z" fill="#2C2C2C"/>
<path d="M167.339 5C163.105 5 159.67 8.42751 159.67 12.6613C159.67 16.895 163.103 20.3296 167.339 20.3296C171.574 20.3296 175 16.8968 175 12.6613C175 8.42575 171.574 5 167.339 5Z" fill="#2C2C2C"/>
<path d="M175 26.8519V85.424C175 97.4705 167.84 107.609 153.662 107.397C147.884 107.309 144.468 105.783 140.781 103.111C137.651 100.842 135.618 96.4213 136.498 92.3723C138.665 82.4049 150.027 85.6652 148.265 93.124C146.747 99.5513 148.272 103.463 153.12 103.882C159.297 104.415 159.649 97.0216 159.655 88.6403C159.66 72.5484 159.677 48.6245 159.67 32.3003C159.67 31.5874 160.223 31.024 160.931 30.9571C160.931 30.9571 160.936 30.9571 160.941 30.9571C161.091 30.9518 161.234 30.9413 161.383 30.9237C165.635 30.4924 169.416 28.4697 172.118 25.4559V25.4506C172.118 25.4506 172.549 24.9858 173.136 24.9858C174.167 24.9894 175 25.8238 175 26.8519Z" fill="#2C2C2C"/>
<path d="M96.5213 41.6886C95.8224 49.0278 82.9714 49.2478 85.3656 40.5232C88.0291 30.8129 73.9089 29.0172 72.0552 39.6659C72.0499 39.6976 72.0464 39.7293 72.0464 39.761V74.8018C72.0464 75.0923 71.8122 75.3264 71.5218 75.3264H57.1921C56.9016 75.3264 56.6675 75.0923 56.6675 74.8018V32.2089C56.6675 31.5082 57.2273 30.9502 57.9262 30.9502C58.0758 30.9449 58.2184 30.9326 58.368 30.9167C59.0317 30.8498 59.6848 30.7424 60.3256 30.5999C60.3274 30.5999 60.3274 30.5999 60.3274 30.5999C63.7936 29.8288 66.8884 27.9909 69.1681 25.4436C69.1681 25.4436 69.2755 25.3292 69.4533 25.2148C69.6364 25.0968 69.8916 24.9789 70.1856 24.9789C71.2137 24.9789 72.0464 25.8116 72.0464 26.8396V32.8408C72.0464 33.3126 72.6185 33.5432 72.9459 33.2053C75.5161 30.5611 79.5915 28.3025 84.1051 28.5155C92.5392 28.9169 97.2289 34.2316 96.5213 41.6886Z" fill="#2C2C2C"/>
<path d="M47.647 51.4292C47.647 60.3175 43.0083 68.102 36.0829 72.3745C35.3981 72.8058 34.6852 73.1931 33.9546 73.5416C33.9493 73.5469 33.9493 73.5469 33.944 73.5469C32.2083 74.3919 30.3563 75.0168 28.4164 75.4041C26.9288 75.7087 25.392 75.8636 23.8217 75.8636C22.2849 75.8636 20.7815 75.714 19.3274 75.427C20.0456 75.4657 24.1315 75.5045 27.471 71.834C27.5379 71.7671 27.603 71.695 27.6647 71.6245C27.714 71.57 27.758 71.5136 27.809 71.4591C28.0185 71.2214 28.2174 70.9609 28.4164 70.6845C28.5273 70.5296 28.6311 70.3747 28.7368 70.2092C28.7526 70.1863 28.7649 70.1599 28.7808 70.137C28.8688 69.9979 28.9638 69.8553 29.0466 69.711C29.2842 69.3131 29.5166 68.8924 29.7314 68.44C31.733 64.3664 33.004 58.2525 33.004 51.4292C33.004 43.2028 31.1573 36.0169 28.4164 32.1757C27.9358 31.5067 27.4323 30.9381 26.9077 30.4839C26.4429 30.0808 25.9518 29.7657 25.4536 29.5491C25.2265 29.4488 24.9941 29.3661 24.7618 29.3115C24.4519 29.234 24.1368 29.1953 23.8217 29.1953C23.5066 29.1953 23.202 29.234 22.8922 29.3115C22.8869 29.3062 22.8869 29.3115 22.8816 29.3115C22.1352 29.4946 21.417 29.8977 20.7375 30.4892C20.6054 30.6054 20.4769 30.7216 20.3449 30.8483C23.9942 27.023 28.4164 27.4595 28.4164 27.4595C30.351 27.8415 32.1977 28.4718 33.9335 29.3115C33.9387 29.3062 33.9387 29.3115 33.944 29.3115C34.6904 29.6706 35.414 30.0685 36.1111 30.4998C43.0189 34.7793 47.647 42.5568 47.647 51.4292Z" fill="url(#paint0_linear_664_598)"/>
<path d="M17.6181 35.0609C15.7891 39.1239 14.6448 44.9561 14.6448 51.4291C14.6448 59.6502 16.4915 66.8309 19.2324 70.6774C19.713 71.3569 20.2218 71.9326 20.7587 72.392C21.2234 72.7899 21.7093 73.105 22.2075 73.3145C22.4223 73.4078 22.6441 73.4852 22.8659 73.5416C22.8712 73.5468 22.8764 73.5468 22.8817 73.5468C23.1916 73.6243 23.5067 73.663 23.8218 73.663C24.1475 73.663 24.4679 73.6243 24.79 73.5416C25.5135 73.3585 26.2159 72.9659 26.8796 72.3973C27.0838 72.2195 27.2775 72.0382 27.4711 71.834C24.1316 75.5044 20.0475 75.4657 19.3275 75.427H19.3222C19.294 75.4217 19.2606 75.4164 19.2342 75.4111C17.2836 75.0185 15.4247 74.3883 13.6783 73.5433C12.9601 73.1948 12.263 72.8145 11.5887 72.3991C4.64923 68.1248 0 60.3297 0 51.4291C0 42.5461 4.63338 34.7563 11.5588 30.4838C12.2507 30.0578 12.9636 29.6653 13.703 29.3114C15.4387 28.4717 17.2907 27.8415 19.2307 27.4542C20.7129 27.1549 22.2497 27 23.8183 27C25.3885 27 26.9254 27.1549 28.4129 27.4595C28.4129 27.4595 23.9908 27.0229 20.3415 30.8482C20.2746 30.9151 20.2094 30.9803 20.1478 31.0524C19.8274 31.3904 19.5229 31.7654 19.2307 32.1809C19.1479 32.3023 19.0599 32.4238 18.9772 32.5506C18.8944 32.6773 18.8117 32.8041 18.7289 32.9378C18.6462 33.0769 18.5635 33.2089 18.486 33.3463C18.398 33.4853 18.3205 33.6279 18.2483 33.7723C18.0987 34.0539 17.9491 34.3479 17.8065 34.6454C17.7396 34.7845 17.678 34.9218 17.6181 35.0609Z" fill="url(#paint1_linear_664_598)"/>
<path d="M17.6181 35.0609C15.7891 39.1239 14.6448 44.9561 14.6448 51.4291C14.6448 59.6502 16.4915 66.8309 19.2324 70.6774C19.713 71.3569 20.2218 71.9326 20.7587 72.392C21.2234 72.7899 21.7093 73.105 22.2075 73.3145C22.4223 73.4078 22.6441 73.4852 22.8659 73.5416C22.8712 73.5468 22.8764 73.5468 22.8817 73.5468C23.1916 73.6243 23.5067 73.663 23.8218 73.663C24.1475 73.663 24.4679 73.6243 24.79 73.5416C25.5135 73.3585 26.2159 72.9659 26.8796 72.3973C27.0838 72.2195 27.2775 72.0382 27.4711 71.834C24.1316 75.5044 20.0475 75.4657 19.3275 75.427H19.3222C19.294 75.4217 19.2606 75.4164 19.2342 75.4111C17.2836 75.0185 15.4247 74.3883 13.6783 73.5433C12.9601 73.1948 12.263 72.8145 11.5887 72.3991C4.64923 68.1248 0 60.3297 0 51.4291C0 42.5461 4.63338 34.7563 11.5588 30.4838C12.2507 30.0578 12.9636 29.6653 13.703 29.3114C15.4387 28.4717 17.2907 27.8415 19.2307 27.4542C20.7129 27.1549 22.2497 27 23.8183 27C25.3885 27 26.9254 27.1549 28.4129 27.4595C28.4129 27.4595 23.9908 27.0229 20.3415 30.8482C20.2746 30.9151 20.2094 30.9803 20.1478 31.0524C19.8274 31.3904 19.5229 31.7654 19.2307 32.1809C19.1479 32.3023 19.0599 32.4238 18.9772 32.5506C18.8944 32.6773 18.8117 32.8041 18.7289 32.9378C18.6462 33.0769 18.5635 33.2089 18.486 33.3463C18.398 33.4853 18.3205 33.6279 18.2483 33.7723C18.0987 34.0539 17.9491 34.3479 17.8065 34.6454C17.7396 34.7845 17.678 34.9218 17.6181 35.0609Z" fill="url(#paint2_linear_664_598)"/>
</g>
<defs>
<linearGradient id="paint0_linear_664_598" x1="23.5" y1="75.6499" x2="24" y2="27.6499" gradientUnits="userSpaceOnUse">
<stop stop-color="#BE01FF"/>
<stop offset="0.3742" stop-color="#AB01FF"/>
<stop offset="0.5209" stop-color="#A501FF"/>
<stop offset="0.6277" stop-color="#9100EA"/>
<stop offset="0.7152" stop-color="#8600D9"/>
<stop offset="0.7908" stop-color="#7800C2"/>
<stop offset="0.8583" stop-color="#6700A6"/>
<stop offset="0.9196" stop-color="#520085"/>
<stop offset="0.9745" stop-color="#3B0060"/>
<stop offset="1" stop-color="#2F004C"/>
</linearGradient>
<linearGradient id="paint1_linear_664_598" x1="24.5" y1="26.6499" x2="24.503" y2="75.6499" gradientUnits="userSpaceOnUse">
<stop stop-color="#BE01FF"/>
<stop offset="0.3742" stop-color="#AB01FF"/>
<stop offset="0.5209" stop-color="#A501FF"/>
<stop offset="0.6277" stop-color="#9100EA"/>
<stop offset="0.7152" stop-color="#8600D9"/>
<stop offset="0.7908" stop-color="#7800C2"/>
<stop offset="0.8583" stop-color="#6700A6"/>
<stop offset="0.9196" stop-color="#520085"/>
<stop offset="0.9745" stop-color="#3B0060"/>
<stop offset="1" stop-color="#2F004C"/>
</linearGradient>
<linearGradient id="paint2_linear_664_598" x1="24.5" y1="26.6499" x2="24.503" y2="75.6499" gradientUnits="userSpaceOnUse">
<stop stop-color="#BE01FF"/>
<stop offset="0.3742" stop-color="#AB01FF"/>
<stop offset="0.5209" stop-color="#A501FF"/>
<stop offset="0.6277" stop-color="#9100EA"/>
<stop offset="0.7152" stop-color="#8600D9"/>
<stop offset="0.7908" stop-color="#7800C2"/>
<stop offset="0.8583" stop-color="#6700A6"/>
<stop offset="0.9196" stop-color="#520085"/>
<stop offset="0.9745" stop-color="#3B0060"/>
<stop offset="1" stop-color="#2F004C"/>
</linearGradient>
<clipPath id="clip0_664_598">
<rect width="175" height="107" fill="white"/>
</clipPath>
</defs>
</svg>
