<svg width="116" height="116" viewBox="0 0 116 116" fill="none" xmlns="http://www.w3.org/2000/svg">
<path d="M36.3367 110.147C35.5976 109.831 34.7159 109.446 33.6022 108.961L33.5568 108.94C31.5652 107.949 30.5334 107.417 29.127 106.538L29.0842 106.51C28.0688 105.872 26.8567 105.057 24.8474 103.706L24.7919 103.668C22.8003 102.167 21.872 101.432 20.6397 100.297C19.6849 99.415 18.5383 98.2811 16.804 96.5657C16.6287 96.3765 16.4269 96.1583 16.2301 95.9376C13.2181 92.503 12.8133 91.8888 9.65872 87.1033L9.6562 87.0996C8.6812 85.3854 7.5662 83.1832 6.80059 81.6356C6.80059 81.6356 6.77789 81.5901 6.77032 81.575C6.60761 81.2445 6.45121 80.9242 6.30363 80.6202C4.10265 75.5863 2.87035 70.1702 2.62439 64.4653C4.13544 70.6331 7.05285 76.2334 11.1937 80.8599C12.9659 82.8401 14.9487 84.6286 17.0878 86.1763C18.8221 92.0275 21.7295 97.2582 25.7278 101.726C25.9057 101.924 26.0835 102.119 26.2651 102.312C29.2078 105.471 32.5919 108.097 36.3367 110.147Z" fill="url(#paint0_linear_1742_831)"/>
<path d="M3.45179 68.7147C5.12555 73.3235 7.62546 77.5338 10.8658 81.155C12.6253 83.1214 14.5904 84.8998 16.7082 86.4462C18.4664 92.3025 21.3901 97.5407 25.3998 102.021C25.5777 102.219 25.7606 102.419 25.9422 102.614C27.4053 104.185 28.9782 105.627 30.6494 106.932C30.242 106.702 29.8397 106.462 29.4032 106.189L29.3187 106.137C28.3097 105.503 27.1026 104.691 25.1022 103.347L25.0479 103.31C23.0765 101.824 22.1558 101.094 20.9399 99.9738C19.9901 99.0971 18.8486 97.9683 17.1219 96.2592C16.9503 96.075 16.7536 95.8619 16.5631 95.6475C13.5725 92.2369 13.1677 91.6226 10.0333 86.8687C9.06588 85.166 7.95719 82.9789 7.19536 81.435L7.19031 81.4249C7.18274 81.4085 7.17391 81.3921 7.16508 81.3757C7.0049 81.0503 6.85102 80.735 6.70597 80.4361C5.32862 77.2828 4.32209 73.9151 3.71666 70.425C3.61828 69.8574 3.52999 69.2873 3.45179 68.7147ZM2.20309 59.7329C1.83857 67.075 3.04817 74.2771 5.90377 80.8044C6.05387 81.1134 6.2128 81.4388 6.37803 81.7743C6.38812 81.7932 6.39695 81.8121 6.40578 81.8298C7.29626 83.631 8.36964 85.7285 9.2803 87.3291C12.4563 92.1473 12.8637 92.7666 15.9009 96.2302C16.0939 96.4471 16.2907 96.6603 16.4874 96.8722C18.2848 98.6506 19.3922 99.7455 20.3407 100.621C21.6046 101.785 22.5833 102.557 24.5358 104.028C26.5703 105.396 27.8165 106.235 28.8495 106.883C28.8521 106.886 28.8546 106.887 28.8571 106.888C30.2672 107.772 31.2813 108.301 33.3701 109.34C35.4929 110.266 36.8109 110.841 37.8805 111.273C37.883 111.274 37.8868 111.275 37.8906 111.276C39.4029 111.886 40.4221 112.206 42.5322 112.828C44.6651 113.349 46.0008 113.675 47.0515 113.906C48.642 114.253 49.5842 114.382 51.6578 114.634C51.9328 114.655 52.2267 114.681 52.5319 114.706C42.623 113.603 33.4558 109.386 26.5893 102.011C26.4102 101.819 26.2336 101.626 26.0583 101.431C21.9804 96.8747 19.1324 91.586 17.47 85.9064C15.3295 84.3701 13.3367 82.5891 11.5242 80.5647C6.23676 74.6567 3.16673 67.4269 2.20309 59.7329Z" fill="#0E0E0E"/>
<g opacity="0.25">
<path d="M36.3367 110.147C35.5976 109.831 34.7159 109.446 33.6022 108.961L33.5568 108.94C31.5652 107.949 30.5334 107.417 29.127 106.538L29.0842 106.51C28.0688 105.872 26.8567 105.057 24.8474 103.706L24.7919 103.668C22.8003 102.167 21.872 101.432 20.6397 100.297C19.6849 99.415 18.5383 98.2811 16.804 96.5657C16.6287 96.3765 16.4269 96.1583 16.2301 95.9376C13.2181 92.503 12.8133 91.8888 9.65872 87.1033L9.6562 87.0996C8.6812 85.3854 7.5662 83.1832 6.80059 81.6356C6.80059 81.6356 6.77789 81.5901 6.77032 81.575C6.60761 81.2445 6.45121 80.9242 6.30363 80.6202C4.10265 75.5863 2.87035 70.1702 2.62439 64.4653C4.13544 70.6331 7.05285 76.2334 11.1937 80.8599C12.9659 82.8401 14.9487 84.6286 17.0878 86.1763C18.8221 92.0275 21.7295 97.2582 25.7278 101.726C25.9057 101.924 26.0835 102.119 26.2651 102.312C29.2078 105.471 32.5919 108.097 36.3367 110.147Z" fill="#0E0E0E"/>
<path d="M3.45179 68.7147C5.12555 73.3235 7.62546 77.5338 10.8658 81.155C12.6253 83.1214 14.5904 84.8998 16.7082 86.4462C18.4664 92.3025 21.3901 97.5407 25.3998 102.021C25.5777 102.219 25.7606 102.419 25.9422 102.614C27.4053 104.185 28.9782 105.627 30.6494 106.932C30.242 106.702 29.8397 106.462 29.4032 106.189L29.3187 106.137C28.3097 105.503 27.1026 104.691 25.1022 103.347L25.0479 103.31C23.0765 101.824 22.1558 101.094 20.9399 99.9738C19.9901 99.0971 18.8486 97.9683 17.1219 96.2592C16.9503 96.075 16.7536 95.8619 16.5631 95.6475C13.5725 92.2369 13.1677 91.6226 10.0333 86.8687C9.06588 85.166 7.95719 82.9789 7.19536 81.435L7.19031 81.4249C7.18274 81.4085 7.17391 81.3921 7.16508 81.3757C7.0049 81.0503 6.85102 80.735 6.70597 80.4361C5.32862 77.2828 4.32209 73.9151 3.71666 70.425C3.61828 69.8574 3.52999 69.2873 3.45179 68.7147ZM2.20309 59.7329C1.83857 67.075 3.04817 74.2771 5.90377 80.8044C6.05387 81.1134 6.2128 81.4388 6.37803 81.7743C6.38812 81.7932 6.39695 81.8121 6.40578 81.8298C7.29626 83.631 8.36964 85.7285 9.2803 87.3291C12.4563 92.1473 12.8637 92.7666 15.9009 96.2302C16.0939 96.4471 16.2907 96.6603 16.4874 96.8722C18.2848 98.6506 19.3922 99.7455 20.3407 100.621C21.6046 101.785 22.5833 102.557 24.5358 104.028C26.5703 105.396 27.8165 106.235 28.8495 106.883C28.8521 106.886 28.8546 106.887 28.8571 106.888C30.2672 107.772 31.2813 108.301 33.3701 109.34C35.4929 110.266 36.8109 110.841 37.8805 111.273C37.883 111.274 37.8868 111.275 37.8906 111.276C39.4029 111.886 40.4221 112.206 42.5322 112.828C44.6651 113.349 46.0008 113.675 47.0515 113.906C48.642 114.253 49.5842 114.382 51.6578 114.634C51.9328 114.655 52.2267 114.681 52.5319 114.706C42.623 113.603 33.4558 109.386 26.5893 102.011C26.4102 101.819 26.2336 101.626 26.0583 101.431C21.9804 96.8747 19.1324 91.586 17.47 85.9064C15.3295 84.3701 13.3367 82.5891 11.5242 80.5647C6.23676 74.6567 3.16673 67.4269 2.20309 59.7329Z" fill="#0E0E0E"/>
</g>
<path d="M104.841 30.1376C104.686 29.9648 104.531 29.7933 104.372 29.6243C100.005 24.9133 94.7026 21.4838 88.869 19.3257C87.7389 17.4942 86.4397 15.7473 84.9678 14.1038C79.3259 7.80107 71.9283 3.86452 63.8257 2.27148C71.1993 2.42032 78.3118 4.13949 84.6184 7.44538C86.8269 8.70291 89.6977 10.5104 91.8066 11.9293C94.3153 13.8188 95.2172 14.5554 97.181 16.4549C97.1836 16.4574 97.1861 16.4587 97.1886 16.4625C97.8975 17.1486 98.7451 17.9861 99.855 19.0848C100.052 19.2967 100.247 19.5098 100.442 19.7268C100.464 19.752 100.488 19.7772 100.512 19.8037C103.036 22.5458 104.447 26.0737 104.841 30.1376Z" fill="url(#paint1_linear_1742_831)" stroke="#0E0E0E" stroke-width="1.51357" stroke-miterlimit="10"/>
<path opacity="0.25" d="M104.841 30.1376C104.686 29.9648 104.531 29.7933 104.372 29.6243C100.005 24.9133 94.7026 21.4838 88.869 19.3257C87.7389 17.4942 86.4397 15.7473 84.9678 14.1038C79.3259 7.80107 71.9283 3.86452 63.8257 2.27148C71.1993 2.42032 78.3118 4.13949 84.6184 7.44538C86.8269 8.70291 89.6977 10.5104 91.8066 11.9293C94.3153 13.8188 95.2172 14.5554 97.181 16.4549C97.1836 16.4574 97.1861 16.4587 97.1886 16.4625C97.8975 17.1486 98.7451 17.9861 99.855 19.0848C100.052 19.2967 100.247 19.5098 100.442 19.7268C100.464 19.752 100.488 19.7772 100.512 19.8037C103.036 22.5458 104.447 26.0737 104.841 30.1376Z" fill="#0E0E0E" stroke="#0E0E0E" stroke-width="1.51357" stroke-miterlimit="10"/>
<path d="M115.183 56.5131L115.162 60.0057C114.649 74.0428 108.021 88.6816 95.8252 99.718C84.1278 110.304 69.6883 115.419 56.2314 114.974C55.549 114.926 54.7519 114.879 53.9535 114.827C53.9509 114.826 53.9472 114.826 53.9421 114.826C53.6255 114.805 53.3089 114.782 52.9986 114.758H52.9974C52.5257 114.721 52.0703 114.681 51.6579 114.636C49.4846 114.306 48.1275 114.099 47.0516 113.908C45.4926 113.63 44.5264 113.382 42.5323 112.829C40.3502 112.118 38.9893 111.673 37.8907 111.278C37.8869 111.277 37.8831 111.275 37.8806 111.274C36.3708 110.731 35.3529 110.276 33.3701 109.342C31.2398 108.207 29.9242 107.505 28.8572 106.89C28.8546 106.889 28.8521 106.887 28.8496 106.885C27.4218 106.061 26.438 105.389 24.5359 104.029C22.5557 102.453 21.341 101.484 20.3408 100.622C19.0795 99.5364 18.1613 98.6207 16.4875 96.8738C16.2907 96.6619 16.094 96.4487 15.901 96.2318C12.0376 91.8878 11.0702 90.2696 9.28037 87.3307L7.01758 82.9994C8.50845 85.7654 10.7523 89.3841 13.0883 91.995C16.9504 96.31 21.5378 99.6474 26.5893 102.012C44.7358 110.51 68.8647 106.467 86.8611 90.1838C105.164 73.619 111.238 49.1143 104.372 29.6258C102.609 24.6209 99.9926 19.9465 96.5101 15.8232C96.7396 16.0402 96.9629 16.2496 97.1811 16.4564C97.1836 16.4589 97.1861 16.4602 97.1887 16.464C98.397 17.603 99.4515 18.607 100.442 19.7283C100.464 19.7535 100.488 19.7787 100.512 19.8052C102.018 21.4462 104.699 24.8441 107.062 28.6293C109.861 33.7238 110.089 34.14 111.555 37.8962C113.36 43.3135 113.468 43.6377 114.2 47.3043C115.024 52.7443 115.073 53.0697 115.183 56.5131Z" fill="url(#paint2_linear_1742_831)" stroke="#0E0E0E" stroke-width="1.38744" stroke-miterlimit="10"/>
<path d="M17.103 86.4199C14.9058 84.8433 12.8713 83.0144 11.055 80.9862C5.86347 75.1854 2.58658 67.8635 1.57753 59.8126L1.57123 59.7584L1.57375 59.7029C2.34063 44.3376 9.85804 29.1211 22.2 17.9535C28.06 12.6497 34.6441 8.53653 41.7679 5.72507C48.6547 3.00821 55.7218 1.63086 62.7713 1.63086C63.1257 1.63086 63.4852 1.63464 63.8396 1.64221L63.8951 1.64347L63.9493 1.65356C72.4619 3.32732 79.8923 7.48712 85.4396 13.6839C86.9128 15.3287 88.2485 17.116 89.4076 18.9953L90.3688 20.553L88.6521 19.9173C83.7797 18.1137 78.5288 17.2005 73.0472 17.2005C68.9252 17.2005 64.7339 17.7239 60.5905 18.7569C51.4737 21.0273 42.7972 25.7168 35.5005 32.3198C27.722 39.3592 21.9742 48.119 18.8789 57.6545C15.7761 67.2127 15.4986 76.921 18.078 85.7313L18.5926 87.4883L17.103 86.4199Z" fill="url(#paint3_linear_1742_831)"/>
<path d="M62.77 2.26131C63.1219 2.26131 63.4738 2.26509 63.8257 2.2714C71.9284 3.86444 79.326 7.80098 84.9678 14.1038C86.4398 15.7472 87.7389 17.4942 88.869 19.3256C83.8982 17.4866 78.5389 16.5696 73.0446 16.5684C68.8836 16.5684 64.6456 17.0943 60.4353 18.1437C51.504 20.3674 42.7063 24.9447 35.0742 31.8504C26.9501 39.2026 21.2969 48.1528 18.276 57.4575C15.1732 67.0145 14.8465 76.946 17.47 85.9064C15.3296 84.3701 13.3367 82.5891 11.5242 80.5647C6.23681 74.6567 3.16678 67.4269 2.20314 59.7329C2.93344 45.0992 9.92236 29.9118 22.6225 18.42C34.4952 7.67612 49.0381 2.26131 62.77 2.26131ZM62.77 1C55.6411 1 48.497 2.39249 41.5358 5.13836C34.3401 7.97631 27.693 12.1311 21.7762 17.4853C15.4469 23.2117 10.4054 29.8954 6.78927 37.3484C5.05497 40.9243 3.67762 44.6439 2.69505 48.4026C1.7188 52.1386 1.12977 55.9301 0.943095 59.6711L0.938049 59.7808L0.951924 59.8906C1.97611 68.0702 5.30723 75.5106 10.5846 81.4073C12.4311 83.4695 14.5009 85.3287 16.7347 86.9318L19.7101 89.0672L18.6809 85.5532C16.1368 76.8653 16.4118 67.2856 19.4755 57.8485C22.5367 48.419 28.224 39.7525 35.9205 32.7875C43.1415 26.254 51.7235 21.6149 60.7406 19.3697C64.8348 18.3493 68.9744 17.8322 73.0459 17.8322C78.4531 17.8322 83.6308 18.734 88.4326 20.5099L91.8672 21.7801L89.9449 18.6646C88.7656 16.7538 87.4084 14.9362 85.91 13.2637C80.2682 6.96348 72.7167 2.7343 64.0692 1.03406L63.9619 1.01261L63.8522 1.01009C63.494 1.00378 63.1295 1 62.77 1Z" fill="#0E0E0E"/>
<g opacity="0.2">
<path d="M17.103 86.4199C14.9058 84.8433 12.8713 83.0144 11.055 80.9862C5.86347 75.1854 2.58658 67.8635 1.57753 59.8126L1.57123 59.7584L1.57375 59.7029C2.34063 44.3376 9.85804 29.1211 22.2 17.9535C28.06 12.6497 34.6441 8.53653 41.7679 5.72507C48.6547 3.00821 55.7218 1.63086 62.7713 1.63086C63.1257 1.63086 63.4852 1.63464 63.8396 1.64221L63.8951 1.64347L63.9493 1.65356C72.4619 3.32732 79.8923 7.48712 85.4396 13.6839C86.9128 15.3287 88.2485 17.116 89.4076 18.9953L90.3688 20.553L88.6521 19.9173C83.7797 18.1137 78.5288 17.2005 73.0472 17.2005C68.9252 17.2005 64.7339 17.7239 60.5905 18.7569C51.4737 21.0273 42.7972 25.7168 35.5005 32.3198C27.722 39.3592 21.9742 48.119 18.8789 57.6545C15.7761 67.2127 15.4986 76.921 18.078 85.7313L18.5926 87.4883L17.103 86.4199Z" fill="#0E0E0E"/>
<path d="M62.77 2.26131C63.1219 2.26131 63.4738 2.26509 63.8257 2.2714C71.9284 3.86444 79.326 7.80098 84.9678 14.1038C86.4398 15.7472 87.7389 17.4942 88.869 19.3256C83.8982 17.4866 78.5389 16.5696 73.0446 16.5684C68.8836 16.5684 64.6456 17.0943 60.4353 18.1437C51.504 20.3674 42.7063 24.9447 35.0742 31.8504C26.9501 39.2026 21.2969 48.1528 18.276 57.4575C15.1732 67.0145 14.8465 76.946 17.47 85.9064C15.3296 84.3701 13.3367 82.5891 11.5242 80.5647C6.23681 74.6567 3.16678 67.4269 2.20314 59.7329C2.93344 45.0992 9.92236 29.9118 22.6225 18.42C34.4952 7.67612 49.0381 2.26131 62.77 2.26131ZM62.77 1C55.6411 1 48.497 2.39249 41.5358 5.13836C34.3401 7.97631 27.693 12.1311 21.7762 17.4853C15.4469 23.2117 10.4054 29.8954 6.78927 37.3484C5.05497 40.9243 3.67762 44.6439 2.69505 48.4026C1.7188 52.1386 1.12977 55.9301 0.943095 59.6711L0.938049 59.7808L0.951924 59.8906C1.97611 68.0702 5.30723 75.5106 10.5846 81.4073C12.4311 83.4695 14.5009 85.3287 16.7347 86.9318L19.7101 89.0672L18.6809 85.5532C16.1368 76.8653 16.4118 67.2856 19.4755 57.8485C22.5367 48.419 28.224 39.7525 35.9205 32.7875C43.1415 26.254 51.7235 21.6149 60.7406 19.3697C64.8348 18.3493 68.9744 17.8322 73.0459 17.8322C78.4531 17.8322 83.6308 18.734 88.4326 20.5099L91.8672 21.7801L89.9449 18.6646C88.7656 16.7538 87.4084 14.9362 85.91 13.2637C80.2682 6.96348 72.7167 2.7343 64.0692 1.03406L63.9619 1.01261L63.8522 1.01009C63.494 1.00378 63.1295 1 62.77 1Z" fill="#0E0E0E"/>
</g>
<path d="M84.9677 14.1051C72.1591 -0.20321 50.3082 -2.31212 31.6774 7.47565C29.7816 8.54272 27.3107 10.0626 25.4881 11.2495C23.7702 12.5259 21.5478 14.3208 19.9119 15.7007C17.9215 17.5018 17.9215 17.5018 14.3835 21.4472C12.6846 23.4792 12.6846 23.4792 9.77094 27.8118L9.6057 28.0779C-1.07886 45.4209 -0.924976 66.6589 11.5242 80.5661C27.1631 98.0365 56.2818 97.3213 76.5624 78.9692C96.843 60.6159 100.605 31.5755 84.9677 14.1051ZM57.4623 57.9609C45.6111 68.6858 28.5935 69.1045 19.454 58.8942C10.3146 48.6852 12.5143 31.713 24.3668 20.9881C36.2181 10.2631 53.2357 9.84439 62.3751 20.0547C71.5146 30.2637 69.3149 47.2359 57.4623 57.9609Z" fill="url(#paint4_linear_1742_831)" stroke="#0E0E0E" stroke-width="1.89197" stroke-miterlimit="10"/>
<path d="M41.1663 92.5834C32.4519 92.5834 24.3845 90.0974 17.8383 85.3939C15.7156 83.8703 13.7492 82.1044 11.9947 80.1444C6.97467 74.5353 3.80626 67.4505 2.83001 59.6544C1.53086 49.2675 4.12789 38.1705 10.1443 28.4067L10.302 28.1519C13.1866 23.8622 13.1917 23.8546 14.8616 21.858C18.3656 17.9517 18.3719 17.9441 20.3282 16.1732C21.732 14.9901 24.0137 13.1297 25.8502 11.7649C27.8292 10.4772 30.232 9.01151 31.9802 8.02769C39.3803 4.14159 47.4539 2.08691 55.327 2.08691C58.1763 2.08691 60.9941 2.35683 63.7046 2.89037C71.946 4.51115 79.1355 8.53347 84.4986 14.5247C85.9226 16.1139 87.2129 17.8407 88.333 19.657C93.5485 28.1014 95.2298 38.6624 93.0692 49.3949C90.8808 60.2649 84.8682 70.6013 76.1399 78.4996C71.0795 83.0794 65.3961 86.6313 59.2484 89.0555C53.3165 91.3953 47.2319 92.5821 41.1675 92.5821C41.1663 92.5834 41.1663 92.5834 41.1663 92.5834ZM45.0536 12.0311C37.4896 12.0311 29.9936 15.0456 23.9443 20.5197C12.527 30.8511 9.81514 47.2431 17.7715 57.8368C18.1562 58.3489 18.5649 58.8459 18.9849 59.3138C23.373 64.2153 29.6909 66.9157 36.7769 66.9157C44.341 66.9157 51.837 63.9012 57.8862 58.4271C69.9771 47.4865 72.2021 30.083 62.8457 19.633C62.2175 18.933 61.5453 18.2708 60.849 17.6679C56.5946 13.9798 51.1332 12.0311 45.0536 12.0311Z" fill="url(#paint5_linear_1742_831)"/>
<path d="M55.3269 2.71785C58.1346 2.71785 60.9133 2.98399 63.5835 3.50996C71.6887 5.10299 78.7583 9.05846 84.0293 14.9463C85.4281 16.5078 86.6957 18.2042 87.7969 19.989C92.9279 28.296 94.5802 38.6955 92.4511 49.2716C91.3916 54.53 89.4479 59.6496 86.6743 64.4855C83.7985 69.4992 80.1117 74.0576 75.7185 78.0332C70.7137 82.5613 65.0958 86.0728 59.0188 88.4706C53.16 90.7813 47.1549 91.953 41.1687 91.953C32.5868 91.953 24.6481 89.5086 18.2078 84.8821C16.1229 83.385 14.1906 81.6494 12.4664 79.7246C9.96391 76.9283 7.92185 73.7612 6.39819 70.3102C4.91867 66.9602 3.92854 63.349 3.45681 59.5777C2.1728 49.3321 4.73957 38.3801 10.6778 28.7425L10.8304 28.4953C13.686 24.2497 13.6974 24.2333 15.3371 22.2719C18.807 18.4022 18.8196 18.3896 20.7418 16.649C22.1356 15.4747 24.3908 13.637 26.2083 12.2836C28.1709 11.0084 30.5472 9.5592 32.2803 8.58295C39.5896 4.74604 47.5585 2.71785 55.3269 2.71785ZM36.7769 67.5467C44.4973 67.5467 52.1447 64.4741 58.3087 58.8954C70.6557 47.7227 72.902 29.9218 63.3148 19.212C62.669 18.4918 61.9791 17.812 61.2627 17.1914C56.9553 13.4567 51.1999 11.4007 45.0536 11.4007C37.3318 11.4007 29.6845 14.4733 23.5205 20.052C11.8634 30.6004 9.11631 47.3632 17.2669 58.2155C17.663 58.7427 18.083 59.2536 18.5131 59.7341C23.0235 64.7718 29.5092 67.5467 36.7769 67.5467ZM55.3269 1.45654C47.4652 1.45654 39.302 3.46959 31.6774 7.47552C29.7816 8.54259 27.3107 10.0625 25.4881 11.2494C23.7702 12.5258 21.5478 14.3206 19.9119 15.7005C17.9215 17.5017 17.9215 17.5017 14.3835 21.4471C12.6846 23.479 12.6846 23.479 9.77093 27.8116L9.6057 28.0778C3.45934 38.0535 0.900138 49.3182 2.20307 59.7341C3.16671 67.4281 6.23674 74.658 11.5242 80.5659C13.3367 82.5903 15.3295 84.3713 17.47 85.9076C24.2634 90.7876 32.5338 93.2156 41.1662 93.2156C53.2735 93.2156 66.0947 88.4416 76.5624 78.9691C94.9346 62.3425 99.7516 36.9473 88.869 19.3268C87.7388 17.4954 86.4397 15.7485 84.9677 14.105C79.3259 7.80093 71.9283 3.86438 63.8257 2.27135C61.0609 1.72772 58.2141 1.45654 55.3269 1.45654ZM36.7769 66.2854C30.1436 66.2854 23.8774 63.8334 19.4553 58.8928C19.039 58.4287 18.6468 57.9494 18.2772 57.4575C10.5365 47.1513 13.0554 31.2235 24.3681 20.9867C30.4842 15.452 37.9789 12.662 45.0548 12.6608C50.7698 12.6608 56.2111 14.4796 60.4365 18.1437C61.1164 18.7327 61.7634 19.3697 62.3764 20.0533C71.5159 30.2624 69.3161 47.2345 57.4636 57.9595C51.3462 63.4954 43.8515 66.2854 36.7769 66.2854Z" fill="#0E0E0E"/>
<defs>
<linearGradient id="paint0_linear_1742_831" x1="2.62624" y1="87.3063" x2="36.3372" y2="87.3063" gradientUnits="userSpaceOnUse">
<stop stop-color="#C301FB"/>
<stop offset="0.4799" stop-color="#FC517F"/>
<stop offset="1" stop-color="#FDB599"/>
</linearGradient>
<linearGradient id="paint1_linear_1742_831" x1="63.8259" y1="16.2051" x2="104.841" y2="16.2051" gradientUnits="userSpaceOnUse">
<stop stop-color="#C301FB"/>
<stop offset="0.4799" stop-color="#FC517F"/>
<stop offset="1" stop-color="#FDB599"/>
</linearGradient>
<linearGradient id="paint2_linear_1742_831" x1="7.01784" y1="65.4115" x2="115.183" y2="65.4115" gradientUnits="userSpaceOnUse">
<stop stop-color="#C301FB"/>
<stop offset="0.4799" stop-color="#FC517F"/>
<stop offset="1" stop-color="#FDB599"/>
</linearGradient>
<linearGradient id="paint3_linear_1742_831" x1="1.57076" y1="44.5589" x2="90.3674" y2="44.5589" gradientUnits="userSpaceOnUse">
<stop stop-color="#C301FB"/>
<stop offset="0.4799" stop-color="#FC517F"/>
<stop offset="1" stop-color="#FDB599"/>
</linearGradient>
<linearGradient id="paint4_linear_1742_831" x1="17.3027" y1="18.2187" x2="79.19" y2="76.4522" gradientUnits="userSpaceOnUse">
<stop stop-color="#C301FB"/>
<stop offset="0.4799" stop-color="#FC517F"/>
<stop offset="1" stop-color="#FDB599"/>
</linearGradient>
<linearGradient id="paint5_linear_1742_831" x1="17.7622" y1="18.6502" x2="78.7288" y2="76.0173" gradientUnits="userSpaceOnUse">
<stop stop-color="#C301FB"/>
<stop offset="0.4799" stop-color="#FC517F"/>
<stop offset="1" stop-color="#FDB599"/>
</linearGradient>
</defs>
</svg>
