<svg width="443" height="86" viewBox="0 0 443 86" fill="none" xmlns="http://www.w3.org/2000/svg">
<rect width="443" height="86" fill="white"/>
<g clip-path="url(#clip0_1666_546)">
<path d="M77.9998 46.7005C77.6525 67.0337 61.0722 84.5948 40.972 85.9232C39.8451 86 38.7258 86.023 37.6297 85.9923C35.947 85.8848 33.7085 85.6775 32.0412 85.4471C28.0968 84.6178 27.9424 84.5795 25.6885 83.8039C22.022 82.3603 21.7981 82.2758 19.6831 81.124C16.31 79.0892 16.1093 78.9663 14.2027 77.4767C13.3305 76.7318 12.1649 75.7566 11.3312 74.9657C8.61417 72.14 8.45207 71.9711 7.01635 70.0668C4.77013 66.788 4.68523 66.6651 3.60457 64.5765C3.43476 64.2156 3.26494 63.8393 3.0874 63.44C8.88434 75.1577 21.1266 82.6521 35.4298 81.7076C55.6226 80.3715 72.2801 62.7336 72.6274 42.3007C72.9439 24.4554 60.7094 10.3881 44.1599 8C44.5999 8.05375 47.6489 8.29179 51.7554 9.82753C55.4219 11.2711 55.6457 11.3556 57.7607 12.5074C61.1339 14.5422 61.3346 14.6651 63.2412 16.1548C64.1134 16.8996 65.279 17.8748 66.1126 18.6657C68.8297 21.4914 68.9918 21.6604 70.4275 23.5647C72.6738 26.8435 72.7587 26.9663 73.8393 29.0549C75.4989 32.6332 75.5684 32.7791 76.2785 34.9752L76.842 36.9256C77.6525 40.0047 78.0539 43.2835 77.9998 46.7005Z" fill="#9B19CC"/>
<path d="M33.284 9.00591C15.2216 10.1961 0.324041 25.9835 0.00756372 44.2587C-0.308913 62.534 14.0792 76.3863 32.1416 75.1961C50.2039 74.0059 65.1015 58.2185 65.4179 39.9433C65.7344 21.6604 51.3463 7.81571 33.284 9.00591ZM50.7211 37.5399C50.5127 49.8027 40.5166 60.3916 28.3979 61.1902C16.2791 61.9888 6.63042 52.6976 6.83883 40.4347C7.04725 28.1719 17.0433 17.583 29.162 16.7844C41.2808 15.9858 50.9372 25.277 50.7211 37.5399Z" fill="url(#paint0_linear_1666_546)"/>
<path d="M33.284 9.00591C15.2216 10.1961 0.324041 25.9835 0.00756372 44.2587C-0.308913 62.534 14.0792 76.3863 32.1416 75.1961C50.2039 74.0059 65.1015 58.2185 65.4179 39.9433C65.7344 21.6604 51.3463 7.81571 33.284 9.00591ZM50.7211 37.5399C50.5127 49.8027 40.5166 60.3916 28.3979 61.1902C16.2791 61.9888 6.63042 52.6976 6.83883 40.4347C7.04725 28.1719 17.0433 17.583 29.162 16.7844C41.2808 15.9858 50.9372 25.277 50.7211 37.5399Z" fill="url(#paint1_radial_1666_546)"/>
<path d="M33.284 9.00591C15.2216 10.1961 0.324041 25.9835 0.00756372 44.2587C-0.308913 62.534 14.0792 76.3863 32.1416 75.1961C50.2039 74.0059 65.1015 58.2185 65.4179 39.9433C65.7344 21.6604 51.3463 7.81571 33.284 9.00591ZM50.7211 37.5399C50.5127 49.8027 40.5166 60.3916 28.3979 61.1902C16.2791 61.9888 6.63042 52.6976 6.83883 40.4347C7.04725 28.1719 17.0433 17.583 29.162 16.7844C41.2808 15.9858 50.9372 25.277 50.7211 37.5399Z" fill="url(#paint2_radial_1666_546)"/>
</g>
<path d="M119.288 67.4994C115.605 67.4994 112.282 66.7134 109.318 65.1416C106.398 63.5697 104.085 61.3241 102.379 58.4049C100.717 55.4857 99.8862 52.0725 99.8862 48.1652C99.8862 44.3029 100.74 40.9121 102.446 37.9929C104.153 35.0288 106.488 32.7608 109.452 31.1889C112.416 29.617 115.74 28.8311 119.422 28.8311C123.105 28.8311 126.429 29.617 129.393 31.1889C132.357 32.7608 134.692 35.0288 136.399 37.9929C138.105 40.9121 138.959 44.3029 138.959 48.1652C138.959 52.0276 138.083 55.4408 136.331 58.4049C134.625 61.3241 132.267 63.5697 129.258 65.1416C126.294 66.7134 122.97 67.4994 119.288 67.4994ZM119.288 57.5292C121.488 57.5292 123.352 56.7208 124.879 55.104C126.451 53.4872 127.237 51.1743 127.237 48.1652C127.237 45.1562 126.473 42.8433 124.947 41.2265C123.464 39.6097 121.623 38.8013 119.422 38.8013C117.177 38.8013 115.313 39.6097 113.831 41.2265C112.349 42.7984 111.608 45.1113 111.608 48.1652C111.608 51.1743 112.327 53.4872 113.764 55.104C115.246 56.7208 117.087 57.5292 119.288 57.5292Z" fill="#3E3E3E"/>
<path d="M156.59 35.6351C157.937 33.5692 159.621 31.9524 161.642 30.7847C163.663 29.5721 165.909 28.9658 168.379 28.9658V41.1591H165.213C162.338 41.1591 160.183 41.7879 158.745 43.0454C157.308 44.258 156.59 46.4137 156.59 49.5126V66.9604H145.07V29.37H156.59V35.6351Z" fill="#3E3E3E"/>
<path d="M171.595 48.0979C171.595 44.2355 172.313 40.8448 173.75 37.9255C175.232 35.0063 177.231 32.7608 179.746 31.1889C182.261 29.617 185.068 28.8311 188.167 28.8311C190.816 28.8311 193.129 29.37 195.105 30.4479C197.126 31.5257 198.676 32.9404 199.754 34.692V29.37H211.273V66.9604H199.754V61.6385C198.631 63.39 197.059 64.8047 195.038 65.8826C193.062 66.9604 190.749 67.4994 188.099 67.4994C185.045 67.4994 182.261 66.7134 179.746 65.1416C177.231 63.5248 175.232 61.2568 173.75 58.3376C172.313 55.3734 171.595 51.9602 171.595 48.0979ZM199.754 48.1652C199.754 45.2909 198.945 43.0229 197.328 41.3612C195.757 39.6995 193.825 38.8687 191.535 38.8687C189.245 38.8687 187.291 39.6995 185.674 41.3612C184.102 42.978 183.316 45.2236 183.316 48.0979C183.316 50.9722 184.102 53.2626 185.674 54.9692C187.291 56.6309 189.245 57.4618 191.535 57.4618C193.825 57.4618 195.757 56.6309 197.328 54.9692C198.945 53.3075 199.754 51.0395 199.754 48.1652Z" fill="#3E3E3E"/>
<path d="M225.333 25.4628C223.312 25.4628 221.651 24.8789 220.348 23.7113C219.091 22.4987 218.462 21.0166 218.462 19.2651C218.462 17.4686 219.091 15.9866 220.348 14.8189C221.651 13.6063 223.312 13 225.333 13C227.309 13 228.926 13.6063 230.184 14.8189C231.486 15.9866 232.137 17.4686 232.137 19.2651C232.137 21.0166 231.486 22.4987 230.184 23.7113C228.926 24.8789 227.309 25.4628 225.333 25.4628ZM231.127 71.8108C231.127 76.4366 229.959 79.76 227.624 81.781C225.289 83.8469 222.032 84.8799 217.856 84.8799H213.342V75.1118H216.104C217.362 75.1118 218.26 74.8648 218.799 74.3707C219.338 73.8767 219.607 73.0683 219.607 71.9456V29.37H231.127V71.8108Z" fill="#3E3E3E"/>
<path d="M256.032 67.5667C253.202 67.5667 250.665 67.0952 248.419 66.152C246.174 65.164 244.4 63.8167 243.097 62.1101C241.795 60.3585 241.076 58.36 240.942 56.1145H247.274C247.454 57.9558 248.307 59.4603 249.834 60.628C251.406 61.7957 253.449 62.3795 255.964 62.3795C258.3 62.3795 260.141 61.8631 261.488 60.8301C262.836 59.7972 263.509 58.4947 263.509 56.9229C263.509 55.3061 262.791 54.1159 261.354 53.3524C259.917 52.544 257.694 51.7581 254.684 50.9946C251.945 50.276 249.699 49.5575 247.948 48.8389C246.241 48.0754 244.759 46.9751 243.502 45.5379C242.289 44.0559 241.683 42.1247 241.683 39.7444C241.683 37.8582 242.244 36.1291 243.367 34.5572C244.49 32.9853 246.084 31.7503 248.15 30.8521C250.216 29.909 252.574 29.4374 255.223 29.4374C259.31 29.4374 262.611 30.4703 265.126 32.5362C267.641 34.6021 268.989 37.4315 269.168 41.0244H263.038C262.903 39.0932 262.117 37.5438 260.68 36.3761C259.288 35.2084 257.402 34.6246 255.021 34.6246C252.821 34.6246 251.069 35.0962 249.767 36.0393C248.464 36.9824 247.813 38.2175 247.813 39.7444C247.813 40.957 248.195 41.9675 248.958 42.7759C249.767 43.5394 250.755 44.1682 251.922 44.6622C253.135 45.1113 254.797 45.6278 256.908 46.2116C259.557 46.9302 261.713 47.6488 263.375 48.3673C265.036 49.041 266.451 50.0739 267.619 51.4662C268.831 52.8584 269.46 54.6773 269.505 56.9229C269.505 58.9438 268.944 60.7627 267.821 62.3795C266.698 63.9963 265.104 65.2763 263.038 66.2194C261.017 67.1176 258.682 67.5667 256.032 67.5667Z" fill="#3E3E3E"/>
<path d="M285.637 35.0962V56.8555C285.637 58.6519 286.018 59.9319 286.782 60.6954C287.545 61.4139 288.87 61.7732 290.757 61.7732H295.27V66.9604H289.746C286.333 66.9604 283.773 66.1745 282.066 64.6026C280.36 63.0307 279.506 60.4484 279.506 56.8555V35.0962H274.723V30.0437H279.506V20.7471H285.637V30.0437H295.27V35.0962H285.637Z" fill="#3E3E3E"/>
<path d="M335.438 30.0437V66.9604H329.307V61.5038C328.14 63.39 326.501 64.8721 324.39 65.9499C322.324 66.9829 320.033 67.4994 317.518 67.4994C314.644 67.4994 312.062 66.9155 309.771 65.7478C307.481 64.5353 305.662 62.7388 304.315 60.3585C303.012 57.9783 302.361 55.0815 302.361 51.6683V30.0437H308.424V50.8599C308.424 54.4977 309.345 57.3046 311.186 59.2807C313.027 61.2118 315.542 62.1774 318.731 62.1774C322.009 62.1774 324.592 61.1669 326.478 59.1459C328.364 57.125 329.307 54.1833 329.307 50.321V30.0437H335.438Z" fill="#3E3E3E"/>
<path d="M343.498 48.3673C343.498 44.5948 344.262 41.2939 345.789 38.4645C347.315 35.5902 349.404 33.3671 352.054 31.7952C354.748 30.2233 357.757 29.4374 361.081 29.4374C363.955 29.4374 366.627 30.1111 369.097 31.4584C371.567 32.7608 373.454 34.4899 374.756 36.6456V17.1094H380.954V66.9604H374.756V60.0217C373.543 62.2223 371.747 64.0412 369.367 65.4784C366.986 66.8706 364.202 67.5667 361.013 67.5667C357.735 67.5667 354.748 66.7583 352.054 65.1416C349.404 63.5248 347.315 61.2568 345.789 58.3376C344.262 55.4183 343.498 52.0949 343.498 48.3673ZM374.756 48.4347C374.756 45.6502 374.195 43.225 373.072 41.1591C371.949 39.0932 370.422 37.5214 368.491 36.4435C366.605 35.3207 364.516 34.7593 362.226 34.7593C359.935 34.7593 357.847 35.2983 355.961 36.3761C354.075 37.454 352.57 39.0259 351.447 41.0918C350.325 43.1577 349.763 45.5829 349.763 48.3673C349.763 51.1967 350.325 53.6668 351.447 55.7776C352.57 57.8435 354.075 59.4379 355.961 60.5606C357.847 61.6385 359.935 62.1774 362.226 62.1774C364.516 62.1774 366.605 61.6385 368.491 60.5606C370.422 59.4379 371.949 57.8435 373.072 55.7776C374.195 53.6668 374.756 51.2192 374.756 48.4347Z" fill="#3E3E3E"/>
<path d="M394.48 24.0481C393.312 24.0481 392.324 23.6439 391.516 22.8355C390.707 22.0271 390.303 21.0391 390.303 19.8714C390.303 18.7037 390.707 17.7156 391.516 16.9072C392.324 16.0989 393.312 15.6947 394.48 15.6947C395.602 15.6947 396.546 16.0989 397.309 16.9072C398.117 17.7156 398.522 18.7037 398.522 19.8714C398.522 21.0391 398.117 22.0271 397.309 22.8355C396.546 23.6439 395.602 24.0481 394.48 24.0481ZM397.444 30.0437V66.9604H391.313V30.0437H397.444Z" fill="#3E3E3E"/>
<path d="M423.992 67.5667C420.534 67.5667 417.391 66.7808 414.561 65.2089C411.777 63.637 409.576 61.4139 407.959 58.5396C406.387 55.6204 405.601 52.2521 405.601 48.4347C405.601 44.6622 406.41 41.3388 408.027 38.4645C409.688 35.5453 411.934 33.3222 414.763 31.7952C417.593 30.2233 420.759 29.4374 424.262 29.4374C427.765 29.4374 430.931 30.2233 433.761 31.7952C436.59 33.3222 438.813 35.5228 440.43 38.3971C442.092 41.2714 442.922 44.6173 442.922 48.4347C442.922 52.2521 442.069 55.6204 440.362 58.5396C438.701 61.4139 436.433 63.637 433.558 65.2089C430.684 66.7808 427.495 67.5667 423.992 67.5667ZM423.992 62.1774C426.193 62.1774 428.259 61.661 430.19 60.628C432.121 59.5951 433.671 58.0456 434.838 55.9797C436.051 53.9138 436.657 51.3988 436.657 48.4347C436.657 45.4706 436.073 42.9556 434.906 40.8897C433.738 38.8238 432.211 37.2968 430.325 36.3088C428.439 35.2758 426.395 34.7593 424.195 34.7593C421.949 34.7593 419.883 35.2758 417.997 36.3088C416.155 37.2968 414.673 38.8238 413.551 40.8897C412.428 42.9556 411.866 45.4706 411.866 48.4347C411.866 51.4437 412.405 53.9812 413.483 56.0471C414.606 58.113 416.088 59.6624 417.929 60.6954C419.771 61.6834 421.792 62.1774 423.992 62.1774Z" fill="#3E3E3E"/>
<defs>
<linearGradient id="paint0_linear_1666_546" x1="9.88087" y1="20.7289" x2="55.9462" y2="64.3018" gradientUnits="userSpaceOnUse">
<stop stop-color="#C301FB"/>
<stop offset="0.4799" stop-color="#FC517F"/>
<stop offset="1" stop-color="#FDB599"/>
</linearGradient>
<radialGradient id="paint1_radial_1666_546" cx="0" cy="0" r="1" gradientUnits="userSpaceOnUse" gradientTransform="translate(30.4653 76.4716) scale(64.4326 64.0964)">
<stop offset="0.0272" stop-color="#F5CBA2"/>
<stop offset="0.601" stop-color="#FDB599" stop-opacity="0"/>
</radialGradient>
<radialGradient id="paint2_radial_1666_546" cx="0" cy="0" r="1" gradientUnits="userSpaceOnUse" gradientTransform="translate(2.18346 57.4499) scale(41.4732 41.2568)">
<stop offset="0.00357206" stop-color="#5B4BE3" stop-opacity="0.9"/>
<stop offset="1" stop-color="#5B4BE3" stop-opacity="0"/>
</radialGradient>
<clipPath id="clip0_1666_546">
<rect width="78" height="78" fill="white" transform="translate(0 8)"/>
</clipPath>
</defs>
</svg>
