<svg width="117" height="117" viewBox="0 0 117 117" fill="none" xmlns="http://www.w3.org/2000/svg">
<path d="M36.7092 111.105C35.9636 110.785 35.0742 110.397 33.9507 109.908L33.9049 109.887C31.8958 108.887 30.855 108.35 29.4363 107.463L29.393 107.435C28.3688 106.791 27.146 105.97 25.1191 104.607L25.0632 104.569C23.0541 103.055 22.1176 102.313 20.8745 101.168C19.9113 100.278 18.7547 99.1343 17.0052 97.4039C16.8283 97.213 16.6248 96.9929 16.4263 96.7703C13.3878 93.3056 12.9794 92.6859 9.79721 87.8586L9.79466 87.8547C8.81111 86.1256 7.68634 83.904 6.914 82.3428C6.914 82.3428 6.8911 82.297 6.88347 82.2817C6.71933 81.9484 6.56156 81.6252 6.41269 81.3185C4.19239 76.2405 2.94928 70.7769 2.70117 65.022C4.22548 71.2439 7.16848 76.8932 11.3457 81.5603C13.1334 83.5579 15.1335 85.3622 17.2915 86.9234C19.041 92.8259 21.9738 98.1024 26.0073 102.609C26.1867 102.809 26.3661 103.006 26.5493 103.201C29.5177 106.387 32.9315 109.036 36.7092 111.105Z" fill="url(#paint0_linear_1769_912)"/>
<path d="M3.53584 69.3086C5.22428 73.9579 7.74612 78.2051 11.0149 81.8581C12.7898 83.8417 14.7722 85.6357 16.9085 87.1957C18.6822 93.1033 21.6315 98.3875 25.6764 102.907C25.8558 103.107 26.0403 103.309 26.2235 103.505C27.6995 105.09 29.2861 106.545 30.972 107.862C30.5611 107.629 30.1552 107.387 29.7149 107.112L29.6297 107.059C28.6118 106.42 27.3941 105.601 25.3761 104.244L25.3214 104.207C23.3327 102.708 22.4039 101.972 21.1773 100.842C20.2192 99.9576 19.0677 98.8188 17.3258 97.0947C17.1528 96.909 16.9543 96.6939 16.7622 96.4776C13.7454 93.0371 13.3369 92.4175 10.1751 87.6219C9.19917 85.9042 8.08076 83.6979 7.31224 82.1405L7.30715 82.1303C7.29952 82.1138 7.29061 82.0973 7.28171 82.0807C7.12011 81.7524 6.96488 81.4344 6.81856 81.1328C5.42913 77.9519 4.41377 74.5546 3.80303 71.034C3.70379 70.4614 3.61472 69.8863 3.53584 69.3086ZM2.27618 60.248C1.90847 67.6545 3.12868 74.9198 6.00933 81.5043C6.16074 81.8161 6.32106 82.1443 6.48774 82.4828C6.49792 82.5019 6.50683 82.521 6.51574 82.5388C7.41403 84.3557 8.49682 86.4717 9.41548 88.0863C12.6193 92.9468 13.0303 93.5715 16.0942 97.0655C16.2888 97.2843 16.4873 97.4994 16.6858 97.7131C18.499 99.5072 19.6161 100.612 20.5729 101.495C21.8478 102.669 22.8352 103.448 24.8048 104.931C26.8572 106.312 28.1143 107.158 29.1564 107.812C29.1589 107.814 29.1615 107.816 29.164 107.817C30.5865 108.709 31.6095 109.242 33.7166 110.291C35.858 111.224 37.1876 111.805 38.2666 112.24C38.2691 112.241 38.2729 112.242 38.2767 112.244C39.8023 112.858 40.8304 113.181 42.9591 113.809C45.1107 114.334 46.4581 114.664 47.518 114.897C49.1225 115.246 50.0729 115.376 52.1647 115.631C52.4421 115.652 52.7386 115.678 53.0465 115.703C43.0507 114.591 33.8031 110.336 26.8763 102.897C26.6956 102.703 26.5175 102.509 26.3406 102.311C22.227 97.7157 19.354 92.3806 17.677 86.6511C15.5178 85.1013 13.5074 83.3047 11.679 81.2626C6.34524 75.3028 3.24828 68.0095 2.27618 60.248Z" fill="#0E0E0E"/>
<g opacity="0.5">
<path d="M36.7092 111.105C35.9636 110.785 35.0742 110.397 33.9507 109.908L33.9049 109.887C31.8958 108.887 30.855 108.35 29.4363 107.463L29.393 107.435C28.3688 106.791 27.146 105.97 25.1191 104.607L25.0632 104.569C23.0541 103.055 22.1176 102.313 20.8745 101.168C19.9113 100.278 18.7547 99.1343 17.0052 97.4039C16.8283 97.213 16.6248 96.9929 16.4263 96.7703C13.3878 93.3056 12.9794 92.6859 9.79721 87.8586L9.79466 87.8547C8.81111 86.1256 7.68634 83.904 6.914 82.3428C6.914 82.3428 6.8911 82.297 6.88347 82.2817C6.71933 81.9484 6.56156 81.6252 6.41269 81.3185C4.19239 76.2405 2.94928 70.7769 2.70117 65.022C4.22548 71.2439 7.16848 76.8932 11.3457 81.5603C13.1334 83.5579 15.1335 85.3622 17.2915 86.9234C19.041 92.8259 21.9738 98.1024 26.0073 102.609C26.1867 102.809 26.3661 103.006 26.5493 103.201C29.5177 106.387 32.9315 109.036 36.7092 111.105Z" fill="#0E0E0E"/>
<path d="M3.53584 69.3086C5.22428 73.9579 7.74612 78.2051 11.0149 81.8581C12.7898 83.8417 14.7722 85.6357 16.9085 87.1957C18.6822 93.1033 21.6315 98.3875 25.6764 102.907C25.8558 103.107 26.0403 103.309 26.2235 103.505C27.6995 105.09 29.2861 106.545 30.972 107.862C30.5611 107.629 30.1552 107.387 29.7149 107.112L29.6297 107.059C28.6118 106.42 27.3941 105.601 25.3761 104.244L25.3214 104.207C23.3327 102.708 22.4039 101.972 21.1773 100.842C20.2192 99.9576 19.0677 98.8188 17.3258 97.0947C17.1528 96.909 16.9543 96.6939 16.7622 96.4776C13.7454 93.0371 13.3369 92.4175 10.1751 87.6219C9.19917 85.9042 8.08076 83.6979 7.31224 82.1405L7.30715 82.1303C7.29952 82.1138 7.29061 82.0973 7.28171 82.0807C7.12011 81.7524 6.96488 81.4344 6.81856 81.1328C5.42913 77.9519 4.41377 74.5546 3.80303 71.034C3.70379 70.4614 3.61472 69.8863 3.53584 69.3086ZM2.27618 60.248C1.90847 67.6545 3.12868 74.9198 6.00933 81.5043C6.16074 81.8161 6.32106 82.1443 6.48774 82.4828C6.49792 82.5019 6.50683 82.521 6.51574 82.5388C7.41403 84.3557 8.49682 86.4717 9.41548 88.0863C12.6193 92.9468 13.0303 93.5715 16.0942 97.0655C16.2888 97.2843 16.4873 97.4994 16.6858 97.7131C18.499 99.5072 19.6161 100.612 20.5729 101.495C21.8478 102.669 22.8352 103.448 24.8048 104.931C26.8572 106.312 28.1143 107.158 29.1564 107.812C29.1589 107.814 29.1615 107.816 29.164 107.817C30.5865 108.709 31.6095 109.242 33.7166 110.291C35.858 111.224 37.1876 111.805 38.2666 112.24C38.2691 112.241 38.2729 112.242 38.2767 112.244C39.8023 112.858 40.8304 113.181 42.9591 113.809C45.1107 114.334 46.4581 114.664 47.518 114.897C49.1225 115.246 50.0729 115.376 52.1647 115.631C52.4421 115.652 52.7386 115.678 53.0465 115.703C43.0507 114.591 33.8031 110.336 26.8763 102.897C26.6956 102.703 26.5175 102.509 26.3406 102.311C22.227 97.7157 19.354 92.3806 17.677 86.6511C15.5178 85.1013 13.5074 83.3047 11.679 81.2626C6.34524 75.3028 3.24828 68.0095 2.27618 60.248Z" fill="#0E0E0E"/>
</g>
<path d="M105.814 30.3933C105.658 30.219 105.501 30.0459 105.341 29.8754C100.936 25.1231 95.5871 21.6635 89.7023 19.4865C88.5623 17.639 87.2517 15.8768 85.7669 14.2189C80.0755 7.8608 72.6131 3.88972 64.4393 2.28271C71.8776 2.43286 79.0526 4.1671 85.4144 7.502C87.6424 8.77055 90.5383 10.5939 92.6657 12.0253C95.1964 13.9313 96.1062 14.6744 98.0873 16.5906C98.0898 16.5931 98.0924 16.5944 98.0949 16.5982C98.81 17.2904 99.665 18.1352 100.785 19.2435C100.983 19.4572 101.18 19.6723 101.376 19.8911C101.399 19.9166 101.423 19.942 101.448 19.9687C103.994 22.7349 105.417 26.2937 105.814 30.3933Z" fill="url(#paint1_linear_1769_912)" stroke="#0E0E0E" stroke-width="1.52685" stroke-miterlimit="10"/>
<path opacity="0.5" d="M105.814 30.3933C105.658 30.219 105.501 30.0459 105.341 29.8754C100.936 25.1231 95.5871 21.6635 89.7023 19.4865C88.5623 17.639 87.2517 15.8768 85.7669 14.2189C80.0755 7.8608 72.6131 3.88972 64.4393 2.28271C71.8776 2.43286 79.0526 4.1671 85.4144 7.502C87.6424 8.77055 90.5383 10.5939 92.6657 12.0253C95.1964 13.9313 96.1062 14.6744 98.0873 16.5906C98.0898 16.5931 98.0924 16.5944 98.0949 16.5982C98.81 17.2904 99.665 18.1352 100.785 19.2435C100.983 19.4572 101.18 19.6723 101.376 19.8911C101.399 19.9166 101.423 19.942 101.448 19.9687C103.994 22.7349 105.417 26.2937 105.814 30.3933Z" fill="#0E0E0E" stroke="#0E0E0E" stroke-width="1.52685" stroke-miterlimit="10"/>
<path d="M116.247 56.9999L116.226 60.5231C115.708 74.6834 109.022 89.4506 96.7195 100.584C84.9195 111.263 70.3533 116.422 56.7784 115.973C56.09 115.925 55.2859 115.878 54.4804 115.826C54.4779 115.824 54.4741 115.824 54.469 115.824C54.1496 115.803 53.8303 115.78 53.5173 115.756H53.516C53.0401 115.719 52.5808 115.678 52.1647 115.632C49.9724 115.3 48.6033 115.091 47.518 114.898C45.9454 114.618 44.9707 114.367 42.9591 113.81C40.7579 113.093 39.385 112.643 38.2768 112.245C38.2729 112.244 38.2691 112.243 38.2666 112.241C36.7435 111.693 35.7167 111.235 33.7166 110.292C31.5675 109.147 30.2404 108.439 29.164 107.819C29.1615 107.817 29.1589 107.816 29.1564 107.813C27.716 106.983 26.7236 106.304 24.8049 104.933C22.8072 103.342 21.5819 102.365 20.5729 101.496C19.3006 100.401 18.3743 99.4769 16.6858 97.7146C16.4873 97.5009 16.2889 97.2859 16.0942 97.067C12.1969 92.6849 11.221 91.0525 9.41548 88.0879L7.13284 83.7185C8.63679 86.5088 10.9003 90.1593 13.2568 92.7931C17.1528 97.1459 21.7804 100.513 26.8763 102.898C45.1819 111.47 69.5225 107.392 87.6767 90.966C106.14 74.2559 112.268 49.5362 105.341 29.8767C103.562 24.8279 100.923 20.1125 97.4104 15.9531C97.6419 16.172 97.8671 16.3832 98.0873 16.5919C98.0898 16.5944 98.0924 16.5957 98.0949 16.5995C99.3138 17.7484 100.378 18.7613 101.376 19.8924C101.399 19.9178 101.423 19.9433 101.448 19.97C102.967 21.6254 105.671 25.0531 108.055 28.8715C110.878 34.0107 111.109 34.4305 112.587 38.2197C114.408 43.6845 114.517 44.0115 115.255 47.7103C116.086 53.1981 116.136 53.5263 116.247 56.9999Z" fill="url(#paint2_linear_1769_912)" stroke="#0E0E0E" stroke-width="1.39961" stroke-miterlimit="10"/>
<path d="M17.3068 87.1691C15.0903 85.5786 13.0379 83.7337 11.2057 81.6877C5.96862 75.836 2.66299 68.4499 1.64509 60.3283L1.63873 60.2736L1.64128 60.2176C2.41488 44.7176 9.99824 29.3676 22.4484 18.102C28.3599 12.7517 35.0017 8.60248 42.188 5.76636C49.1352 3.02566 56.2643 1.63623 63.3756 1.63623C63.7332 1.63623 64.0958 1.64005 64.4533 1.64768L64.5093 1.64895L64.564 1.65913C73.1513 3.34757 80.6468 7.54387 86.2427 13.795C87.7289 15.4542 89.0763 17.2572 90.2456 19.153L91.2152 20.7244L89.4835 20.0831C84.5683 18.2636 79.2714 17.3424 73.7417 17.3424C69.5835 17.3424 65.3554 17.8705 61.1757 18.9125C51.979 21.2028 43.2263 25.9335 35.8656 32.5944C28.0189 39.6955 22.2207 48.5321 19.0983 58.1513C15.9682 67.7933 15.6883 77.5868 18.2903 86.4744L18.8094 88.2468L17.3068 87.1691Z" fill="url(#paint3_linear_1769_912)"/>
<path d="M63.3743 2.27237C63.7293 2.27237 64.0843 2.27619 64.4393 2.28255C72.6131 3.88956 80.0755 7.86064 85.7669 14.2187C87.2517 15.8766 88.5623 17.6388 89.7023 19.4863C84.6879 17.6312 79.2816 16.7062 73.7391 16.7049C69.5415 16.7049 65.2664 17.2355 61.0192 18.2941C52.0095 20.5373 43.1347 25.1548 35.4355 32.121C27.2402 39.5377 21.5374 48.5664 18.4901 57.9528C15.36 67.5935 15.0305 77.6122 17.677 86.6512C15.5178 85.1014 13.5074 83.3048 11.679 81.2627C6.34525 75.3029 3.24829 68.0096 2.27619 60.2481C3.0129 45.486 10.0631 30.1654 22.8747 18.5728C34.8515 7.73468 49.522 2.27237 63.3743 2.27237ZM63.3743 1C56.1829 1 48.9762 2.4047 41.9539 5.17466C34.695 8.0375 27.9896 12.2287 22.0209 17.6299C15.6361 23.4065 10.5504 30.1488 6.90255 37.6673C5.15303 41.2745 3.7636 45.0267 2.77242 48.8184C1.7876 52.5872 1.1934 56.4119 1.00509 60.1858L1 60.2965L1.014 60.4072C2.04716 68.6585 5.40751 76.1643 10.7311 82.1126C12.5939 84.1929 14.6818 86.0684 16.9352 87.6856L19.9368 89.8397L18.8985 86.2949C16.3321 77.5308 16.6095 67.8671 19.7001 58.3472C22.7881 48.8349 28.5253 40.0924 36.2893 33.0664C43.5737 26.4755 52.2309 21.7957 61.3271 19.5309C65.4572 18.5015 69.6332 17.9798 73.7404 17.9798C79.195 17.9798 84.4181 18.8896 89.2621 20.6811L92.7267 21.9624L90.7877 18.8196C89.598 16.892 88.2289 15.0585 86.7173 13.3713C81.026 7.01579 73.4083 2.74951 64.6849 1.03435L64.5767 1.01272L64.466 1.01018C64.1047 1.00382 63.737 1 63.3743 1Z" fill="#0E0E0E"/>
<g opacity="0.5">
<path d="M17.3068 87.1691C15.0903 85.5786 13.0379 83.7337 11.2057 81.6877C5.96862 75.836 2.66299 68.4499 1.64509 60.3283L1.63873 60.2736L1.64128 60.2176C2.41488 44.7176 9.99824 29.3676 22.4484 18.102C28.3599 12.7517 35.0017 8.60248 42.188 5.76636C49.1352 3.02566 56.2643 1.63623 63.3756 1.63623C63.7332 1.63623 64.0958 1.64005 64.4533 1.64768L64.5093 1.64895L64.564 1.65913C73.1513 3.34757 80.6468 7.54387 86.2427 13.795C87.7289 15.4542 89.0763 17.2572 90.2456 19.153L91.2152 20.7244L89.4835 20.0831C84.5683 18.2636 79.2714 17.3424 73.7417 17.3424C69.5835 17.3424 65.3554 17.8705 61.1757 18.9125C51.979 21.2028 43.2263 25.9335 35.8656 32.5944C28.0189 39.6955 22.2207 48.5321 19.0983 58.1513C15.9682 67.7933 15.6883 77.5868 18.2903 86.4744L18.8094 88.2468L17.3068 87.1691Z" fill="#0E0E0E"/>
<path d="M63.3743 2.27237C63.7293 2.27237 64.0843 2.27619 64.4393 2.28255C72.6131 3.88956 80.0755 7.86064 85.7669 14.2187C87.2517 15.8766 88.5623 17.6388 89.7023 19.4863C84.6879 17.6312 79.2816 16.7062 73.7391 16.7049C69.5415 16.7049 65.2664 17.2355 61.0192 18.2941C52.0095 20.5373 43.1347 25.1548 35.4355 32.121C27.2402 39.5377 21.5374 48.5664 18.4901 57.9528C15.36 67.5935 15.0305 77.6122 17.677 86.6512C15.5178 85.1014 13.5074 83.3048 11.679 81.2627C6.34525 75.3029 3.24829 68.0096 2.27619 60.2481C3.0129 45.486 10.0631 30.1654 22.8747 18.5728C34.8515 7.73468 49.522 2.27237 63.3743 2.27237ZM63.3743 1C56.1829 1 48.9762 2.4047 41.9539 5.17466C34.695 8.0375 27.9896 12.2287 22.0209 17.6299C15.6361 23.4065 10.5504 30.1488 6.90255 37.6673C5.15303 41.2745 3.7636 45.0267 2.77242 48.8184C1.7876 52.5872 1.1934 56.4119 1.00509 60.1858L1 60.2965L1.014 60.4072C2.04716 68.6585 5.40751 76.1643 10.7311 82.1126C12.5939 84.1929 14.6818 86.0684 16.9352 87.6856L19.9368 89.8397L18.8985 86.2949C16.3321 77.5308 16.6095 67.8671 19.7001 58.3472C22.7881 48.8349 28.5253 40.0924 36.2893 33.0664C43.5737 26.4755 52.2309 21.7957 61.3271 19.5309C65.4572 18.5015 69.6332 17.9798 73.7404 17.9798C79.195 17.9798 84.4181 18.8896 89.2621 20.6811L92.7267 21.9624L90.7877 18.8196C89.598 16.892 88.2289 15.0585 86.7173 13.3713C81.026 7.01579 73.4083 2.74951 64.6849 1.03435L64.5767 1.01272L64.466 1.01018C64.1047 1.00382 63.737 1 63.3743 1Z" fill="#0E0E0E"/>
</g>
<path d="M85.7669 14.22C72.8459 -0.213867 50.8033 -2.34128 32.009 7.53235C30.0967 8.60878 27.6041 10.142 25.7655 11.3393C24.0325 12.6269 21.7906 14.4375 20.1403 15.8295C18.1325 17.6465 18.1325 17.6465 14.5635 21.6264C12.8496 23.6762 12.8496 23.6762 9.91044 28.0468L9.74376 28.3153C-1.03452 45.8105 -0.879293 67.2347 11.679 81.2639C27.4552 98.8876 56.8293 98.1661 77.2878 79.6531C97.7463 61.1388 101.542 31.8436 85.7669 14.22ZM58.0202 58.4604C46.065 69.2794 28.8981 69.7018 19.6785 59.402C10.4588 49.1034 12.6779 31.9823 24.6344 21.1633C36.5896 10.3443 53.7565 9.92187 62.9761 20.2217C72.1957 30.5203 69.9767 47.6414 58.0202 58.4604Z" fill="url(#paint4_linear_1769_912)" stroke="#0E0E0E" stroke-width="1.90856" stroke-miterlimit="10"/>
<path d="M41.5811 93.387C32.7903 93.387 24.6522 90.8792 18.0485 86.1345C15.9071 84.5974 13.9235 82.8161 12.1536 80.8388C7.08958 75.1806 3.89338 68.0337 2.90856 60.1691C1.59801 49.6911 4.21783 38.4968 10.2871 28.6473L10.4461 28.3903C13.356 24.063 13.3611 24.0553 15.0457 22.0412C18.5804 18.1006 18.5868 18.093 20.5602 16.3066C21.9764 15.1131 24.2781 13.2363 26.1307 11.8596C28.127 10.5605 30.5509 9.08202 32.3144 8.08956C39.7794 4.16938 47.9239 2.09668 55.8661 2.09668C58.7404 2.09668 61.5828 2.36897 64.3172 2.90718C72.6309 4.54218 79.8834 8.59979 85.2935 14.6436C86.73 16.2468 88.0317 17.9886 89.1616 19.8209C94.4228 28.3394 96.1189 38.993 93.9393 49.8196C91.7318 60.785 85.6663 71.2121 76.8615 79.1797C71.7567 83.7997 66.0234 87.3827 59.8219 89.8282C53.8379 92.1884 47.7 93.3857 41.5824 93.3857C41.5811 93.387 41.5811 93.387 41.5811 93.387ZM45.5026 12.1281C37.8721 12.1281 30.3104 15.1691 24.2081 20.6912C12.6906 31.1132 9.95497 47.649 17.9811 58.3356C18.3692 58.8522 18.7814 59.3535 19.2051 59.8256C23.6317 64.77 30.005 67.4942 37.1532 67.4942C44.7837 67.4942 52.3454 64.4532 58.4477 58.9311C70.6447 47.8945 72.8892 30.3383 63.4507 19.7967C62.817 19.0905 62.1389 18.4225 61.4365 17.8143C57.1448 14.0939 51.6354 12.1281 45.5026 12.1281Z" fill="url(#paint5_linear_1769_912)"/>
<path d="M55.8661 2.73282C58.6984 2.73282 61.5014 3.00129 64.195 3.53188C72.3713 5.13888 79.503 9.12905 84.8202 15.0685C86.2313 16.6437 87.51 18.355 88.6208 20.1554C93.7968 28.5353 95.4636 39.026 93.3159 49.6949C92.2471 54.9994 90.2863 60.164 87.4884 65.0423C84.5874 70.1 80.8682 74.6983 76.4365 78.7089C71.3878 83.2767 65.7206 86.819 59.5903 89.2378C53.6801 91.5687 47.6224 92.7508 41.5837 92.7508C32.9264 92.7508 24.9181 90.2849 18.4214 85.6178C16.3181 84.1075 14.3688 82.3568 12.6295 80.4151C10.1051 77.5943 8.04514 74.3993 6.50811 70.9181C5.01562 67.5387 4.0168 63.8959 3.54094 60.0915C2.24566 49.756 4.83494 38.7079 10.8253 28.9857L10.9792 28.7363C13.8599 24.4535 13.8713 24.437 15.5254 22.4584C19.0257 18.5548 19.0385 18.5421 20.9776 16.7862C22.3835 15.6016 24.6585 13.7478 26.492 12.3825C28.4718 11.0961 30.869 9.63418 32.6172 8.64937C39.9906 4.7788 48.0295 2.73282 55.8661 2.73282ZM37.1533 68.1303C44.9415 68.1303 52.6559 65.0308 58.874 59.4031C71.3292 48.1324 73.5953 30.1754 63.924 19.3717C63.2726 18.6451 62.5766 17.9593 61.8539 17.3333C57.5087 13.5658 51.7029 11.4918 45.5026 11.4918C37.7131 11.4918 29.9987 14.5914 23.7806 20.2191C12.0213 30.8599 9.25008 47.7698 17.4722 58.7173C17.8717 59.2492 18.2954 59.7645 18.7293 60.2492C23.2793 65.3311 29.8218 68.1303 37.1533 68.1303ZM55.8661 1.46045C47.9354 1.46045 39.7005 3.49116 32.009 7.53222C30.0967 8.60865 27.6041 10.1419 25.7655 11.3392C24.0325 12.6268 21.7906 14.4374 20.1403 15.8294C18.1325 17.6463 18.1325 17.6463 14.5635 21.6263C12.8496 23.6761 12.8496 23.6761 9.91044 28.0467L9.74376 28.3152C3.54348 38.3784 0.961833 49.742 2.2762 60.2492C3.24829 68.0107 6.34525 75.304 11.679 81.2638C13.5074 83.3059 15.5178 85.1025 17.677 86.6523C24.53 91.5751 32.873 94.0244 41.5811 94.0244C53.7946 94.0244 66.7283 89.2085 77.2878 79.653C95.8212 62.8805 100.68 37.2625 89.7023 19.4875C88.5623 17.64 87.2517 15.8777 85.7669 14.2198C80.0755 7.86049 72.6131 3.88941 64.4393 2.2824C61.6503 1.73401 58.7785 1.46045 55.8661 1.46045ZM37.1533 66.858C30.4618 66.858 24.1407 64.3845 19.6797 59.4006C19.2598 58.9323 18.8641 58.4488 18.4913 57.9526C10.6828 47.556 13.2237 31.4885 24.6356 21.1619C30.8054 15.5787 38.3658 12.7642 45.5038 12.763C51.269 12.763 56.758 14.5977 61.0205 18.294C61.7063 18.8882 62.359 19.5307 62.9774 20.2203C72.197 30.5189 69.978 47.64 58.0215 58.459C51.8505 64.0435 44.29 66.858 37.1533 66.858Z" fill="#0E0E0E"/>
<defs>
<linearGradient id="paint0_linear_1769_912" x1="2.70304" y1="88.0633" x2="36.7097" y2="88.0633" gradientUnits="userSpaceOnUse">
<stop stop-color="#C301FB"/>
<stop offset="0.4799" stop-color="#FC517F"/>
<stop offset="1" stop-color="#FDB599"/>
</linearGradient>
<linearGradient id="paint1_linear_1769_912" x1="64.4396" y1="16.3385" x2="105.815" y2="16.3385" gradientUnits="userSpaceOnUse">
<stop stop-color="#C301FB"/>
<stop offset="0.4799" stop-color="#FC517F"/>
<stop offset="1" stop-color="#FDB599"/>
</linearGradient>
<linearGradient id="paint2_linear_1769_912" x1="7.13311" y1="65.9763" x2="116.247" y2="65.9763" gradientUnits="userSpaceOnUse">
<stop stop-color="#C301FB"/>
<stop offset="0.4799" stop-color="#FC517F"/>
<stop offset="1" stop-color="#FDB599"/>
</linearGradient>
<linearGradient id="paint3_linear_1769_912" x1="1.63826" y1="44.9408" x2="91.2139" y2="44.9408" gradientUnits="userSpaceOnUse">
<stop stop-color="#C301FB"/>
<stop offset="0.4799" stop-color="#FC517F"/>
<stop offset="1" stop-color="#FDB599"/>
</linearGradient>
<linearGradient id="paint4_linear_1769_912" x1="17.5083" y1="18.3696" x2="79.9385" y2="77.1139" gradientUnits="userSpaceOnUse">
<stop stop-color="#C301FB"/>
<stop offset="0.4799" stop-color="#FC517F"/>
<stop offset="1" stop-color="#FDB599"/>
</linearGradient>
<linearGradient id="paint5_linear_1769_912" x1="17.9717" y1="18.8053" x2="79.4731" y2="76.6756" gradientUnits="userSpaceOnUse">
<stop stop-color="#C301FB"/>
<stop offset="0.4799" stop-color="#FC517F"/>
<stop offset="1" stop-color="#FDB599"/>
</linearGradient>
</defs>
</svg>
