<svg width="65" height="65" viewBox="0 0 65 65" fill="none" xmlns="http://www.w3.org/2000/svg">
<path d="M61.2458 42.6443C61.2458 43.2069 61.212 43.7627 61.1984 44.3254L61.1713 45.1659C61.1509 45.4438 61.1238 45.7218 61.1035 45.9997C61.0493 46.5555 61.0154 47.1182 60.9476 47.674L60.7103 49.328C60.6154 49.8771 60.507 50.4193 60.3985 50.9684C60.3511 51.2396 60.2833 51.5107 60.2155 51.7751L60.0121 52.5817C59.8766 53.1172 59.7071 53.6392 59.5512 54.1747C59.3682 54.6831 59.2055 55.2118 58.9953 55.7135L58.8462 56.0931L58.6903 56.4591C58.6361 56.5811 58.5818 56.7031 58.5276 56.8184C58.4734 56.9268 58.4124 57.0556 58.3717 57.1302L58.2904 57.3132L58.2836 57.3268C58.2768 57.3403 58.27 57.3607 58.2565 57.381C58.2361 57.4217 58.2158 57.4623 58.1887 57.5098C58.1345 57.5979 58.0802 57.6928 58.0192 57.7809C57.8972 57.964 57.7549 58.1402 57.5989 58.3029C57.2871 58.635 56.9279 58.9197 56.5347 59.1706C55.7348 59.6518 54.7994 59.9569 53.7894 60.0789L53.4165 60.1263L53.0302 60.1399C52.7658 60.1467 52.5218 60.167 52.2099 60.1535L50.4136 60.1467L46.8345 60.1331L32.5045 60.106L18.1745 60.1263L14.5953 60.1467L12.8058 60.1535C12.494 60.1602 12.2499 60.1467 11.9856 60.1331L11.5992 60.1196L11.2196 60.0721C10.2096 59.9501 9.26735 59.6518 8.47425 59.1638C8.08109 58.9197 7.72182 58.6283 7.41001 58.2961C7.2541 58.1334 7.11175 57.9572 6.98973 57.7809C6.92873 57.686 6.86772 57.5979 6.81349 57.5098C6.78637 57.4623 6.76604 57.4284 6.7457 57.3878C6.73215 57.3674 6.72537 57.3471 6.71859 57.3336L6.70503 57.3064L6.61013 57.1166L6.56268 57.0217L6.38643 56.6625L6.15596 56.1405C6.01361 55.7812 5.87126 55.4288 5.73569 55.0627C5.61367 54.6899 5.4781 54.3306 5.36286 53.9578L5.03071 52.8325C4.84769 52.0666 4.63077 51.3074 4.50198 50.5278C4.42741 50.1414 4.34607 49.755 4.27828 49.3619L4.1156 48.1824C3.68176 45.0371 3.66143 41.8376 3.91224 38.6449C4.16982 35.4589 4.69178 32.273 5.54589 29.1684C5.74924 28.3888 5.93227 27.6025 6.18308 26.8501C6.42711 26.0977 6.69147 25.3588 6.99651 24.6538C7.07108 24.4843 7.15242 24.3081 7.24054 24.1454L7.37611 23.881C7.45068 23.7183 7.51847 23.5557 7.56592 23.3794C7.75572 22.688 7.64048 21.922 7.24732 21.3119C7.05074 21.0069 6.7796 20.7425 6.46778 20.5527C6.39321 20.5053 6.30509 20.4646 6.23053 20.4239L6.09495 20.3629C6.02039 20.329 5.95938 20.2951 5.8916 20.2613C5.63401 20.1189 5.42387 19.9494 5.26118 19.7393C4.93581 19.3393 4.78668 18.77 4.80702 18.0785C4.83413 17.3668 4.96292 16.6008 5.1595 15.8687L5.23407 15.5908L5.32219 15.3128C5.3832 15.1298 5.43743 14.9468 5.49844 14.7638C5.64079 14.4045 5.7628 14.0385 5.93905 13.6928L6.18308 13.164C6.2712 12.9946 6.3661 12.8251 6.461 12.6556C6.5559 12.4862 6.64402 12.3167 6.75248 12.1472L7.0643 11.6524C7.92518 10.3509 8.96909 9.16464 10.1486 8.09361L11.0637 7.30729C11.3687 7.04293 11.6738 6.80569 11.9991 6.56166C12.6363 6.08038 13.3074 5.63299 13.9921 5.20593C15.3546 4.35861 16.7984 3.62651 18.2897 3.02322C19.0421 2.72496 19.8013 2.46057 20.5741 2.24366C21.3469 2.02674 22.14 1.85728 22.9398 1.73526C23.7329 1.61325 24.5396 1.55902 25.353 1.55225C26.1597 1.55225 26.9663 1.61325 27.773 1.73526C28.1662 1.80983 28.5729 1.87762 28.966 1.9793C29.366 2.0742 29.7591 2.18944 30.1455 2.31823C30.9183 2.57582 31.6843 2.88086 32.396 3.29436C33.2298 2.7724 34.1585 2.43348 35.0939 2.17589C35.5616 2.05387 36.0429 1.95218 36.5174 1.88439L37.2427 1.77593L37.968 1.70816C38.9374 1.6336 39.9067 1.62004 40.8693 1.68783C41.8319 1.75561 42.7877 1.89796 43.7299 2.1081C45.6076 2.52837 47.4174 3.213 49.1257 4.08745C49.9798 4.52128 50.8135 5.00935 51.6066 5.53808C52.0066 5.80245 52.3997 6.08037 52.7726 6.36507C53.1454 6.64978 53.5318 6.95481 53.8571 7.25307L53.8639 7.25986L53.8978 7.28696C55.6467 8.69013 57.1448 10.3645 58.2904 12.2354C58.8394 13.1776 59.3004 14.1741 59.6325 15.2044L59.7546 15.5908L59.8562 15.9839C59.9308 16.2415 59.9715 16.5059 60.0257 16.7703C60.0664 17.0346 60.1138 17.299 60.1342 17.5498C60.168 17.8074 60.1748 18.0718 60.168 18.2887C60.1477 19.258 59.7884 19.8749 59.0496 20.2748C59.0021 20.2951 58.9614 20.3223 58.9072 20.3426L58.8327 20.3765L58.7106 20.4307C58.4802 20.5392 58.27 20.6951 58.0802 20.8713C57.7074 21.2306 57.4634 21.6983 57.3617 22.1864C57.26 22.6812 57.3142 23.2032 57.504 23.6709L57.5854 23.8404L57.6464 23.9624L57.7345 24.1318C57.7955 24.2539 57.8498 24.3691 57.904 24.4911C58.3446 25.4672 58.7106 26.5247 59.0225 27.5957L59.8698 30.8833C60.1138 31.9883 60.3172 33.1 60.5341 34.2117C60.6154 34.7675 60.69 35.3301 60.7646 35.886C60.8324 36.4418 60.934 37.0044 60.9815 37.5603L61.1103 39.2414L61.1713 40.0819C61.1848 40.3599 61.1848 40.6446 61.1916 40.9225L61.2458 42.6443Z" fill="#CB996C"/>
<path d="M63.2252 30.0835C63.2252 30.0768 63.2252 30.07 63.2184 30.0564L62.2355 26.6603C62.2355 26.6536 62.2288 26.64 62.222 26.6332C61.7678 25.2301 61.3475 24.1455 60.8459 23.1219C60.812 23.0541 60.7849 22.9931 60.751 22.9321C61.5509 22.4373 62.2017 21.7323 62.6016 20.9256C62.805 20.5189 62.9676 20.0715 63.0625 19.597C63.1371 19.1903 63.1778 18.77 63.171 18.3226C63.1642 17.943 63.1371 17.5905 63.0761 17.2042C63.0422 16.8923 62.9812 16.6076 62.927 16.3297L62.9066 16.2145C62.9066 16.2009 62.8999 16.1874 62.8999 16.167L62.8524 15.9704C62.7914 15.7196 62.7304 15.4688 62.649 15.2045L62.5203 14.7706C62.5203 14.7571 62.5135 14.7367 62.5067 14.7232L62.3508 14.2894C61.9237 13.1234 61.3408 11.9507 60.6155 10.8119C60.6155 10.8119 60.6087 10.8051 60.6087 10.7984C59.2665 8.758 57.5041 6.94132 55.3824 5.38902C54.9485 5.03653 54.5283 4.73826 54.1419 4.4739C53.7013 4.17564 53.2539 3.89094 52.8065 3.62657C51.9253 3.09784 50.9966 2.60977 50.034 2.18272C48.1021 1.30828 46.0889 0.691419 44.0485 0.359266C43.0046 0.189801 41.9471 0.0948975 40.9168 0.0813402H40.727C39.7102 0.0813402 38.7205 0.155917 37.7647 0.305046L37.0191 0.433842C36.9987 0.433842 36.9852 0.440627 36.9648 0.440627L36.2531 0.603308C35.7854 0.698208 35.277 0.833784 34.7076 1.03036C33.8128 1.3354 33.0468 1.69467 32.3757 2.10816C30.0371 0.74566 27.2172 0 24.3701 0C23.8414 0 23.2991 0.0271253 22.7772 0.0745756C19.5641 0.359278 16.2426 1.43708 12.8939 3.29442C12.0941 3.73503 11.362 4.18242 10.6705 4.65015C10.2367 4.94163 9.891 5.19244 9.57918 5.43647L8.5895 6.20922C8.58273 6.216 8.57595 6.22278 8.56239 6.22956C7.08465 7.44971 5.83738 8.77156 4.86804 10.1408L4.48844 10.6763C4.39354 10.8119 4.31897 10.9407 4.25118 11.0559C4.21051 11.1237 4.16984 11.1915 4.12239 11.2593C4.11561 11.2729 4.10883 11.2864 4.09528 11.3C4.0546 11.3678 4.00715 11.4423 3.96648 11.5101C3.89192 11.6254 3.82413 11.7474 3.75634 11.8694C3.75634 11.8762 3.74957 11.8897 3.74279 11.8965L3.45131 12.4659C3.28862 12.7642 3.15983 13.0557 3.04459 13.3404C2.99036 13.4624 2.93613 13.5844 2.8819 13.7064C2.87512 13.7199 2.87512 13.7335 2.86834 13.7403C2.80734 13.8962 2.75311 14.0521 2.6921 14.2012C2.67176 14.2622 2.64465 14.33 2.62431 14.391L2.50908 14.7096C2.5023 14.7232 2.49552 14.7435 2.49552 14.7571L2.40062 15.0689C2.09558 16.0857 1.91934 16.9872 1.84477 17.9091C1.84477 17.9295 1.84477 17.943 1.84477 17.9634L1.83799 18.1464C1.83799 18.2074 1.83121 18.3023 1.83799 18.3972V18.4921C1.83799 18.5802 1.83799 18.6751 1.84477 18.7904C1.86511 19.1361 1.90578 19.4343 1.97357 19.7258C2.1227 20.4104 2.41418 21.0612 2.81412 21.5967C3.18016 22.0983 3.675 22.5525 4.24441 22.9185C4.19018 23.0338 4.12917 23.149 4.06138 23.2981C3.39708 24.7149 2.84801 26.2468 2.29894 28.2601C1.34315 31.3918 0.665291 34.7676 0.278909 38.2992C-0.100694 41.7835 -0.0939153 45.2677 0.306024 48.657L0.468711 49.9314C0.468711 49.9381 0.468711 49.9449 0.468711 49.9517C0.516161 50.2703 0.57039 50.5889 0.624619 50.8939C0.644955 51.0092 0.665291 51.1176 0.685627 51.2329C0.787306 51.8904 0.943214 52.5344 1.08557 53.158C1.13979 53.3681 1.18725 53.5851 1.2347 53.7952C1.2347 53.8155 1.24147 53.8291 1.24825 53.8426L1.59396 55.0831C1.67531 55.3814 1.77021 55.6661 1.85833 55.9305C1.90578 56.0728 1.95323 56.2152 1.9939 56.3507C1.9939 56.3575 2.00068 56.3643 2.00068 56.3711C2.14981 56.8185 2.31928 57.2523 2.46841 57.6387C2.47518 57.6454 2.47518 57.659 2.48196 57.6658L2.74633 58.2759C2.74633 58.2826 2.75311 58.2894 2.75311 58.2962L2.89546 58.6148C2.89546 58.6148 2.89546 58.6216 2.90224 58.6284L2.9768 58.7842C2.98358 58.7978 2.98358 58.8046 2.99036 58.8182L3.0107 58.852L3.03781 58.9266C3.04459 58.9402 3.05137 58.9537 3.05815 58.974L3.07848 59.0147C3.1056 59.069 3.12593 59.1232 3.14627 59.1638C3.15983 59.191 3.17338 59.2181 3.18694 59.2452C3.22083 59.3198 3.2615 59.3876 3.30218 59.4553C3.3903 59.6248 3.50554 59.8214 3.64111 60.0112C3.85802 60.3501 4.11561 60.6755 4.42065 61.0076C4.94938 61.5974 5.57979 62.1329 6.29155 62.6006C6.29833 62.6006 6.30511 62.6074 6.30511 62.6074C7.57949 63.4073 9.06401 63.9224 10.6909 64.1394L11.2061 64.2072C11.2332 64.2072 11.2671 64.2139 11.2942 64.2139L11.7958 64.2343C12.1279 64.2546 12.4601 64.2682 12.7448 64.2682H12.8194L14.5954 64.2749L18.1745 64.2885L32.5045 64.3156L46.8345 64.2885L50.4136 64.2749L52.1964 64.2682H52.3116C52.5421 64.2682 52.7929 64.2614 53.037 64.2478L53.22 64.2411L53.7352 64.2139C53.7623 64.2139 53.7894 64.2139 53.8165 64.2072L54.3249 64.1394C55.9653 63.9224 57.4431 63.4073 58.7107 62.6074C58.7174 62.6074 58.7174 62.6006 58.7242 62.6006C59.4292 62.1397 60.0596 61.6042 60.5951 61.0144C60.8934 60.6755 61.1442 60.3501 61.3747 60.0112C61.5035 59.8146 61.6119 59.6384 61.7068 59.4621C61.7678 59.3672 61.8085 59.2791 61.8492 59.1978L61.8763 59.1435C61.9034 59.0825 61.9373 59.0079 61.9712 58.9334L61.9915 58.8792C62.039 58.7843 62.0796 58.7029 62.1135 58.6148L62.1678 58.5063C62.2288 58.3843 62.2762 58.2691 62.3237 58.1538L62.3711 58.0386L62.5541 57.598C62.5609 57.5844 62.5677 57.5709 62.5677 57.5641L62.7236 57.137C62.8931 56.71 63.0286 56.2897 63.1574 55.883C63.2117 55.7068 63.2727 55.5373 63.3269 55.3678C63.3337 55.3475 63.3405 55.3271 63.3472 55.3068C63.3947 55.1238 63.4489 54.934 63.5032 54.751C63.6184 54.351 63.7336 53.9375 63.8285 53.524L64.0319 52.6361L64.0726 52.4666C64.1268 52.2158 64.1878 51.9582 64.2285 51.687C64.2556 51.5243 64.2895 51.3549 64.3166 51.1854C64.3912 50.7651 64.4657 50.3313 64.5335 49.8975C64.5335 49.8907 64.5335 49.8839 64.5335 49.8771L64.7572 48.0944C64.8046 47.6741 64.8318 47.2674 64.8589 46.8742C64.8724 46.6709 64.886 46.4675 64.9063 46.2709C64.9131 46.1489 64.9199 46.0404 64.9334 45.9252C64.947 45.7286 64.9606 45.532 64.9673 45.3422C64.9673 45.3287 64.9673 45.3219 64.9673 45.3083L64.9809 44.4136C65.0961 39.7973 64.5064 34.9709 63.2252 30.0835ZM32.8231 4.23664C32.8638 4.21631 32.9112 4.19599 32.9451 4.16887C33.5959 3.76893 34.3618 3.4571 35.3583 3.17918C35.8125 3.06394 36.2395 2.97583 36.6598 2.91482L37.3716 2.80636L38.063 2.74536C38.5781 2.70468 39.0933 2.68435 39.5949 2.68435C40.0017 2.68435 40.4084 2.69791 40.8083 2.72502C41.6963 2.78603 42.6046 2.9216 43.513 3.12496C45.2144 3.50456 46.9497 4.14176 48.6783 5.0162C49.4917 5.4297 50.2984 5.89741 51.0576 6.40581C51.4711 6.68373 51.8371 6.94132 52.1761 7.19213C52.5828 7.49717 52.9217 7.77508 53.1929 8.02589C53.22 8.04623 53.2403 8.06658 53.2606 8.08692H53.2674C53.2742 8.08692 53.2742 8.09369 53.281 8.10047C54.9621 9.44941 56.3653 11.0288 57.4431 12.7777C57.9718 13.6928 58.3921 14.6215 58.6903 15.5366L58.7988 15.8891L58.8937 16.2552C58.8937 16.2619 58.8937 16.2687 58.9005 16.2755C58.9411 16.4178 58.975 16.5873 59.0089 16.7568C59.0225 16.8313 59.036 16.8991 59.0496 16.9737L59.0632 17.0754C59.097 17.2787 59.1309 17.4753 59.1445 17.6448C59.1445 17.6583 59.1445 17.6719 59.1445 17.6854C59.1716 17.9159 59.1784 18.1464 59.1716 18.2955C59.1581 18.9598 58.9479 19.2038 58.5954 19.4004L58.5548 19.4208C58.5412 19.4276 58.5276 19.4343 58.5141 19.4411L58.426 19.4818L58.3107 19.536C58.3039 19.536 58.2972 19.5428 58.2972 19.5428C57.9786 19.6919 57.6735 19.9021 57.4024 20.1596C56.894 20.6545 56.5347 21.312 56.3924 22.0102C56.25 22.6948 56.3246 23.4269 56.5957 24.0777C56.6025 24.0913 56.6093 24.1048 56.6161 24.1184L56.6974 24.2946C56.6974 24.3014 56.6974 24.3082 56.7042 24.3082L56.7652 24.4302C56.7652 24.437 56.772 24.4437 56.7788 24.4505L56.8601 24.6132C56.9143 24.7216 56.9618 24.8233 57.016 24.9318C57.3888 25.752 57.7345 26.7214 58.0802 27.8941L58.9208 31.1478C59.0767 31.8596 59.2191 32.5984 59.3546 33.3034C59.4224 33.6694 59.497 34.0423 59.5715 34.4083C59.6326 34.7879 59.68 35.1811 59.7342 35.5675L59.7952 36.0488C59.8224 36.2453 59.8495 36.4487 59.8766 36.6588C59.9308 37.0113 59.9715 37.3502 59.9986 37.6824L60.1274 39.3567L60.1884 40.1837C60.1952 40.326 60.1952 40.4752 60.1952 40.6243C60.1952 40.7463 60.202 40.8683 60.202 40.9971L60.2426 42.6647C60.2426 43.0036 60.2291 43.3425 60.2155 43.7086C60.2087 43.9119 60.202 44.1085 60.1952 44.3119L60.1681 45.1253C60.1613 45.2745 60.141 45.4304 60.1342 45.5863C60.1206 45.7015 60.1138 45.81 60.1071 45.9184C60.0867 46.1353 60.0664 46.3522 60.0461 46.5624C60.0189 46.9081 59.9918 47.2267 59.9512 47.5521L59.7207 49.1857C59.6597 49.5585 59.5851 49.9246 59.5105 50.311C59.4834 50.4737 59.4495 50.6296 59.4156 50.7923C59.4156 50.799 59.4156 50.8058 59.4156 50.8126C59.3817 51.0024 59.3343 51.2057 59.2801 51.4159L59.2462 51.5582L59.0428 52.3649C58.9615 52.6903 58.8666 53.0224 58.7581 53.3681C58.7039 53.5376 58.6564 53.7138 58.6022 53.8833C58.548 54.0392 58.4937 54.1951 58.4395 54.351C58.3175 54.6968 58.209 55.0289 58.0735 55.3407C58.0735 55.3475 58.0667 55.3543 58.0667 55.3678L57.9243 55.7271L57.7752 56.0728L57.7278 56.1745C57.7006 56.2355 57.6735 56.3033 57.6396 56.3643C57.6329 56.3779 57.6261 56.3914 57.6193 56.3982C57.599 56.4456 57.5244 56.6015 57.4973 56.649C57.4837 56.6761 57.4702 56.6964 57.4634 56.7236L57.3888 56.8795C57.3821 56.8998 57.3685 56.9201 57.3617 56.9405L57.3414 56.9744L57.3278 57.0015C57.2804 57.0828 57.2397 57.1506 57.1922 57.2048C57.1922 57.2116 57.1855 57.2184 57.1787 57.232C57.0906 57.3608 56.9821 57.4895 56.8601 57.6183C56.6161 57.8827 56.3246 58.1132 55.9924 58.3233C55.3349 58.7232 54.5486 58.9808 53.6538 59.0893L53.3217 59.13L52.9759 59.1435C52.9149 59.1435 52.8471 59.1435 52.7794 59.1503C52.6438 59.1571 52.515 59.1638 52.3659 59.1638C52.3184 59.1638 52.271 59.1638 52.2235 59.1638H52.1964L50.4001 59.1571L46.8209 59.1435L32.4909 59.1164L18.1609 59.1435L14.575 59.1638L12.7855 59.1706H12.6431C12.4601 59.1706 12.2906 59.1639 12.1144 59.1571H12.0059L11.6602 59.1503L11.3348 59.1028C10.4265 58.9944 9.64019 58.7368 8.98267 58.3369C8.66407 58.1335 8.37259 57.903 8.12856 57.6387C7.99299 57.4963 7.89131 57.3607 7.80996 57.2455C7.74895 57.1574 7.70828 57.0896 7.67439 57.0354C7.66761 57.0286 7.66083 57.0083 7.64728 56.9879L7.62016 56.9405L7.61338 56.9269C7.6066 56.8998 7.59305 56.8795 7.57949 56.8591L7.52526 56.7439C7.51848 56.7236 7.5117 56.71 7.49815 56.6897L7.45747 56.6015L7.29479 56.2694L7.09143 55.761C7.05076 55.6593 7.01008 55.5576 6.96941 55.4559C6.87451 55.2119 6.77961 54.9814 6.69827 54.7442C6.65082 54.6086 6.61015 54.4798 6.5627 54.3443C6.48135 54.1138 6.40679 53.8969 6.34578 53.6799L6.0204 52.5818C5.97295 52.3785 5.91873 52.1751 5.87128 51.9717C5.7357 51.4227 5.60013 50.9007 5.51201 50.372C5.48489 50.1957 5.451 50.0398 5.41711 49.8771C5.37644 49.6602 5.32899 49.4433 5.29509 49.2196L5.13241 48.0605C4.73924 45.1931 4.67146 42.0614 4.93583 38.7466C5.20019 35.4929 5.7357 32.368 6.53558 29.4599C6.58981 29.2633 6.63048 29.0803 6.67793 28.9041C6.82706 28.3008 6.97619 27.7381 7.15244 27.1958C7.4168 26.3756 7.67439 25.691 7.93198 25.0877C7.99976 24.9318 8.07433 24.7759 8.14889 24.6335L8.29124 24.3624C8.29124 24.3556 8.29802 24.3488 8.29802 24.3421C8.41326 24.1048 8.4946 23.8811 8.55561 23.6642C8.82676 22.6881 8.66407 21.6374 8.10822 20.7833C7.8303 20.3494 7.4507 19.9902 7.02364 19.719C6.92874 19.658 6.84062 19.6106 6.77283 19.5835C6.7525 19.5767 6.73894 19.5631 6.7186 19.5563C6.69827 19.5496 6.68471 19.536 6.66437 19.5292L6.5288 19.4682C6.52202 19.4614 6.50847 19.4614 6.50169 19.4547C6.47457 19.4411 6.44746 19.4276 6.42034 19.414L6.38645 19.3937C6.25088 19.3191 6.14242 19.231 6.06786 19.1293C5.89839 18.9259 5.82383 18.5802 5.83738 18.1261C5.85772 17.5363 5.96618 16.8517 6.15598 16.1467L6.22376 15.8891L6.30511 15.6383L6.339 15.5298C6.37967 15.401 6.42034 15.2722 6.46102 15.1434C6.50169 15.035 6.54914 14.9333 6.58303 14.8249C6.67115 14.5944 6.75928 14.3707 6.85418 14.1809C6.86095 14.1673 6.86095 14.1538 6.86773 14.147L7.10499 13.6386C7.14566 13.5573 7.19311 13.4759 7.24056 13.3946L7.35579 13.1777C7.39647 13.1166 7.43036 13.0489 7.47103 12.9811C7.51848 12.893 7.56593 12.8048 7.6066 12.737C7.6066 12.7303 7.61338 12.7303 7.61338 12.7235L7.9252 12.2354C8.70474 11.056 9.68086 9.93069 10.8332 8.88L11.7348 8.10725C12.0398 7.84289 12.3516 7.60563 12.616 7.40905C13.2193 6.96167 13.8633 6.52104 14.5344 6.10076C15.8697 5.28055 17.2594 4.56881 18.6761 3.99941C19.4217 3.70793 20.1538 3.45033 20.8588 3.25375C21.5841 3.05039 22.3433 2.88769 23.1025 2.77246C23.8075 2.664 24.5735 2.60977 25.3666 2.60299C26.1123 2.60299 26.8715 2.664 27.6035 2.77246C27.712 2.79279 27.8205 2.81315 27.9289 2.83348C28.2068 2.88771 28.4712 2.93515 28.722 2.99616C29.0881 3.08428 29.4541 3.19274 29.8269 3.31476C30.6539 3.5859 31.3047 3.8706 31.8741 4.19597C31.9148 4.22309 31.9554 4.24342 31.9961 4.25698C32.1249 4.31798 32.2605 4.33834 32.396 4.33834H32.4232C32.5519 4.33156 32.6943 4.29765 32.8231 4.23664Z" fill="#231F20"/>
<path d="M32.491 36.3604C30.1659 36.3604 28.2747 34.4692 28.2747 32.1441C28.2747 31.5543 28.7492 31.0798 29.3389 31.0798C29.9286 31.0798 30.4031 31.5543 30.4031 32.1441C30.4031 33.2965 31.3386 34.2319 32.491 34.2319C33.6433 34.2319 34.5788 33.2965 34.5788 32.1441C34.5788 31.5543 35.0533 31.0798 35.643 31.0798C36.2328 31.0798 36.7073 31.5543 36.7073 32.1441C36.7073 34.4692 34.816 36.3604 32.491 36.3604Z" fill="#231F20"/>
<path d="M27.1842 26.1114C27.1842 28.2467 25.4556 29.9752 23.3204 29.9752C21.1851 29.9752 19.4565 28.2467 19.4565 26.1114C19.4565 23.9762 21.1851 22.2544 23.3204 22.2544C25.4556 22.2544 27.1842 23.9762 27.1842 26.1114Z" fill="#231F20"/>
<path d="M45.527 26.1114C45.527 28.2467 43.7985 29.9752 41.67 29.9752C39.5347 29.9752 37.8062 28.2467 37.8062 26.1114C37.8062 23.9762 39.5347 22.2544 41.67 22.2544C43.7985 22.2544 45.527 23.9762 45.527 26.1114Z" fill="#231F20"/>
</svg>
